<svg width="55" height="55" viewBox="0 0 55 55" fill="none" xmlns="http://www.w3.org/2000/svg">
<path fill-rule="evenodd" clip-rule="evenodd" d="M27 54C41.9117 54 54 41.9117 54 27C54 12.0883 41.9117 0 27 0C12.0883 0 0 12.0883 0 27C0 41.9117 12.0883 54 27 54Z" fill="white" stroke="#5C20D2"/>
<path fill-rule="evenodd" clip-rule="evenodd" d="M19.3512 21.5575L19.0326 19.0089C19.0326 19.0089 32.4131 12.9558 33.3689 13.2744C34.3246 13.5929 39.1034 24.1062 39.1034 24.1062L20.3069 24.4248L19.3512 21.5575Z" fill="url(#paint0_linear)"/>
<path d="M19.0326 21.8762C19.0326 21.8762 18.714 19.4743 18.714 18.8435C18.714 18.2127 28.9087 13.593 32.0945 13.593C32.0945 13.593 34.3246 13.2744 35.9175 19.6461" stroke="#282540"/>
<path fill-rule="evenodd" clip-rule="evenodd" d="M24.1299 15.8166L29.2273 23.4626L30.8202 21.8697L25.7228 15.1794L24.1299 15.8166Z" fill="#39A4E9"/>
<path fill-rule="evenodd" clip-rule="evenodd" d="M15.5281 21.5576C15.5281 21.5576 18.3954 34.6195 21.8998 36.2125C25.4043 37.8054 37.4642 36.1085 39.1034 35.1849C40.7425 34.2614 44.8379 23.1505 43.5635 21.239L15.5281 21.5576Z" fill="url(#paint1_linear)"/>
<path fill-rule="evenodd" clip-rule="evenodd" d="M14.5724 21.2391C14.5724 21.2391 8.83788 19.9648 8.83788 19.009C8.83788 17.4161 14.5724 17.4161 14.5724 21.2391Z" fill="#39A4E9"/>
<path d="M14.2538 19.6461C14.2538 19.6461 7.56355 16.1417 8.20071 19.0089C8.37938 19.6461 9.79363 19.9647 12.3423 19.9647C14.891 19.9647 17.1211 28.5664 18.0768 32.3894C18.0768 32.3894 19.0326 35.5753 21.8998 36.2125C24.7671 36.531 37.829 37.1682 39.422 33.9824C41.0149 30.7965 43.245 20.9204 43.245 20.9204L15.5281 21.5576" stroke="#282540"/>
<path d="M16.1653 26.3299H41.9706" stroke="#282540"/>
<path d="M18.714 31.7458L40.0591 32.0644" stroke="#282540"/>
<path d="M21.5812 38.4426C21.5812 38.4426 31.7759 36.8497 35.9175 38.124" stroke="#282540"/>
<path fill-rule="evenodd" clip-rule="evenodd" d="M36.8733 42.8965C38.1049 42.8965 39.1034 41.898 39.1034 40.6664C39.1034 39.4347 38.1049 38.4363 36.8733 38.4363C35.6416 38.4363 34.6432 39.4347 34.6432 40.6664C34.6432 41.898 35.6416 42.8965 36.8733 42.8965Z" stroke="#282540"/>
<path fill-rule="evenodd" clip-rule="evenodd" d="M36.9912 43.2214C38.2228 43.2214 39.2212 42.223 39.2212 40.9913C39.2212 39.7597 38.2228 38.7612 36.9912 38.7612C35.7595 38.7612 34.7611 39.7597 34.7611 40.9913C34.7611 42.223 35.7595 43.2214 36.9912 43.2214Z" fill="#282540"/>
<path fill-rule="evenodd" clip-rule="evenodd" d="M21.6991 42.9028C22.9308 42.9028 23.9292 41.9044 23.9292 40.6727C23.9292 39.4411 22.9308 38.4426 21.6991 38.4426C20.4675 38.4426 19.469 39.4411 19.469 40.6727C19.469 41.9044 20.4675 42.9028 21.6991 42.9028Z" fill="#282540"/>
<path fill-rule="evenodd" clip-rule="evenodd" d="M21.2627 42.8965C22.4943 42.8965 23.4927 41.898 23.4927 40.6664C23.4927 39.4347 22.4943 38.4363 21.2627 38.4363C20.031 38.4363 19.0326 39.4347 19.0326 40.6664C19.0326 41.898 20.031 42.8965 21.2627 42.8965Z" stroke="#282540"/>
<path d="M23.8113 15.8231C23.8113 15.8231 19.9883 15.1859 21.8998 14.2302C23.8113 13.2744 25.0857 15.1859 25.0857 15.1859C25.0857 15.1859 25.7228 11.3629 26.6786 12.3187C27.6343 13.2744 26.36 14.5488 26.36 14.5488" stroke="#282540"/>
<path d="M26.36 15.1794L29.8644 20.5954" stroke="#282540"/>
<defs>
<linearGradient id="paint0_linear" x1="18.1205" y1="13.4264" x2="18.3033" y2="25.6096" gradientUnits="userSpaceOnUse">
<stop stop-color="#EBEBEB"/>
<stop offset="1" stop-color="#D2D2D2"/>
</linearGradient>
<linearGradient id="paint1_linear" x1="15.5281" y1="21.239" x2="15.5281" y2="36.8676" gradientUnits="userSpaceOnUse">
<stop stop-color="#5C20D2"/>
<stop offset="1" stop-color="#39A4E9"/>
</linearGradient>
</defs>
</svg>
