<svg width="56" height="56" viewBox="0 0 56 56" fill="none" xmlns="http://www.w3.org/2000/svg">
<path fill-rule="evenodd" clip-rule="evenodd" d="M28 56C43.464 56 56 43.464 56 28C56 12.536 43.464 0 28 0C12.536 0 0 12.536 0 28C0 43.464 12.536 56 28 56Z" fill="black"/>
<mask id="mask0" mask-type="alpha" maskUnits="userSpaceOnUse" x="0" y="0" width="56" height="56">
<path fill-rule="evenodd" clip-rule="evenodd" d="M28 56C43.464 56 56 43.464 56 28C56 12.536 43.464 0 28 0C12.536 0 0 12.536 0 28C0 43.464 12.536 56 28 56Z" fill="white"/>
</mask>
<g mask="url(#mask0)">
<path d="M28.8363 14.7368C29.5811 14.8571 30.3772 14.7368 31.1476 14.8972C32.0037 15.0701 32.8247 15.3955 33.5744 15.8592C34.9227 16.7812 36.0125 18.0582 36.7331 19.5603C37.0816 20.1227 37.3255 20.7482 37.4522 21.4042C37.4522 21.952 37.1568 22.433 37.2467 22.9942C37.4938 23.9781 38.0844 24.8308 38.9031 25.3859C39.1856 25.6265 39.8019 25.9338 39.7891 26.3747C39.7763 26.8156 39.1984 27.0962 38.993 27.3234C38.6272 27.5994 38.412 28.0423 38.4152 28.5125C38.4152 28.753 38.672 28.9134 38.6206 29.1539C38.5693 29.3944 38.2354 29.4612 38.2226 29.6215C38.2097 29.7819 38.5051 29.9823 38.4922 30.2095C38.4794 30.4366 38.1969 30.5034 38.0813 30.7172C37.8403 31.1417 37.9519 31.6876 38.3381 31.9732C38.7619 32.4007 38.9673 32.3874 38.6848 33.0822C38.5048 33.536 38.1363 33.8801 37.6833 34.0175C36.8336 34.1993 35.9552 34.1764 35.1152 33.9507C33.9853 33.8304 33.8312 34.4718 33.4717 35.4338C32.8585 37.2934 32.525 39.2404 32.483 41.206C31.9309 41.4866 30.9807 40.6582 30.5313 40.3642C29.504 39.6961 28.5153 39.028 27.4753 38.36C26.5234 37.9992 25.5929 37.5798 24.6889 37.104C24.2677 36.7358 24.0081 36.2053 23.9699 35.6342C23.7906 34.1626 23.4899 32.7097 23.0711 31.2917C22.835 30.7719 22.488 30.3149 22.0567 29.9556C21.5341 29.3835 21.1009 28.7297 20.7727 28.0182C19.4886 25.5062 18.5898 22.5667 19.5785 19.8409C20.3594 18.2572 21.5517 16.9332 23.0197 16.0195C24.1321 15.3429 25.3911 14.9706 26.6792 14.9372C27.4602 14.7885 28.2607 14.7885 29.0418 14.9372L28.8363 14.7368Z" fill="url(#paint0_linear)"/>
<path d="M33.7579 16.3658C30.4218 15.5429 28.9581 17.3775 28.8922 20.0755C28.702 21.1669 28.5962 22.272 28.5757 23.3805C28.6812 23.8796 29.2087 24.0415 29.3801 24.5406C29.5515 25.0398 29.5383 25.7547 29.7229 26.3078C30.3295 28.0615 32.1624 29.4509 33.6788 30.5436C35.1952 31.6363 38.3995 31.7712 39.3884 33.2416C37.3841 34.105 34.5359 33.2416 32.3734 33.2416C29.1032 33.2416 29.0372 32.5941 27.9296 30.0175C27.6263 29.3295 25.6879 23.8392 24.2902 26.0785C23.8287 26.8069 25.0286 27.994 24.7649 28.8979C24.5012 29.8017 23.3672 30.665 22.5496 31.3395C19.8332 27.1846 12.6808 25.4258 16.365 17.5014C19.2354 11.3273 22.2011 14.8342 24.7649 12.0065C28.8922 7.45428 33.2356 13.3042 34.4378 16.0269C34.6791 16.1884 33.7579 16.3658 33.7579 16.3658Z" fill="url(#paint1_linear)"/>
<path d="M37.9249 31.1508C38.4524 31.2992 39.7446 32.3783 39.6259 33.0259C39.4413 34.0106 37.7139 33.8622 36.9887 33.8757C35.9798 33.8727 34.9718 33.8141 33.969 33.7004C32.8701 33.6688 31.7834 33.4547 30.7516 33.0663C30.489 32.9749 30.2531 32.8172 30.0659 32.6077C30.4088 32.4728 31.1604 32.6886 31.3845 32.4593C31.6087 32.23 31.2791 31.4745 31.6219 31.1103C31.9647 30.7461 33.7844 31.3261 34.391 31.542C34.9976 31.7578 38.0963 32.783 37.7008 31.0294C37.8382 31.0749 37.9674 31.1433 38.0832 31.2317L37.9249 31.1508Z" fill="black"/>
<path d="M38.3863 27.387C38.6945 27.5455 38.8696 27.8874 38.8215 28.2368C38.3216 28.1873 37.8182 28.1873 37.3183 28.2368C36.8109 28.3537 36.3507 28.6267 35.9996 29.0192C35.4832 29.8144 35.3428 30.8047 35.6172 31.7172C34.4041 31.5688 34.5096 28.9383 35.103 28.2638C35.5346 27.8383 36.0902 27.5683 36.6853 27.4949C37.0282 27.4949 38.4655 27.4949 38.4523 27.4139L38.3863 27.387Z" fill="black"/>
<path d="M23.9383 33.8948C24.7028 35.8722 30.8862 38.4867 33.2334 38.3408C32.8981 40.159 34.8698 41.6321 35.6746 43.2778C36.4794 44.9235 41.2544 50.6833 41.7641 52.3025C42.9578 56.1247 46.9013 98.1691 48.94 117.254C49.8253 125.562 50.8313 133.777 51.9982 142.018C52.4274 145.044 52.5213 148.07 52.9237 151.11C53.1517 152.822 55.1234 155.768 54.3454 157.467C53.0042 160.466 41.697 160.864 38.4377 161.329C31.6373 162.311 25.1991 162.656 18.5328 160.572C14.965 159.497 11.7325 157.918 8.11095 156.976C4.48945 156.033 4.50286 155.502 4.42239 152.357C4.38507 145.232 5.04992 138.12 6.40751 131.122C9.34494 114.652 10.2302 106.942 14.7235 87.5386C16.199 81.1815 18.1439 76.4966 19.1096 70.0599C19.7266 65.9722 16.6953 51.6389 17.5403 48.1883C18.278 45.2022 20.4509 35.6334 23.9517 34.3726L23.9383 33.8948Z" fill="url(#paint2_linear)"/>
<path d="M6.40538 131.126C9.33968 114.651 10.224 106.938 14.7125 87.5287C16.1864 81.1696 18.1292 76.4833 19.0939 70.0446C19.7102 65.9556 16.6553 50.6089 17.5128 47.1572C18.2498 44.1702 20.4337 35.6073 23.9442 34.3461V33.8948C24.6936 35.0336 25.7723 35.9219 27.0393 36.4437C26.3559 39.0989 25.3778 41.6876 24.9357 44.4091C24.3005 48.9479 24.1612 53.5413 24.5203 58.1097C24.739 64.2979 25.3566 70.466 26.3693 76.5762C25.619 88.5244 25.7798 100.672 28.5801 112.235C30.3054 119.935 33.4142 127.265 37.7582 133.874C42.0323 140.101 48.0751 144.574 52.8316 150.27C52.8316 150.549 52.8316 150.827 52.9254 151.106C53.1532 152.819 55.1228 155.766 54.3456 157.465C53.0058 160.465 41.7107 160.864 38.4549 161.328C31.6618 162.311 25.2304 162.656 18.5713 160.572C15.0073 159.496 11.7782 157.917 8.1606 156.974C4.54297 156.031 4.50278 155.514 4.42238 152.367C4.38511 145.24 5.04925 138.126 6.40538 131.126Z" fill="url(#paint3_linear)"/>
<path d="M23.55 42.9783C24.0565 42.1122 24.7027 41.3405 25.4612 40.6959C25.5403 40.7904 25.4612 40.6959 25.5403 40.6959L25.3426 40.8715C25.7086 40.5383 26.1722 40.3388 26.6606 40.3042C29.7449 38.6701 33.7387 41.2226 35.4918 43.8022C36.8783 45.7709 37.3595 48.2608 36.8099 50.6224C36.3353 52.6482 36.4144 54.8766 36.1245 56.9564C36.1534 58.0807 36.0916 59.2054 35.9399 60.3193C35.6545 62.1076 35.4696 63.9114 35.3863 65.7215C35.3863 66.8964 34.8196 68.6656 35.1623 69.7731C35.4808 69.6336 35.8509 69.7542 36.0322 70.0567C36.5462 70.6779 36.0322 70.6644 36.0322 71.4072C36.0322 72.15 36.5462 71.9069 37.0471 72.2311C37.8116 72.7443 37.2975 72.6497 37.3634 73.379C37.4293 74.1083 43.8616 81.982 44.7183 84.575C45.132 85.4986 45.4543 86.4623 45.6805 87.4517C45.6805 88.1135 45.7464 87.7893 45.2983 88.235C44.8501 88.6807 44.2834 89.0993 43.8089 89.491C43.0048 90.1393 42.1481 90.7065 41.3177 91.3683C40.4478 90.9901 39.9996 89.3424 39.1297 88.6672C37.4483 87.263 35.8629 85.7423 34.3846 84.1158C33.0665 82.6167 31.7484 81.0636 30.4304 79.551C29.4137 78.5513 28.5276 77.4209 27.7942 76.1882C27.4762 74.9876 27.247 73.7641 27.1088 72.5282C26.7417 71.3262 26.3015 70.1489 25.7907 69.0033C24.3567 65.2076 23.3958 61.2417 22.9305 57.1995C22.7064 55.2007 22.7591 53.1479 22.4164 51.1761C22.0768 49.5243 22.0144 47.8253 22.2319 46.1521C22.4621 45.0153 22.9101 43.9365 23.55 42.9783Z" fill="url(#paint4_linear)"/>
<path d="M22.2392 46.6166C22.4696 45.4905 22.9179 44.4219 23.5583 43.4726C23.7034 43.2318 23.8749 42.9776 24.0596 42.7368C25.1149 58.9919 29.3362 76.1836 44.8758 85.0536C45.2416 85.8287 45.5119 86.6465 45.6805 87.4886C45.6805 88.1441 45.7465 87.823 45.298 88.2645C44.8495 88.706 44.2822 89.1208 43.8073 89.5088C43.0026 90.1509 42.1452 90.7128 41.3141 91.3684C40.4435 90.9938 39.995 89.3616 39.1243 88.6927C37.4416 87.3016 35.8549 85.7952 34.3754 84.184C33.0562 82.699 31.7371 81.1604 30.4179 79.662C29.4005 78.6717 28.5137 77.552 27.7796 76.3307C27.4613 75.1414 27.232 73.9294 27.0937 72.7051C26.7263 71.5144 26.2857 70.3481 25.7745 69.2133C24.3394 65.4532 23.3776 61.5245 22.9119 57.5203C22.6877 55.5402 22.7405 53.5067 22.3975 51.5534C22.0708 49.9286 22.0173 48.2595 22.2392 46.6166Z" fill="url(#paint5_linear)"/>
</g>
<defs>
<linearGradient id="paint0_linear" x1="11.9407" y1="11.8494" x2="25.6558" y2="60.0026" gradientUnits="userSpaceOnUse">
<stop stop-color="#EAEAEA"/>
<stop offset="1" stop-color="#D0D0D0"/>
</linearGradient>
<linearGradient id="paint1_linear" x1="15.3325" y1="10.3271" x2="15.3325" y2="33.6253" gradientUnits="userSpaceOnUse">
<stop stop-color="#242425"/>
<stop offset="1" stop-color="#04121B"/>
</linearGradient>
<linearGradient id="paint2_linear" x1="1.73747" y1="37.3881" x2="19.3249" y2="163.283" gradientUnits="userSpaceOnUse">
<stop stop-color="#CCCCCC"/>
<stop offset="1" stop-color="#D9D7D7"/>
</linearGradient>
<linearGradient id="paint3_linear" x1="-1.44029" y1="40.1917" x2="13.4585" y2="144.982" gradientUnits="userSpaceOnUse">
<stop stop-color="#D4D4D4"/>
<stop offset="1" stop-color="#F4F4F4"/>
</linearGradient>
<linearGradient id="paint4_linear" x1="7.15652" y1="49.0739" x2="47.4489" y2="87.1357" gradientUnits="userSpaceOnUse">
<stop stop-color="#FAFAFA"/>
<stop offset="1" stop-color="#F4F4F4"/>
</linearGradient>
<linearGradient id="paint5_linear" x1="-13.2772" y1="62.6674" x2="39.2902" y2="85.6917" gradientUnits="userSpaceOnUse">
<stop stop-color="#F6F6F6"/>
<stop offset="1" stop-color="#EAEAEA"/>
</linearGradient>
</defs>
</svg>
