<svg width="56" height="55" viewBox="0 0 56 55" fill="none" xmlns="http://www.w3.org/2000/svg">
<path fill-rule="evenodd" clip-rule="evenodd" d="M28 54C42.9117 54 55 41.9117 55 27C55 12.0883 42.9117 0 28 0C13.0883 0 1 12.0883 1 27C1 41.9117 13.0883 54 28 54Z" fill="white" stroke="#5C20D2"/>
<mask id="mask0" mask-type="alpha" maskUnits="userSpaceOnUse" x="0" y="-1" width="56" height="56">
<path fill-rule="evenodd" clip-rule="evenodd" d="M28 54C42.9117 54 55 41.9117 55 27C55 12.0883 42.9117 0 28 0C13.0883 0 1 12.0883 1 27C1 41.9117 13.0883 54 28 54Z" fill="white" stroke="white"/>
</mask>
<g mask="url(#mask0)">
<path fill-rule="evenodd" clip-rule="evenodd" d="M20.3508 22.5575L20.0322 20.0089C20.0322 20.0089 33.4128 13.9558 34.3685 14.2744C35.3243 14.5929 40.103 25.1062 40.103 25.1062L21.3066 25.4248L20.3508 22.5575Z" fill="url(#paint0_linear)"/>
<path d="M20.0325 22.8762C20.0325 22.8762 19.7139 20.4743 19.7139 19.8435C19.7139 19.2127 29.9086 14.593 33.0944 14.593C33.0944 14.593 35.3245 14.2744 36.9174 20.6461" stroke="#282540"/>
<path fill-rule="evenodd" clip-rule="evenodd" d="M25.1299 16.8166L30.2272 24.4626L31.8201 22.8697L26.7228 16.1794L25.1299 16.8166Z" fill="#39A4E9"/>
<path fill-rule="evenodd" clip-rule="evenodd" d="M16.5278 22.5576C16.5278 22.5576 19.3951 35.6195 22.8995 37.2125C26.4039 38.8054 38.4639 37.1085 40.1031 36.1849C41.7422 35.2614 45.8376 24.1505 44.5632 22.239L16.5278 22.5576Z" fill="#694F70"/>
<path fill-rule="evenodd" clip-rule="evenodd" d="M15.5724 22.2391C15.5724 22.2391 9.83789 20.9648 9.83789 20.009C9.83789 18.4161 15.5724 18.4161 15.5724 22.2391Z" fill="#C5003E"/>
<path fill-rule="evenodd" clip-rule="evenodd" d="M15.2536 20.6461C15.2536 20.6461 8.56333 17.1417 9.2005 20.0089C9.37917 20.6461 10.7934 20.9647 13.3421 20.9647C15.8908 20.9647 18.1209 29.5664 19.0766 33.3894C19.0766 33.3894 20.0324 36.5753 22.8996 37.2125C25.7669 37.531 38.8288 38.1682 40.4217 34.9824C42.0147 31.7965 44.2447 21.9204 44.2447 21.9204L16.5279 22.5576" fill="url(#paint1_linear)"/>
<path d="M15.2536 20.6461C15.2536 20.6461 8.56333 17.1417 9.2005 20.0089C9.37917 20.6461 10.7934 20.9647 13.3421 20.9647C15.8908 20.9647 18.1209 29.5664 19.0766 33.3894C19.0766 33.3894 20.0324 36.5753 22.8996 37.2125C25.7669 37.531 38.8288 38.1682 40.4217 34.9824C42.0147 31.7965 44.2447 21.9204 44.2447 21.9204L16.5279 22.5576" stroke="#282540"/>
<path d="M17.165 27.3299H42.9703" stroke="#282540"/>
<path d="M19.7139 32.7458L41.059 33.0644" stroke="#282540"/>
<path d="M22.5811 39.4426C22.5811 39.4426 32.7757 37.8497 36.9173 39.124" stroke="#282540"/>
<path fill-rule="evenodd" clip-rule="evenodd" d="M37.8732 43.8965C39.1048 43.8965 40.1032 42.898 40.1032 41.6664C40.1032 40.4347 39.1048 39.4363 37.8732 39.4363C36.6415 39.4363 35.6431 40.4347 35.6431 41.6664C35.6431 42.898 36.6415 43.8965 37.8732 43.8965Z" stroke="#282540"/>
<path fill-rule="evenodd" clip-rule="evenodd" d="M37.9908 44.2214C39.2225 44.2214 40.2209 43.223 40.2209 41.9913C40.2209 40.7597 39.2225 39.7612 37.9908 39.7612C36.7592 39.7612 35.7607 40.7597 35.7607 41.9913C35.7607 43.223 36.7592 44.2214 37.9908 44.2214Z" fill="#282540"/>
<path fill-rule="evenodd" clip-rule="evenodd" d="M22.6988 43.9028C23.9305 43.9028 24.9289 42.9044 24.9289 41.6727C24.9289 40.4411 23.9305 39.4426 22.6988 39.4426C21.4672 39.4426 20.4688 40.4411 20.4688 41.6727C20.4688 42.9044 21.4672 43.9028 22.6988 43.9028Z" fill="#282540"/>
<path fill-rule="evenodd" clip-rule="evenodd" d="M22.2623 43.8965C23.494 43.8965 24.4924 42.898 24.4924 41.6664C24.4924 40.4347 23.494 39.4363 22.2623 39.4363C21.0307 39.4363 20.0322 40.4347 20.0322 41.6664C20.0322 42.898 21.0307 43.8965 22.2623 43.8965Z" stroke="#282540"/>
<path d="M24.811 16.8231C24.811 16.8231 20.988 16.1859 22.8995 15.2302C24.811 14.2744 26.0853 16.1859 26.0853 16.1859C26.0853 16.1859 26.7225 12.3629 27.6782 13.3187C28.634 14.2744 27.3597 15.5488 27.3597 15.5488" stroke="#282540"/>
<path d="M27.3599 16.1794L30.8643 21.5954" stroke="#282540"/>
<path fill-rule="evenodd" clip-rule="evenodd" d="M28.5 32C31.5376 32 34 29.5376 34 26.5C34 23.4624 31.5376 21 28.5 21C25.4624 21 23 23.4624 23 26.5C23 29.5376 25.4624 32 28.5 32Z" fill="#FEFCF8"/>
<path d="M31 25L27.5625 28L26 26.6364" stroke="url(#paint2_linear)" stroke-linecap="round" stroke-linejoin="round"/>
</g>
<defs>
<linearGradient id="paint0_linear" x1="19.1202" y1="14.4264" x2="19.3029" y2="26.6096" gradientUnits="userSpaceOnUse">
<stop stop-color="#EBEBEB"/>
<stop offset="1" stop-color="#D2D2D2"/>
</linearGradient>
<linearGradient id="paint1_linear" x1="9.15771" y1="18.8811" x2="9.15771" y2="37.4872" gradientUnits="userSpaceOnUse">
<stop stop-color="#5C20D2"/>
<stop offset="1" stop-color="#39A4E9"/>
</linearGradient>
<linearGradient id="paint2_linear" x1="26" y1="25" x2="26" y2="28" gradientUnits="userSpaceOnUse">
<stop stop-color="#5C20D2"/>
<stop offset="1" stop-color="#39A4E9"/>
</linearGradient>
</defs>
</svg>
