<svg width="57" height="93" viewBox="0 0 57 93" fill="none" xmlns="http://www.w3.org/2000/svg">
<path fill-rule="evenodd" clip-rule="evenodd" d="M13.7422 88.9689C13.884 90.6361 15.3622 91.865 17.0272 91.7001L53.0209 88.1339C54.6673 87.9708 55.8708 86.5057 55.7112 84.859L48.3542 8.96574C48.1951 7.32455 46.7413 6.11938 45.099 6.2673L9.97306 9.43114C8.3287 9.57925 7.11306 11.0282 7.25298 12.6733L13.7422 88.9689Z" stroke="#D8D8D8"/>
<path fill-rule="evenodd" clip-rule="evenodd" d="M6.7422 82.9689C6.88399 84.6361 8.36217 85.865 10.0272 85.7001L46.0209 82.1339C47.6673 81.9708 48.8708 80.5057 48.7112 78.859L41.3542 2.96574C41.1951 1.32455 39.7413 0.11938 38.099 0.267298L2.97306 3.43114C1.3287 3.57925 0.11306 5.0282 0.25298 6.67328L6.7422 82.9689Z" fill="#282540"/>
<path fill-rule="evenodd" clip-rule="evenodd" d="M8.43071 73.7957C8.52406 74.9004 9.49818 75.7183 10.6024 75.6192L42.9779 72.7137C44.0897 72.614 44.9047 71.6233 44.7882 70.5131L38.209 7.79152C38.0936 6.69162 37.1075 5.89414 36.0078 6.01144L4.94552 9.32475C3.86419 9.44009 3.07318 10.3983 3.16476 11.4819L8.43071 73.7957Z" fill="#39A4E9"/>
<path fill-rule="evenodd" clip-rule="evenodd" d="M26.9987 81.605C28.5991 82.0338 30.2441 81.084 30.6729 79.4837C31.1017 77.8833 30.152 76.2382 28.5516 75.8094C26.9512 75.3806 25.3062 76.3303 24.8774 77.9307C24.4485 79.5311 25.3983 81.1761 26.9987 81.605Z" fill="#FEFCF8"/>
<path fill-rule="evenodd" clip-rule="evenodd" d="M11.2372 58.3634C11.1062 57.2666 11.8892 56.2713 12.986 56.1403L37.2967 53.2376C38.3934 53.1066 39.3887 53.8896 39.5197 54.9863L39.7651 57.041C39.8961 58.1378 39.1131 59.1331 38.0163 59.2641L13.7056 62.1668C12.6089 62.2977 11.6136 61.5148 11.4826 60.4181L11.2372 58.3634Z" stroke="#D8D8D8"/>
<path d="M40 11.5725L41.9633 11.1909C42.5054 11.0855 43.0303 11.4396 43.1357 11.9817L43.7081 14.9266C43.8135 15.4687 43.4594 15.9936 42.9173 16.099L40.954 16.4806L40 11.5725Z" fill="#282540"/>
<path d="M41.1736 18.5058C41.0777 17.9619 41.4409 17.4433 41.9848 17.3473L42.9696 17.1737C43.5135 17.0778 44.0322 17.441 44.1281 17.9849L44.649 20.9393C44.7449 21.4832 44.3818 22.0018 43.8379 22.0977L41.8682 22.445L41.1736 18.5058Z" fill="#282540"/>
</svg>
