<svg width="56" height="56" viewBox="0 0 56 56" fill="none" xmlns="http://www.w3.org/2000/svg">
<path fill-rule="evenodd" clip-rule="evenodd" d="M28 56C43.464 56 56 43.464 56 28C56 12.536 43.464 0 28 0C12.536 0 0 12.536 0 28C0 43.464 12.536 56 28 56Z" fill="black"/>
<mask id="mask0" mask-type="alpha" maskUnits="userSpaceOnUse" x="0" y="0" width="56" height="56">
<path fill-rule="evenodd" clip-rule="evenodd" d="M28 56C43.464 56 56 43.464 56 28C56 12.536 43.464 0 28 0C12.536 0 0 12.536 0 28C0 43.464 12.536 56 28 56Z" fill="white"/>
</mask>
<g mask="url(#mask0)">
<path d="M28.8365 14.7368C29.5813 14.8571 30.3774 14.7368 31.1478 14.8972C32.0039 15.0701 32.8249 15.3955 33.5746 15.8592C34.9229 16.7812 36.0127 18.0582 36.7333 19.5603C37.0818 20.1227 37.3257 20.7482 37.4523 21.4042C37.4523 21.952 37.157 22.433 37.2469 22.9942C37.494 23.9781 38.0846 24.8308 38.9033 25.3859C39.1858 25.6265 39.8021 25.9338 39.7893 26.3747C39.7764 26.8156 39.1986 27.0962 38.9932 27.3234C38.6274 27.5994 38.4122 28.0423 38.4154 28.5125C38.4154 28.753 38.6722 28.9134 38.6208 29.1539C38.5695 29.3944 38.2356 29.4612 38.2228 29.6215C38.2099 29.7819 38.5053 29.9823 38.4924 30.2095C38.4796 30.4366 38.1971 30.5034 38.0815 30.7172C37.8404 31.1417 37.9521 31.6876 38.3383 31.9732C38.7621 32.4007 38.9675 32.3874 38.685 33.0822C38.505 33.536 38.1365 33.8801 37.6835 34.0175C36.8338 34.1993 35.9553 34.1764 35.1154 33.9507C33.9855 33.8304 33.8314 34.4718 33.4719 35.4338C32.8587 37.2934 32.5252 39.2404 32.4832 41.206C31.931 41.4866 30.9809 40.6582 30.5314 40.3642C29.5042 39.6961 28.5155 39.028 27.4755 38.36C26.5235 37.9992 25.5931 37.5798 24.6891 37.104C24.2678 36.7358 24.0083 36.2053 23.9701 35.6342C23.7908 34.1626 23.4901 32.7097 23.0712 31.2917C22.8351 30.7719 22.4882 30.3149 22.0569 29.9556C21.5343 29.3835 21.1011 28.7297 20.7728 28.0182C19.4888 25.5062 18.59 22.5667 19.5787 19.8409C20.3596 18.2572 21.5519 16.9332 23.0199 16.0195C24.1323 15.3429 25.3913 14.9706 26.6794 14.9372C27.4604 14.7885 28.2609 14.7885 29.042 14.9372L28.8365 14.7368Z" fill="url(#paint0_linear)"/>
<path d="M33.7582 16.3658C30.4221 15.5429 28.9584 17.3776 28.8924 20.0755C28.7022 21.167 28.5964 22.2721 28.576 23.3806C28.6815 23.8797 29.2089 24.0416 29.3803 24.5407C29.5518 25.0398 29.5386 25.7548 29.7232 26.3079C30.3297 28.0615 32.1626 29.451 33.6791 30.5437C35.1955 31.6364 38.3997 31.7713 39.3887 33.2417C37.3844 34.105 34.5362 33.2417 32.3736 33.2417C29.1034 33.2417 29.0375 32.5941 27.9299 30.0176C27.6266 29.3296 25.6882 23.8392 24.2905 26.0785C23.8289 26.807 25.0289 27.9941 24.7652 28.8979C24.5014 29.8017 23.3674 30.6651 22.5499 31.3396C19.8335 27.1847 12.681 25.4259 16.3652 17.5014C19.2356 11.3274 22.2014 14.8342 24.7652 12.0065C28.8924 7.45434 33.2359 13.3042 34.438 16.027C34.6793 16.1885 33.7582 16.3658 33.7582 16.3658Z" fill="url(#paint1_linear)"/>
<path d="M37.925 31.1507C38.4525 31.2991 39.7447 32.3783 39.626 33.0258C39.4414 34.0106 37.714 33.8622 36.9888 33.8757C35.9799 33.8726 34.9719 33.8141 33.9692 33.7003C32.8702 33.6688 31.7835 33.4547 30.7517 33.0663C30.4891 32.9749 30.2532 32.8171 30.066 32.6076C30.4089 32.4727 31.1605 32.6886 31.3846 32.4592C31.6088 32.2299 31.2792 31.4745 31.622 31.1102C31.9648 30.746 33.7845 31.3261 34.3911 31.5419C34.9977 31.7578 38.0964 32.783 37.7009 31.0293C37.8383 31.0749 37.9675 31.1432 38.0833 31.2316L37.925 31.1507Z" fill="black"/>
<path d="M38.3866 27.3871C38.6948 27.5456 38.8698 27.8875 38.8217 28.2369C38.3218 28.1874 37.8184 28.1874 37.3185 28.2369C36.8111 28.3538 36.3509 28.6268 35.9999 29.0194C35.4834 29.8145 35.3431 30.8048 35.6175 31.7173C34.4043 31.5689 34.5098 28.9384 35.1032 28.2639C35.5349 27.8384 36.0904 27.5684 36.6856 27.495C37.0284 27.495 38.4657 27.495 38.4525 27.4141L38.3866 27.3871Z" fill="black"/>
<path d="M23.9384 33.8947C24.7029 35.8722 30.8863 38.4867 33.2336 38.3407C32.8983 40.1589 34.87 41.6321 35.6748 43.2777C36.4795 44.9234 41.2545 50.6833 41.7642 52.3024C42.958 56.1246 46.9014 98.169 48.9402 117.254C49.8254 125.562 50.8314 133.777 51.9983 142.018C52.4275 145.044 52.5214 148.07 52.9238 151.109C53.1518 152.821 55.1236 155.768 54.3456 157.467C53.0043 160.466 41.6972 160.864 38.4378 161.329C31.6375 162.311 25.1992 162.656 18.533 160.572C14.9651 159.497 11.7326 157.918 8.11111 156.975C4.48961 156.033 4.50302 155.502 4.42254 152.357C4.38522 145.232 5.05007 138.12 6.40766 131.122C9.3451 114.652 10.2304 106.942 14.7237 87.5385C16.1991 81.1814 18.144 76.4965 19.1097 70.0598C19.7267 65.9722 16.6954 51.6388 17.5404 48.1882C18.2781 45.2021 20.451 35.6333 23.9518 34.3725L23.9384 33.8947Z" fill="url(#paint2_linear)"/>
<path d="M6.40553 131.126C9.33983 114.651 10.2241 106.938 14.7127 87.5286C16.1865 81.1695 18.1293 76.4832 19.094 70.0445C19.7104 65.9556 16.6555 50.6088 17.513 47.1572C18.2499 44.1701 20.4339 35.6073 23.9443 34.3461V33.8947C24.6938 35.0335 25.7724 35.9218 27.0394 36.4437C26.3561 39.0988 25.378 41.6876 24.9358 44.4091C24.3006 48.9479 24.1614 53.5413 24.5205 58.1096C24.7392 64.2979 25.3568 70.466 26.3695 76.5761C25.6192 88.5243 25.7799 100.672 28.5803 112.235C30.3055 119.935 33.4144 127.265 37.7583 133.874C42.0325 140.1 48.0752 144.574 52.8318 150.27C52.8318 150.548 52.8318 150.827 52.9255 151.106C53.1533 152.819 55.1229 155.766 54.3458 157.465C53.0059 160.465 41.7109 160.864 38.455 161.328C31.6619 162.311 25.2306 162.656 18.5715 160.572C15.0074 159.496 11.7784 157.916 8.16075 156.974C4.54313 156.031 4.50293 155.514 4.42254 152.367C4.38526 145.24 5.0494 138.126 6.40553 131.126Z" fill="url(#paint3_linear)"/>
<path d="M23.5503 42.9785C24.0568 42.1124 24.703 41.3407 25.4615 40.6961C25.5406 40.7906 25.4615 40.6961 25.5406 40.6961L25.3428 40.8717C25.7089 40.5385 26.1724 40.339 26.6609 40.3044C29.7452 38.6703 33.739 41.2228 35.4921 43.8023C36.8786 45.7711 37.3598 48.2609 36.8101 50.6226C36.3356 52.6484 36.4147 54.8768 36.1247 56.9566C36.1536 58.0809 36.0919 59.2056 35.9402 60.3195C35.6548 62.1078 35.4699 63.9115 35.3866 65.7216C35.3866 66.8966 34.8198 68.6658 35.1625 69.7733C35.481 69.6337 35.8512 69.7544 36.0325 70.0569C36.5465 70.6781 36.0325 70.6646 36.0325 71.4074C36.0325 72.1502 36.5465 71.9071 37.0474 72.2313C37.8119 72.7445 37.2978 72.6499 37.3637 73.3792C37.4296 74.1085 43.8619 81.9822 44.7186 84.5752C45.1323 85.4988 45.4546 86.4625 45.6808 87.4519C45.6808 88.1136 45.7467 87.7895 45.2986 88.2352C44.8504 88.6809 44.2836 89.0995 43.8091 89.4912C43.0051 90.1395 42.1484 90.7067 41.318 91.3684C40.448 90.9903 39.9999 89.3426 39.13 88.6674C37.4486 87.2632 35.8632 85.7425 34.3849 84.116C33.0668 82.6169 31.7487 81.0638 30.4306 79.5512C29.414 78.5515 28.5279 77.4211 27.7945 76.1883C27.4764 74.9878 27.2473 73.7643 27.1091 72.5284C26.742 71.3264 26.3018 70.1491 25.791 69.0035C24.357 65.2077 23.396 61.2419 22.9308 57.1997C22.7067 55.2009 22.7594 53.1481 22.4167 51.1763C22.0771 49.5245 22.0147 47.8255 22.2322 46.1523C22.4624 45.0155 22.9104 43.9367 23.5503 42.9785Z" fill="url(#paint4_linear)"/>
<path d="M22.2395 46.6166C22.4698 45.4905 22.9182 44.4219 23.5586 43.4726C23.7037 43.2318 23.8752 42.9776 24.0599 42.7368C25.1152 58.9919 29.3365 76.1836 44.8761 85.0536C45.2419 85.8287 45.5122 86.6465 45.6808 87.4886C45.6808 88.1441 45.7468 87.823 45.2983 88.2645C44.8497 88.706 44.2825 89.1208 43.8076 89.5088C43.0029 90.1509 42.1455 90.7128 41.3144 91.3684C40.4438 90.9938 39.9953 89.3616 39.1246 88.6927C37.4419 87.3016 35.8552 85.7952 34.3757 84.184C33.0565 82.699 31.7374 81.1604 30.4182 79.662C29.4007 78.6717 28.5139 77.552 27.7799 76.3307C27.4616 75.1414 27.2323 73.9294 27.0939 72.7051C26.7266 71.5144 26.286 70.3481 25.7748 69.2133C24.3397 65.4532 23.3779 61.5245 22.9122 57.5203C22.688 55.5402 22.7407 53.5067 22.3978 51.5534C22.0711 49.9286 22.0176 48.2595 22.2395 46.6166Z" fill="url(#paint5_linear)"/>
</g>
<defs>
<linearGradient id="paint0_linear" x1="11.9409" y1="11.8494" x2="25.656" y2="60.0026" gradientUnits="userSpaceOnUse">
<stop stop-color="#EAEAEA"/>
<stop offset="1" stop-color="#D0D0D0"/>
</linearGradient>
<linearGradient id="paint1_linear" x1="15.3328" y1="10.3272" x2="15.3328" y2="33.6254" gradientUnits="userSpaceOnUse">
<stop stop-color="#242425"/>
<stop offset="1" stop-color="#04121B"/>
</linearGradient>
<linearGradient id="paint2_linear" x1="1.73762" y1="37.388" x2="19.325" y2="163.283" gradientUnits="userSpaceOnUse">
<stop stop-color="#CCCCCC"/>
<stop offset="1" stop-color="#D9D7D7"/>
</linearGradient>
<linearGradient id="paint3_linear" x1="-1.44013" y1="40.1916" x2="13.4587" y2="144.982" gradientUnits="userSpaceOnUse">
<stop stop-color="#D4D4D4"/>
<stop offset="1" stop-color="#F4F4F4"/>
</linearGradient>
<linearGradient id="paint4_linear" x1="7.1568" y1="49.074" x2="47.4492" y2="87.1359" gradientUnits="userSpaceOnUse">
<stop stop-color="#FAFAFA"/>
<stop offset="1" stop-color="#F4F4F4"/>
</linearGradient>
<linearGradient id="paint5_linear" x1="-13.2769" y1="62.6674" x2="39.2905" y2="85.6917" gradientUnits="userSpaceOnUse">
<stop stop-color="#F6F6F6"/>
<stop offset="1" stop-color="#EAEAEA"/>
</linearGradient>
</defs>
</svg>
