<svg width="1440" height="1137" viewBox="0 0 1440 1137" fill="none" xmlns="http://www.w3.org/2000/svg">
<path fill-rule="evenodd" clip-rule="evenodd" d="M159.178 -144.461C407.384 107.654 -497.2 -162.631 -208.458 256.802C23.276 593.425 708.007 971.609 1198.96 787.885C1371.3 723.391 1594.57 469.007 1582.53 380.417C1550.32 143.283 1415.4 -176.388 1264.6 -403.599C1095.8 -657.933 906.979 -663.214 655.866 -672.28C180.419 -689.445 -89.0286 -396.577 159.178 -144.461Z" fill="#F7F8FE"/>
<g filter="url(#filter0_d)">
<path fill-rule="evenodd" clip-rule="evenodd" d="M1316.18 68.5386C1564.38 320.654 659.8 50.3686 948.542 469.802C1180.28 806.425 1865.01 1184.61 2355.96 1000.89C2528.3 936.391 2751.57 682.007 2739.53 593.417C2707.32 356.283 2572.4 36.6124 2421.6 -190.599C2252.8 -444.933 2063.98 -450.214 1812.87 -459.28C1337.42 -476.445 1067.97 -183.577 1316.18 68.5386Z" fill="#F7F8FE"/>
</g>
<defs>
<filter id="filter0_d" x="828" y="-498" width="1975" height="1635" filterUnits="userSpaceOnUse" color-interpolation-filters="sRGB">
<feFlood flood-opacity="0" result="BackgroundImageFix"/>
<feColorMatrix in="SourceAlpha" type="matrix" values="0 0 0 0 0 0 0 0 0 0 0 0 0 0 0 0 0 0 127 0"/>
<feOffset dy="25"/>
<feGaussianBlur stdDeviation="31.5"/>
<feColorMatrix type="matrix" values="0 0 0 0 0 0 0 0 0 0 0 0 0 0 0 0 0 0 0.102109 0"/>
<feBlend mode="normal" in2="BackgroundImageFix" result="effect1_dropShadow"/>
<feBlend mode="normal" in="SourceGraphic" in2="effect1_dropShadow" result="shape"/>
</filter>
</defs>
</svg>
