<svg width="460" height="244" viewBox="0 0 460 244" fill="none" xmlns="http://www.w3.org/2000/svg">
<rect width="460" height="244" rx="20" fill="#5C20D2"/>
<mask id="mask0" mask-type="alpha" maskUnits="userSpaceOnUse" x="0" y="0" width="460" height="244">
<rect width="460" height="244" rx="20" fill="white"/>
</mask>
<g mask="url(#mask0)">
<path fill-rule="evenodd" clip-rule="evenodd" d="M275.495 107.031C151.296 119.716 42.2628 159.314 -3.99717 270.902C-21.2321 312.476 64.1889 281.04 166.132 262.749C204.477 255.869 250.91 237.849 305.298 244C330.091 246.804 344.681 242.814 376.248 250.052C431.626 262.749 506.544 221.106 506.544 221.106C506.544 221.106 399.694 94.3458 275.495 107.031Z" fill="#5C20D2" fill-opacity="0.0998143"/>
<path fill-rule="evenodd" clip-rule="evenodd" d="M121.689 135.501C-21.6321 147.109 -115.516 193.742 -161.776 305.331C-179.011 346.905 -93.5899 315.468 8.35324 297.177C46.6978 290.297 93.1314 272.278 147.519 278.429C172.313 281.233 186.902 277.242 218.469 284.48C273.847 297.177 377.257 278.429 377.257 278.429C377.257 278.429 265.011 123.892 121.689 135.501Z" fill="#4715A8"/>
</g>
</svg>
