<?xml version="1.0" encoding="UTF-8"?>
<svg width="154px" height="154px" viewBox="0 0 154 154" version="1.1" xmlns="http://www.w3.org/2000/svg" xmlns:xlink="http://www.w3.org/1999/xlink">
    <!-- Generator: Sketch 55.2 (78181) - https://sketchapp.com -->
    <title>Img/add-product/active Copy 3</title>
    <desc>Created with Sketch.</desc>
    <defs>
        <circle id="path-1" cx="75" cy="75" r="75"></circle>
        <circle id="path-3" cx="75" cy="75" r="72.2222222"></circle>
        <linearGradient x1="38.8393126%" y1="35.1293745%" x2="50%" y2="59.8946183%" id="linearGradient-5">
            <stop stop-color="#EAEAEA" offset="0%"></stop>
            <stop stop-color="#A7A7A7" offset="100%"></stop>
        </linearGradient>
        <linearGradient x1="-2.83672216%" y1="49.9769538%" x2="98.4812236%" y2="49.9972138%" id="linearGradient-6">
            <stop stop-color="#EAEAEA" offset="0%"></stop>
            <stop stop-color="#A7A7A7" offset="100%"></stop>
        </linearGradient>
        <linearGradient x1="29.6529438%" y1="-153.930617%" x2="51.1973031%" y2="109.088217%" id="linearGradient-7">
            <stop stop-color="#EBEBEB" offset="0%"></stop>
            <stop stop-color="#D2D2D2" offset="100%"></stop>
        </linearGradient>
        <linearGradient x1="29.6316513%" y1="-153.930617%" x2="51.198556%" y2="109.088217%" id="linearGradient-8">
            <stop stop-color="#EBEBEB" offset="0%"></stop>
            <stop stop-color="#D2D2D2" offset="100%"></stop>
        </linearGradient>
        <linearGradient x1="38.8393126%" y1="13.8916245%" x2="50%" y2="74.0257946%" id="linearGradient-9">
            <stop stop-color="#EAEAEA" offset="0%"></stop>
            <stop stop-color="#A7A7A7" offset="100%"></stop>
        </linearGradient>
        <linearGradient x1="-34.7081591%" y1="37.9148926%" x2="90.1632778%" y2="74.6143447%" id="linearGradient-10">
            <stop stop-color="#5C20D2" offset="0%"></stop>
            <stop stop-color="#39A4E9" offset="100%"></stop>
        </linearGradient>
        <linearGradient x1="38.8393126%" y1="24.3255376%" x2="50%" y2="67.0832764%" id="linearGradient-11">
            <stop stop-color="#EAEAEA" offset="0%"></stop>
            <stop stop-color="#A7A7A7" offset="100%"></stop>
        </linearGradient>
        <linearGradient x1="50%" y1="0%" x2="51.9117135%" y2="109.088217%" id="linearGradient-12">
            <stop stop-color="#EBEBEB" offset="0%"></stop>
            <stop stop-color="#D2D2D2" offset="100%"></stop>
        </linearGradient>
        <linearGradient x1="34.9807142%" y1="32.8849251%" x2="84.5393571%" y2="100%" id="linearGradient-13">
            <stop stop-color="#000000" offset="0%"></stop>
            <stop stop-color="#280808" offset="100%"></stop>
        </linearGradient>
        <linearGradient x1="46.3831114%" y1="-43.9870307%" x2="50%" y2="100%" id="linearGradient-14">
            <stop stop-color="#5C20D2" offset="0%"></stop>
            <stop stop-color="#39A4E9" offset="100%"></stop>
        </linearGradient>
        <linearGradient x1="50%" y1="0%" x2="50%" y2="100%" id="linearGradient-15">
            <stop stop-color="#5C20D2" offset="0%"></stop>
            <stop stop-color="#39A4E9" offset="100%"></stop>
        </linearGradient>
        <linearGradient x1="43.6299129%" y1="9.91561012%" x2="67.0939185%" y2="142.774273%" id="linearGradient-16">
            <stop stop-color="#5C20D2" offset="0%"></stop>
            <stop stop-color="#39A4E9" offset="100%"></stop>
        </linearGradient>
        <linearGradient x1="26.0516494%" y1="22.083459%" x2="48.0703988%" y2="100%" id="linearGradient-17">
            <stop stop-color="#5C20D2" offset="0%"></stop>
            <stop stop-color="#39A4E9" offset="100%"></stop>
        </linearGradient>
        <linearGradient x1="50%" y1="0%" x2="50%" y2="169.881523%" id="linearGradient-18">
            <stop stop-color="#EBEBEB" offset="0%"></stop>
            <stop stop-color="#D2D2D2" offset="100%"></stop>
        </linearGradient>
        <linearGradient x1="45.4507404%" y1="44.3804708%" x2="52.9422022%" y2="54.6557044%" id="linearGradient-19">
            <stop stop-color="#EBEBEB" offset="0%"></stop>
            <stop stop-color="#D2D2D2" offset="100%"></stop>
        </linearGradient>
        <linearGradient x1="52.9422022%" y1="-77.7706334%" x2="52.9422022%" y2="109.088217%" id="linearGradient-20">
            <stop stop-color="#EBEBEB" offset="0%"></stop>
            <stop stop-color="#D2D2D2" offset="100%"></stop>
        </linearGradient>
        <linearGradient x1="52.9422022%" y1="-77.7706334%" x2="52.9422022%" y2="109.088217%" id="linearGradient-21">
            <stop stop-color="#EBEBEB" offset="0%"></stop>
            <stop stop-color="#D2D2D2" offset="100%"></stop>
        </linearGradient>
    </defs>
    <g id="landing-page" stroke="none" stroke-width="1" fill="none" fill-rule="evenodd">
        <g id="HomeV2" transform="translate(-790.000000, -2423.000000)">
            <g id="Img/fund" transform="translate(792.000000, 2425.000000)">
                <g id="Group-4">
                    <g id="image/border/3">
                        <mask id="mask-2" fill="white">
                            <use xlink:href="#path-1"></use>
                        </mask>
                        <use id="Oval" stroke="#5C20D2" stroke-width="3" fill="#FFFFFF" fill-rule="evenodd" xlink:href="#path-1"></use>
                    </g>
                    <mask id="mask-4" fill="white">
                        <use xlink:href="#path-3"></use>
                    </mask>
                    <g id="Oval"></g>
                    <g id="twoPeopleSitingOnTbl" mask="url(#mask-4)">
                        <g transform="translate(0.000000, 19.444444)">
                            <polygon id="Path" fill="url(#linearGradient-5)" fill-rule="nonzero" points="163.946869 94.669513 64.8102467 94.669513 61.0531309 98.1846932 84.5208729 98.1846932 85.9013283 99.9493991 111.389943 99.6078431 110.066414 131.842188 101.812144 131.842188 101.812144 134.845035 91.6650854 134.845035 87.8510436 141.391524 139.283681 141.391524 136.010436 134.845035 125.322581 134.845035 125.322581 131.842188 117.068311 131.842188 115.388994 99.7216951 140.891841 99.9493991 142.613852 98.1846932 166.081594 98.1846932"></polygon>
                            <rect id="Rectangle" fill="url(#linearGradient-6)" fill-rule="nonzero" x="64.8102467" y="94.299494" width="99.1366224" height="1"></rect>
                            <path d="M117.05408,131.870651 C117.05408,129.778621 117.537951,127.686591 117.609108,125.580329 C117.698629,122.56559 117.95519,119.55813 118.377609,116.57179 C119.074953,111.790006 119.644213,106.111638 123.344402,102.567995 C124.512403,101.353187 125.987881,100.477737 127.613852,100.034788 C128.795173,99.795203 130.023053,100.051025 131.010405,100.74244 C131.997757,101.433855 132.658017,102.500247 132.836812,103.692283 C133.135674,105.955092 130.801708,108.801392 128.382353,107.577483 C127.780944,107.376548 127.385018,106.801969 127.411416,106.168431 C127.437813,105.534893 127.880165,104.995242 128.496205,104.845035 C127.158444,104.13346 126.176471,106.026249 126.176471,107.122075 C126.176471,109.584124 129.321632,110.59456 131.356736,109.968374 C135.213472,108.886781 137.234345,103.421885 134.203036,100.532891 C131.651034,98.5138179 128.229841,97.9741974 125.180266,99.1097407 C120.910816,100.61828 119.103416,105.599304 117.566414,109.413346 C115.676496,114.032355 114.565603,118.932789 114.278937,123.915244 C114.150854,126.519608 114.691651,130.547122 116.712524,132.084124 L117.05408,131.870651 Z" id="Path" fill="url(#linearGradient-7)" fill-rule="nonzero"></path>
                            <path d="M109.226755,132.468374 C109.226755,130.376344 108.742884,128.284314 108.671727,126.178052 C108.580704,123.163399 108.324151,120.156022 107.903226,117.169513 C107.205882,112.387729 106.650854,106.709361 102.936433,103.165718 C101.767987,101.951471 100.292674,101.076119 98.6669829,100.632511 C97.4856624,100.392926 96.2577824,100.648748 95.2704304,101.340163 C94.2830784,102.031578 93.6228179,103.09797 93.4440228,104.290006 C93.1451613,106.552815 95.4791271,109.384883 97.898482,108.175206 C98.4998906,107.974271 98.8958166,107.399692 98.8694192,106.766154 C98.8430217,106.132616 98.4006695,105.592965 97.78463,105.442758 C99.1223909,104.731183 100.104364,106.623972 100.104364,107.719798 C100.104364,110.181847 96.959203,111.192283 94.9240987,110.566097 C91.0531309,109.484503 89.0464896,104.019608 92.0777989,101.130614 C94.628854,99.1219613 98.0403235,98.5830246 101.086338,99.7074636 C105.355787,101.230234 107.163188,106.197027 108.70019,110.011069 C110.594485,114.629397 111.710175,119.529774 112.001898,124.512966 C112.144213,127.117331 111.589184,131.130614 109.568311,132.681847 L109.226755,132.468374 Z" id="Path" fill="url(#linearGradient-8)" fill-rule="nonzero"></path>
                            <polygon id="Path" fill="#5C20D2" fill-rule="nonzero" points="128.197343 51.1495889 125.50759 50.5376344 116.48482 91.2539532 74.459203 91.2539532 74.459203 94.299494 119.117647 94.299494 119.117647 92.0936116"></polygon>
                            <path d="M79.8387097,79.3421885 C81.7526913,78.9493021 83.7068102,78.786857 85.6593928,78.8583175 C86.55451,78.7859577 87.4227002,79.1850017 87.9506641,79.9114485 L88.9326376,81.1638204 C91.6081594,82.6723593 95.1660342,83.7254902 96.0483871,86.85642 L96.0483871,87.1552815 C94.5256167,86.457938 93.6432638,84.9209361 92.3055028,84.1808982 C91.8963083,83.9724068 91.4672104,83.8055354 91.0246679,83.6827957 C91.0332077,83.7298497 91.0332077,83.7780567 91.0246679,83.8251107 C91.4055612,84.4904924 91.743076,85.1797832 92.0351044,85.8886781 C92.4905123,86.970272 93.4582543,88.7349779 93.0455408,89.9161923 C91.8358634,88.8772929 91.1385199,87.0698925 90.056926,85.9882985 C90.8350416,87.3272874 91.4467774,88.7562641 91.8785579,90.2435168 C90.9819734,89.3753953 90.2134725,88.2511069 89.316888,87.397217 C88.7149057,86.9673348 88.0822884,86.5820566 87.4240987,86.2444655 C86.4848197,85.6609741 85.2751423,85.0917141 85.2751423,83.7681847 C84.0085389,84.3232132 80.7352941,84.3089817 79.6821632,85.1913346 C79.9952562,83.4550917 79.2409867,81.0784314 79.8387097,79.3421885 Z" id="Path" fill="url(#linearGradient-9)" fill-rule="nonzero"></path>
                            <path d="M57.0825427,71.3867805 C58.5056926,71.543327 61.1385199,74.6600253 62.9316888,75.4996837 C64.9465742,76.4722755 67.0806224,77.1756502 69.2789374,77.5917141 C73.0282863,78.3791212 76.836329,78.8551266 80.6641366,79.014864 C81.0199241,81.2065149 79.8671727,83.2843137 79.8814042,85.5328906 C74.43074,87.14105 68.4962049,85.5328906 62.9316888,84.7786211 C59.3595825,84.2947502 56.2855787,83.7539532 55.9155598,79.5698925 C55.9214915,76.8198367 56.3143365,74.0842937 57.0825427,71.4437065 L57.0825427,71.3867805 Z" id="Path" fill="url(#linearGradient-10)" fill-rule="nonzero"></path>
                            <path d="M59.6442125,68.2558507 C61.4435291,67.501133 63.3256095,66.9613485 65.2514231,66.6476913 C66.1157284,66.4041324 67.0444613,66.630916 67.699241,67.2454143 C68.097723,67.6012018 68.4962049,67.9427577 68.8946869,68.2843137 C71.7409867,69.2662872 75.4981025,69.6220746 77.0066414,72.4541429 L77.0066414,72.7530044 C75.370019,72.3545225 74.1603416,71.0167615 72.7371917,70.5613536 C72.2948406,70.4396821 71.8422937,70.3587001 71.3851992,70.3194181 C71.3931613,70.3665223 71.3931613,70.4146288 71.3851992,70.4617331 C71.8999997,71.0412598 72.375445,71.6545842 72.8083491,72.2975965 C73.4629981,73.2653384 74.7865275,74.8023403 74.5588235,76.0547122 C73.1356736,75.2719798 72.1537002,73.6638204 70.8728653,72.7530044 C71.9131177,73.9611854 72.7976378,75.2951373 73.5056926,76.7235927 C72.4525617,76.0404807 71.4848197,75.0869703 70.4601518,74.4607843 C69.7875013,74.1536077 69.0929972,73.8967363 68.3823529,73.6922834 C67.3434535,73.2938014 66.0626186,72.9664769 65.8064516,71.6714105 C64.6679317,72.4541429 61.4516129,73.0945604 60.5834915,74.1619228 C60.56926,72.254902 59.373814,70.0774826 59.6442125,68.2558507 Z" id="Path" fill="url(#linearGradient-11)" fill-rule="nonzero"></path>
                            <path d="M39.1935484,11.884883 C40.0759013,12.0129665 41.0151803,11.884883 41.9259962,12.0698925 C42.9306207,12.2691135 43.8934489,12.6398024 44.772296,13.1657179 C46.3712668,14.2336397 47.6579942,15.7069917 48.5009488,17.4351676 C48.9110609,18.0692963 49.2005448,18.773707 49.3548387,19.5129665 C49.3548387,20.1391524 49.0132827,20.6941809 49.1129032,21.3203669 C49.405739,22.4396167 50.1061846,23.4090741 51.0768501,24.0385832 C51.4184061,24.3089817 52.1442125,24.6647691 52.1157495,25.1486401 C52.0872865,25.6325111 51.4184061,25.974067 51.1622391,26.230234 C50.729014,26.5436705 50.4744343,27.0475262 50.4791271,27.5822264 C50.4791271,27.8526249 50.7779886,28.0376344 50.7210626,28.3222644 C50.6641366,28.6068944 50.2656546,28.6638204 50.2514231,28.8488299 C50.2371917,29.0338393 50.5929791,29.2757748 50.5645161,29.5177103 C50.5360531,29.7596458 50.2087287,29.8592663 50.0806452,30.1012018 C49.7917195,30.5805689 49.9221575,31.2017022 50.3795066,31.5243517 C50.8776091,32.0082226 51.1195446,31.9939911 50.7779886,32.7909551 C50.56529,33.3066196 50.1312855,33.6987924 49.5967742,33.8583175 C48.5792436,34.0674235 47.5271239,34.038198 46.5227704,33.7729285 C45.199241,33.6306135 44.9573055,34.3706515 44.573055,35.4664769 C43.8477578,37.5800405 43.4540999,39.7931657 43.4060721,42.027198 C42.7514231,42.3260595 41.6271347,41.401012 41.1148008,41.0736875 C39.9051233,40.3051866 38.7381404,39.4797596 37.5,38.8108792 C36.3768921,38.4021841 35.279123,37.9269594 34.2125237,37.3877293 C33.6148008,36.9465528 33.1736243,37.5158128 33.0313093,36.8469323 C32.6897533,35.1960784 32.9174573,32.4067046 32.2912713,30.7985452 C32.0021336,30.2421302 31.5939816,29.7562349 31.0958254,29.3753953 C30.5118039,28.7221903 30.0318011,27.9829859 29.6726755,27.1837445 C28.2495256,24.3374447 27.0825427,20.9930424 28.2495256,17.8905756 C29.1430356,16.0340933 30.5508041,14.4731991 32.3055028,13.3934219 C33.6033619,12.6316582 35.0709104,12.2060691 36.5749526,12.1552815 C37.5157162,11.9810065 38.4804887,11.9810065 39.4212524,12.1552815 L39.1935484,11.884883 Z" id="Path" fill="url(#linearGradient-12)" fill-rule="nonzero"></path>
                            <path d="M45.3273245,14.3042378 C41.4848197,13.3791904 39.8055028,15.4427577 39.7343454,18.474067 C39.5203035,19.7012019 39.401354,20.9430349 39.3785579,22.1884883 C39.5066414,22.7435168 40.1043643,22.9285262 40.3036053,23.4835547 C40.5028463,24.0385832 40.4743833,24.9067046 40.7020873,25.4759646 C41.4136622,27.4399114 43.5483871,29.0053763 45.3273245,30.2292853 C47.1062619,31.4531942 50.7637571,31.6524352 51.902277,33.2463631 C49.5967742,34.2283365 46.3235294,33.2463631 43.8330171,33.2463631 C40.0616698,33.2463631 40.0047438,32.5205566 38.7239089,29.6173308 C38.3823529,28.8345984 36.1337761,22.6723593 34.5398482,25.1913346 C34.0132827,26.00253 35.3937381,27.3545225 35.0806452,28.3649589 C34.7675522,29.3753953 33.4724858,30.3431373 32.5332068,31.1116382 C29.902293,29.4908074 26.3540299,26.2301718 25.8294086,22.1884883 C25.4005112,18.8842618 25.8519531,15.3334136 27.7723726,12.849671 C28.2324889,12.2539415 30.0471576,12.9628111 29.7384853,10.5487502 C28.5365619,1.14876085 40.7020873,-0.0779175804 46.3555596,5.38241082 C52.009032,10.8427392 45.1598003,12.2579156 45.9535104,13.9769133 C46.1100569,14.3327008 46.3235294,14.5746363 45.3557875,14.3042378 L45.3273245,14.3042378 Z" id="Path" fill="url(#linearGradient-13)" fill-rule="nonzero"></path>
                            <path d="M50.1091082,30.9266287 C50.7068311,31.0974067 52.2011385,32.3497786 52.073055,33.0328906 C51.8595825,34.157179 49.8814042,33.986401 48.9705882,34.0006325 C47.8245588,33.996418 46.6796057,33.9299062 45.540797,33.8013915 C44.2769981,33.7662019 43.0273153,33.5258783 41.8406072,33.0898166 C41.5389602,32.9913045 41.2688573,32.8145099 41.0578748,32.5774826 C41.4421252,32.4351676 42.3102467,32.6771031 42.6091082,32.4209361 C42.9079696,32.1647691 42.4952562,31.3108792 42.8795066,30.9123972 C43.4629981,30.3004428 45.3557875,31.1543327 46.0531309,31.3962682 C46.7504744,31.6382037 50.3225806,32.8194181 49.8671727,30.8270082 C50.0188423,30.8838916 50.1623847,30.9604475 50.2941176,31.0547122 L50.1091082,30.9266287 Z" id="Path" fill="#280808" fill-rule="nonzero"></path>
                            <path d="M50.6356736,26.685642 C50.9995369,26.8616482 51.2069959,27.2535152 51.1480076,27.6533839 C50.570636,27.5969445 49.9891363,27.5969445 49.4117647,27.6533839 C48.823707,27.779248 48.2906253,28.0881365 47.8889943,28.5357369 C47.2853591,29.4359148 47.1230695,30.5614713 47.4478178,31.5955092 C46.0246679,31.4247312 46.1812144,28.4788109 46.8500949,27.7103099 C47.3460836,27.229589 47.9859449,26.9246551 48.6717268,26.8421885 C49.0702087,26.8421885 50.7210626,26.8421885 50.7068311,26.742568 L50.6356736,26.685642 Z" id="Path" fill="#280808" fill-rule="nonzero"></path>
                            <path d="M50.3368121,122.093612 C45.597723,121.766287 39.4212524,120.912397 33.2590133,120.869703 L32.9886148,120.741619 C23.6242884,116.130614 22.272296,106.154333 25.0759013,97.3592663 C26.0294118,91.0831752 26.9117647,81.2349779 27.4952562,77.3355471 C28.2068311,72.5822264 24.1935484,58.0518659 25.1612903,54.0528147 C26.0009488,50.5945604 29.288425,39.1382037 33.0170778,35.9503479 L33.0170778,35.4237824 C33.8851992,37.7150538 40.9440228,40.7463631 43.6053131,40.5755851 C43.2210626,42.6960784 45.4696395,44.4038583 46.4516129,46.2681847 C47.4335863,48.1325111 52.813093,54.8070841 53.3823529,56.7283365 C55.4972366,65.5646065 56.9904559,74.5381883 57.8510436,83.5831752 C58.9050806,87.1289033 61.3272136,90.1092022 64.5825427,91.8659077 C71.6982922,96.0215054 80.0521822,96.9323213 87.6091082,99.9209361 C96.7457306,103.535737 102.05408,118.962682 86.4990512,130.04902 C68.3111954,129.778621 68.4819734,123.360215 50.3368121,122.093612 Z" id="Path" fill="url(#linearGradient-14)" fill-rule="nonzero"></path>
                            <path d="M28.075253,71.3867805 C29.2447539,89.9462575 34.259635,101.781921 43.1198963,106.893769 C56.4102882,114.561543 72.1759288,97.353084 78.7845834,98.5245717 C87.6563582,100.097233 90.1014728,112.291312 90.6081441,115.304348 C90.8720312,116.873612 88.7059724,126.746114 86.3891852,127.777778 C84.5101938,128.614492 82.2342332,123.221596 80.7323389,122.360731 C77.0066414,120.225211 71.1923337,120.912397 60.0788621,120.912397 C55.9155598,120.912397 29.6952782,119.595374 23.7786078,114.039756 C22.055223,112.421536 18.9720614,125.620121 20.338957,119.578054 C20.5102941,118.820696 24.1244341,103.739922 25.0759013,96.1306969 C26.2189118,86.9896309 28.8403064,75.0092945 26.2189118,65.4600151 C25.439202,62.6196696 26.0579824,64.5952581 28.075253,71.3867805 Z" id="Path-2" fill="url(#linearGradient-15)" fill-rule="evenodd"></path>
                            <path d="M56.4848197,76.6239722 C57.4810247,80.3526249 58.4914611,91.0831752 53.7381404,92.1220746 C48.9848197,93.1609741 44.9857685,87.2691335 42.3529412,84.2235927 C38.7273348,80.0435262 36.0346476,75.1384691 34.4544592,69.8355471 C33.3845991,66.2607208 32.5526086,62.6189795 31.9639469,58.9342188 C31.5370019,56.2160025 30.626186,51.6334598 32.3055028,49.157179 C36.8595825,42.4256799 50.2229602,62.6628716 52.2296015,66.4342188 C54.2362429,70.2055661 55.1612903,74.1334598 56.6698292,77.4636306 L56.4848197,76.6239722 Z" id="Path" fill="url(#linearGradient-16)" fill-rule="nonzero" opacity="0.596447173"></path>
                            <path d="M41.2713472,49.7975965 C42.1537002,51.4626818 41.4990512,57.9949399 41.5417457,60.7131562 C41.6271347,64.9826059 41.1859583,69.7359266 42.3671727,73.7776724 C42.6203378,73.3152693 43.000595,72.9350121 43.4629981,72.6818469 C44.6157495,73.1230234 44.1318786,73.4788109 44.459203,74.4323213 C44.725936,73.9293027 45.1373988,73.5178399 45.6404175,73.2511069 C46.1476262,72.9377972 46.7148297,72.7341857 47.3055028,72.6533839 C48.3446109,72.433421 49.3464426,72.0643251 50.2798861,71.5575585 C52.357685,70.8744466 55.9724858,68.9389627 59.316888,68.2558507 C60.0711575,68.7824162 61.6223909,73.9484503 61.6223909,73.9484503 C61.6223909,73.9484503 58.5768501,76.1401012 57.3529412,76.9655281 C52.3584885,80.3283237 46.7478332,82.6693212 40.8444023,83.8535737 C38.9800759,84.1524352 35.7068311,84.9636306 33.9421252,84.1097407 C31.8074004,83.0708412 30.7258065,79.014864 30.0711575,76.9939911 C27.9917568,69.7638888 27.5301606,62.1645575 28.7191651,54.7359266 C29.2741935,51.0072739 30.2703985,45.5566097 34.7675522,44.7738773 C36.7172676,44.4465528 43.0075901,47.6201771 40.9582543,50.1818469 L41.2713472,49.7975965 Z" id="Path" fill="url(#linearGradient-17)" fill-rule="nonzero"></path>
                            <path d="M39.2789374,30.4000633 C39.1650854,31.3108792 40.5740038,32.4209361 41.2428843,32.8621126 C42.2817837,33.5736875 43.4629981,34.07179 44.5588235,34.6837445 C45.7411056,35.428543 46.9949869,36.0530999 48.3017078,36.5480708 C48.8282732,36.7188488 51.4611006,37.5015813 51.4184061,36.5480708 C52.3719165,36.4057559 52.9981025,36.7188488 53.6385199,35.7368754 C54.0813768,35.0877949 54.0286814,34.2212486 53.5104364,33.6306135 C52.585389,32.3782416 51.2191651,32.2074636 50.1802657,31.2539532 C48.8709677,33.2321316 45.426945,32.3355471 43.4914611,31.7947502 C42.7087287,31.5670462 41.9544592,31.4104997 41.1717268,31.1543327 C40.5214832,30.881769 39.889272,30.5680401 39.2789374,30.2150538 L39.2789374,30.4000633 Z" id="Path" fill="#280808" fill-rule="nonzero"></path>
                            <path d="M86.3851992,132.781467 C86.4653997,135.813355 85.3325559,138.751926 83.2379342,140.945401 C81.1433124,143.138876 78.2600663,144.40593 75.227704,144.465528 L12.6091082,144.465528 C9.57176594,144.413425 6.68120116,143.149654 4.58044182,140.955349 C2.47968249,138.761045 1.34296109,135.818198 1.42314991,132.781467 L1.42314991,132.781467 C1.3468024,129.752011 2.48136202,126.817118 4.57557043,124.626747 C6.66977884,122.436376 9.55081407,121.171285 12.5806452,121.111638 L75.199241,121.111638 C78.2290721,121.171285 81.1101073,122.436376 83.2043157,124.626747 C85.2985241,126.817118 86.4330838,129.752011 86.3567362,132.781467 L86.3851992,132.781467 Z" id="Path" fill="url(#linearGradient-18)" fill-rule="nonzero"></path>
                            <path d="M75.28463,120.912397 L71.7125237,120.912397 C64.7533207,128.241619 54.3358634,131.358318 45.6973435,134.247312 C31.8643264,138.872549 17.2343454,141.704617 3.13092979,138.68754 C5.06436792,142.130604 8.68903319,144.279358 12.6375712,144.323213 L75.256167,144.323213 C81.546577,144.103576 86.5325133,138.940512 86.5325133,132.646268 C86.5325133,126.352025 81.546577,121.18896 75.256167,120.969323 L75.28463,120.912397 Z" id="Path" fill="url(#linearGradient-19)" fill-rule="nonzero" opacity="0.6" style="mix-blend-mode: multiply;"></path>
                            <polygon id="Path" fill="url(#linearGradient-20)" fill-rule="nonzero" points="138.444023 94.697976 133.164137 78.78716 133.164137 78.78716 134.003795 76.4389627 125.464896 76.4389627 126.475332 78.78716 121.038899 94.697976"></polygon>
                            <path d="M134.103416,81.6049968 C133.156265,83.3223687 131.896499,84.8476028 130.388994,86.1021505 C128.110438,88.0929393 125.417182,89.5513812 122.504744,90.3716003 L121.081594,94.64105 L138.444023,94.64105 L134.103416,81.6049968 Z" id="Path" fill="url(#linearGradient-21)" fill-rule="nonzero" opacity="0.5" style="mix-blend-mode: multiply;"></path>
                            <polygon id="Path" fill="#C7C7C7" fill-rule="nonzero" points="148.975332 77.4493991 133.619545 77.4493991 133.690702 77.0651486 148.975332 77.0651486"></polygon>
                            <path d="M148.86148,77.7197976 C147.039848,79.35642 139.6537,77.7197976 139.6537,77.7197976 L139.6537,76.8801392 C139.6537,76.8801392 146.627135,75.8697027 148.86148,76.8801392 C149.032258,76.9512966 149.003795,77.5917141 148.86148,77.7197976 Z" id="Path" fill="#000000" fill-rule="nonzero"></path>
                            <path d="M133.918406,76.6666667 C133.548387,76.4104997 133.064516,77.2786211 132.964896,77.5774826 C132.837818,78.0433556 132.837818,78.5347595 132.964896,79.0006325 C133.263757,78.8583175 133.377609,78.1894371 133.491461,77.8763441 C133.609201,77.4927042 133.751818,77.1171455 133.918406,76.7520557 L133.918406,76.6666667 Z" id="Path" fill="#C7C7C7" fill-rule="nonzero"></path>
                            <rect id="Rectangle" fill="#7A0507" fill-rule="nonzero" x="84.3927894" y="140.395319" width="58.2637571" height="2.53320683"></rect>
                        </g>
                    </g>
                </g>
            </g>
        </g>
    </g>
</svg>