<?xml version="1.0" encoding="UTF-8"?>
<svg width="154px" height="154px" viewBox="0 0 154 154" version="1.1" xmlns="http://www.w3.org/2000/svg" xmlns:xlink="http://www.w3.org/1999/xlink">
    <!-- Generator: Sketch 55.2 (78181) - https://sketchapp.com -->
    <title>Img/add-product/active Copy 2</title>
    <desc>Created with Sketch.</desc>
    <defs>
        <circle id="path-1" cx="75" cy="75" r="75"></circle>
        <circle id="path-3" cx="75" cy="75" r="75"></circle>
        <linearGradient x1="55.312074%" y1="-31.6062285%" x2="81.0376492%" y2="155.469424%" id="linearGradient-5">
            <stop stop-color="#EAEAEA" offset="0%"></stop>
            <stop stop-color="#D0D0D0" offset="100%"></stop>
        </linearGradient>
        <linearGradient x1="13.8426911%" y1="-23.4382698%" x2="68.8368457%" y2="100%" id="linearGradient-6">
            <stop stop-color="#000000" offset="0%"></stop>
            <stop stop-color="#000000" offset="100%"></stop>
        </linearGradient>
        <linearGradient x1="54.3273726%" y1="15.2977068%" x2="32.9600146%" y2="158.054794%" id="linearGradient-7">
            <stop stop-color="#5C20D2" offset="0%"></stop>
            <stop stop-color="#39A4E9" offset="100%"></stop>
        </linearGradient>
        <linearGradient x1="48.9583733%" y1="-6.1897942%" x2="50%" y2="100%" id="linearGradient-8">
            <stop stop-color="#5C20D2" offset="0%"></stop>
            <stop stop-color="#39A4E9" offset="100%"></stop>
        </linearGradient>
        <linearGradient x1="39.3298317%" y1="-25.1450184%" x2="50%" y2="100%" id="linearGradient-9">
            <stop stop-color="#EAEAEA" offset="0%"></stop>
            <stop stop-color="#A7A7A7" offset="100%"></stop>
        </linearGradient>
        <linearGradient x1="44.3876956%" y1="0%" x2="53.9236195%" y2="113.717221%" id="linearGradient-10">
            <stop stop-color="#5C20D2" offset="0%"></stop>
            <stop stop-color="#39A4E9" offset="100%"></stop>
        </linearGradient>
        <linearGradient x1="43.7783929%" y1="14.5628541%" x2="-5.88265062%" y2="322.355383%" id="linearGradient-11">
            <stop stop-color="#5C20D2" offset="0%"></stop>
            <stop stop-color="#39A4E9" offset="100%"></stop>
        </linearGradient>
    </defs>
    <g id="landing-page" stroke="none" stroke-width="1" fill="none" fill-rule="evenodd">
        <g id="HomeV2" transform="translate(-506.000000, -2714.000000)">
            <g id="Img/customer" transform="translate(508.000000, 2716.000000)">
                <g id="Group-4">
                    <g id="image/border/3">
                        <mask id="mask-2" fill="white">
                            <use xlink:href="#path-1"></use>
                        </mask>
                        <use id="Oval" stroke="#5C20D2" stroke-width="3" fill="#FFFFFF" fill-rule="evenodd" xlink:href="#path-1"></use>
                    </g>
                    <mask id="mask-4" fill="white">
                        <use xlink:href="#path-3"></use>
                    </mask>
                    <g id="Oval"></g>
                    <g id="bookWithMen" mask="url(#mask-4)">
                        <g transform="translate(75.000000, 101.388889) scale(-1, 1) translate(-75.000000, -101.388889) translate(47.222222, 13.888889)">
                            <polygon id="Path" fill="#39A4E9" fill-rule="nonzero" points="3.85038504 163.893835 10.6226244 167.051705 17.3267327 155.708305 8.63319396 151.650165"></polygon>
                            <path d="M12.3639954,163.965552 C12.604579,164.304828 12.7567145,164.7051 12.8051539,165.126251 C12.9655752,165.664136 13.1393649,166.216175 13.3131546,166.739905 C13.5341747,167.718374 13.9338188,168.641618 14.4895774,169.457639 C15.3223407,170.469087 16.4282536,171.185503 17.6578977,171.510095 C18.2591892,171.641871 18.7954943,171.998665 19.1685314,172.51509 C19.3423212,172.868962 19.2487421,174.128745 18.8476889,174.383532 C18.4466357,174.63832 17.7381083,174.298603 17.5108448,174.256138 C17.029581,174.171209 10.5592559,173.477621 7.44440937,170.009679 C6.10756535,168.594193 4.24935216,168.042153 2.51145493,167.178706 C2.12377017,166.994693 1.38850595,166.555892 1.37513751,166.032162 C1.55858922,165.394144 1.83850011,164.791829 2.20398081,164.248649 C2.84353347,163.096916 3.68796581,162.08744 4.69051068,161.276128 C4.93114261,161.460141 5.01135325,162.04049 5.17177453,162.323588 C5.42501168,162.734437 5.73095738,163.106019 6.08082847,163.427667 C6.57908995,163.948382 7.14112996,164.3959 7.75188349,164.758224 C8.94167467,165.409348 9.94430769,164.475127 11.1608357,164.008016 C11.6153627,163.824003 12.2570478,163.753229 12.4976798,164.16372 L12.3639954,163.965552 Z" id="Path" fill="#5C20D2" fill-rule="nonzero"></path>
                            <polygon id="Path" fill="#39A4E9" fill-rule="nonzero" points="35.7336161 169.80198 43.4543454 168.272089 40.1575376 156.325633 30.2530253 158.281233"></polygon>
                            <path d="M42.9791753,165.676568 C43.414539,165.786248 43.8210776,165.994283 44.1696536,166.285764 L45.7295908,167.192476 C46.6090371,167.792684 47.5807836,168.23345 48.6031592,168.495874 C49.9254354,168.753727 51.2911074,168.621169 52.544053,168.113355 C53.142183,167.839358 53.811446,167.779538 54.4460817,167.943347 C54.8292241,168.099188 55.677611,169.105071 55.5407744,169.530092 C55.4039378,169.955113 54.6239692,170.139289 54.391347,170.280962 C54.1587248,170.422636 48.411588,173.921976 43.4444197,173.19944 C41.4503001,173.122546 39.459743,173.430003 37.5741299,174.106152 C37.1362528,174.205323 36.205764,174.318662 35.8636725,173.936143 C35.5554085,173.363197 35.3426124,172.740558 35.2342241,172.094386 C34.9068038,170.872354 34.8414199,169.59098 35.0426529,168.340033 C35.3573771,168.340033 35.8363052,168.722552 36.164713,168.821723 C36.6536775,168.978239 37.1590323,169.073369 37.6699155,169.105071 C38.4198155,169.198436 39.1778193,169.198436 39.9277193,169.105071 C41.2960852,168.864226 41.4329218,167.54666 42.0486864,166.455773 C42.2813086,166.044919 42.7191857,165.591563 43.2254811,165.733237 L42.9791753,165.676568 Z" id="Path" fill="#5C20D2" fill-rule="nonzero"></path>
                            <path d="M24.9150608,13.3113311 C25.6894162,13.4347645 26.5171754,13.3113311 27.3182326,13.475909 C28.2084022,13.6534133 29.062052,13.9874762 29.841563,14.463376 C31.2434881,15.4098226 32.3766245,16.7205266 33.1258978,18.2623811 C33.4882564,18.8396205 33.7418692,19.4816279 33.8735512,20.1550263 C33.8735512,20.7173339 33.5664793,21.2110674 33.659936,21.7870899 C33.9168637,22.7969459 34.5309055,23.6722098 35.3822091,24.2420427 C35.6759301,24.4889094 36.3167759,24.8043503 36.3036304,25.2569393 C36.290074,25.7095284 35.689281,25.9975396 35.4756658,26.2306916 C35.0953235,26.5140755 34.8715735,26.9686639 34.8748728,27.4513105 C34.8748728,27.6981773 35.1418919,27.8627551 35.0884881,28.1096219 C35.0350843,28.3564887 34.6879595,28.4250628 34.6746085,28.5896406 C34.6612575,28.7542184 34.9683295,28.9599407 34.9549785,29.1930927 C34.9416276,29.4262446 34.6479066,29.4948187 34.527748,29.7142558 C34.2770858,30.1499698 34.3931424,30.7103018 34.7947671,31.0034489 C35.2353486,31.4423232 35.4489639,31.4286083 35.1552429,32.141779 C34.9680394,32.6076297 34.5848967,32.9608469 34.1138684,33.1018164 C33.2303589,33.2884159 32.3170066,33.2649598 31.4436775,33.0332423 C30.2687935,32.9098089 30.1085821,33.5681202 29.7347554,34.5555873 C29.0971836,36.4643736 28.7504217,38.4628643 28.7067319,40.4803895 C28.1326408,40.7684007 27.1446702,39.9180819 26.6773868,39.6163559 C25.6093105,38.9306149 24.581287,38.2448739 23.4998597,37.5591329 C22.5100811,37.1888695 21.5426491,36.7583763 20.6027026,36.2699398 C20.1646644,35.8920029 19.8948283,35.3475222 19.8550491,34.7613096 C19.6686482,33.2507357 19.355971,31.7594552 18.9204823,30.3039931 C18.6749861,29.7704028 18.3142658,29.3013505 17.8657569,28.9325111 C17.3224286,28.3452598 16.8719432,27.6742536 16.5306615,26.9438622 C15.195566,24.365476 14.2609992,21.3482156 15.2890227,18.5503924 C16.100997,16.9247966 17.3406567,15.5658214 18.8670785,14.6279539 C20.0237122,13.9334368 21.3327751,13.5512475 22.6721005,13.5170534 C23.4842136,13.3643614 24.316563,13.3643614 25.1286761,13.5170534 L24.9150608,13.3113311 Z" id="Path" fill="url(#linearGradient-5)" fill-rule="nonzero"></path>
                            <g id="Group" stroke-width="1" fill="none" fill-rule="evenodd" transform="translate(7.920792, 1.375138)">
                                <path d="M22.1546024,14.2544639 C18.7095172,13.4207921 17.1980371,15.2794703 17.1299524,18.0128205 C16.9335322,19.118587 16.8242583,20.2381722 16.8031459,21.3611746 C16.9120814,21.8668444 17.4567589,22.0308454 17.6337791,22.5365152 C17.8107993,23.042185 17.7971824,23.7665228 17.9878195,24.3268596 C18.6141986,26.1035373 20.5069529,27.5112127 22.0729007,28.6182195 C23.6388486,29.7252264 26.9477644,29.8618939 27.9690347,31.3515698 C25.8992602,32.2262419 22.9580017,31.3515698 20.7248239,31.3515698 C17.3478234,31.3515698 17.2797387,30.6955657 16.135916,28.0852162 C15.8227264,27.3882119 13.8210366,21.8258441 12.3776412,24.0945248 C11.9010484,24.8325294 13.1401897,26.0352035 12.867851,26.9508759 C12.5955122,27.8665482 11.4244556,28.7412203 10.5802055,29.4245578 C9.22820784,27.3957296 5.49963947,27.2879354 3.64969865,24.3268596 C1.66143098,21.1443733 1.66051518,15.0907427 3.64969865,12.5137514 C4.15614649,11.8541029 5.33593213,4.49354989 7.75534918,2.88495141 C8.95513754,2.08724779 12.07598,6.89300683 12.3776412,6.35590605 C19.8569857,-6.9608932 21.2372439,10.3128695 22.8566597,13.9111654 C23.0227968,14.0202435 22.7887777,14.1346764 22.1546024,14.2544639 Z" id="Path" fill="url(#linearGradient-6)" fill-rule="nonzero"></path>
                                <path d="M26.4575546,29.2332233 C27.0022321,29.3835576 28.336692,30.4768977 28.2141396,31.1329018 C28.0235024,32.1305746 26.2396836,31.9802403 25.4907521,31.9939071 C24.4489048,31.9908062 23.4079768,31.931498 22.3724734,31.8162393 C21.237591,31.7843186 20.1154336,31.5673746 19.0499406,31.173902 C18.7787116,31.0812896 18.535162,30.9214631 18.3418599,30.7092325 C18.6959002,30.5725649 19.4720657,30.791233 19.7035536,30.5588982 C19.9350416,30.3265634 19.5946181,29.5612254 19.9486585,29.1922231 C20.3026989,28.8232208 22.1818362,29.4108911 22.8082154,29.6295591 C23.4345945,29.8482271 26.6345748,30.8869002 26.2260667,29.1102226 C26.367998,29.1563822 26.5014061,29.2256388 26.6209579,29.3152238 L26.4575546,29.2332233 Z" id="Path" fill="#000000" fill-rule="nonzero"></path>
                                <path d="M26.9341474,25.4201997 C27.2523803,25.580811 27.4331551,25.927189 27.3835064,26.281205 C26.8672717,26.2309997 26.3474102,26.2309997 25.8311755,26.281205 C25.3072436,26.399583 24.8320223,26.6762197 24.4694817,27.0738766 C23.9361667,27.879479 23.7912195,28.8827718 24.0745906,29.8072269 C22.8218323,29.6568926 22.9307678,26.9918761 23.54353,26.3085385 C23.9892951,25.8774134 24.5629655,25.6039231 25.1775625,25.5295337 C25.5316029,25.5295337 27.0158491,25.5295337 27.0022321,25.4475332 L26.9341474,25.4201997 Z" id="Path" fill="#000000" fill-rule="nonzero"></path>
                            </g>
                            <path d="M19.8191702,33.9383938 C20.5955322,35.9745126 26.8745295,38.6665623 29.2580968,38.5162448 C28.9175871,40.3883809 30.9197837,41.9052211 31.7370067,43.5997092 C32.5542298,45.2941974 37.4030867,51.2249058 37.9206613,52.8920635 C39.1328756,56.8276489 43.1372686,100.119088 45.2075671,119.769684 C46.1065125,128.324116 47.1280413,136.782891 48.3130148,145.268997 C48.7488671,148.384669 48.8442098,151.500341 49.2528213,154.629678 C49.4843678,156.392492 51.4865644,159.426172 50.6965821,161.175321 C49.3345436,164.263663 37.8525594,164.673619 34.542806,165.151902 C27.637271,166.163129 21.0994864,166.518425 14.3301553,164.372984 C10.707133,163.266101 7.42462029,161.639939 3.74711646,160.669708 C0.0696126241,159.699477 0.0832330087,159.152868 0.00151070124,155.914209 C-0.036384663,148.57768 0.638747916,141.25492 2.01732762,134.049846 C5.00019184,117.091299 5.89913722,109.151803 10.461966,89.1732409 C11.9602084,82.6275972 13.9351641,77.8037721 14.9158318,71.1761371 C15.5423695,66.9672472 12.4641626,52.2088022 13.3222468,48.6558432 C14.071368,45.5811671 16.2778703,35.7285386 19.8327906,34.430342 L19.8191702,33.9383938 Z" id="Path" fill="url(#linearGradient-7)" fill-rule="nonzero"></path>
                            <path d="M2.01516981,134.053606 C4.99484344,117.089791 5.89282728,109.147828 10.4507755,89.16306 C11.9474153,82.615383 13.9202585,77.7900595 14.8998773,71.1603656 C15.5257448,66.9501683 12.4236188,51.1482589 13.294391,47.5941962 C14.0427109,44.518565 16.2604588,35.7017557 19.8251825,34.4031559 L19.8251825,33.9383938 C20.5861944,35.1109616 21.681548,36.0256448 22.968126,36.5629324 C22.2742294,39.2968268 21.2810048,41.9623738 20.8320129,44.7646155 C20.1869943,49.4380016 20.0455831,54.1676533 20.4102326,58.8715105 C20.6323148,65.243301 21.2594602,71.5943212 22.2878352,77.8857458 C21.5259095,90.1882704 21.6891793,102.695837 24.5327948,114.601947 C26.2847396,122.530332 29.4416489,130.07754 33.8527785,136.883186 C38.1930337,143.294169 44.3292566,147.900781 49.1593212,153.764984 C49.1593212,154.052043 49.1593212,154.339102 49.2545619,154.626161 C49.4858608,156.389523 51.4859157,159.424145 50.6967783,161.173838 C49.3361968,164.263138 37.8664942,164.673222 34.5602809,165.151654 C27.6621324,166.163195 21.1313409,166.518601 14.3692505,164.372494 C10.7501035,163.265267 7.4711019,161.6386 3.79753166,160.668067 C0.123961427,159.697535 0.0831439795,159.164425 0.00150908534,155.92476 C-0.0363457446,148.585952 0.638064687,141.260917 2.01516981,134.053606 L2.01516981,134.053606 Z" id="Path" fill="url(#linearGradient-8)" fill-rule="nonzero"></path>
                            <polygon id="Path" fill="#5C20D2" fill-rule="nonzero" points="17.48003 98.569857 54.730473 97.9940985 54.3159651 76.5676568 17.0517052 77.1434153"></polygon>
                            <polygon id="Path" fill="#39A4E9" fill-rule="nonzero" points="17.4710094 98.569857 45.1045105 98.1281356 26.5739689 76.8426843 17.0517052 76.994526"></polygon>
                            <path d="M40.578545,89.4939494 C41.1424784,90.0894532 41.3763045,90.8473672 42.1603095,91.1451191 C42.9443145,91.442871 43.7833374,91.5646786 44.5810968,91.8488963 C45.3155529,92.0481751 45.9331289,92.5382433 46.2866516,93.2023141 C46.7818126,94.109104 47.8133981,94.5557319 48.2948047,95.4354534 C47.4282729,96.5587902 45.9840531,94.5828002 45.54391,94.0820357 C46.1078434,94.9752914 46.6992858,95.8820813 47.1669379,96.7888712 C47.7395243,97.6607848 48.1580649,98.6217381 48.4048405,99.6310485 C48.4048405,100.158881 48.4048405,101.09274 47.7858892,100.524304 C47.4557818,100.226552 47.2494647,99.4145017 46.9606208,99.0220105 C46.4379508,98.3317675 45.4751376,96.924213 44.6361147,96.7888712 C44.8149229,97.6144561 47.6483444,100.18595 46.8780939,101.146876 C46.1078434,102.107803 43.7695829,98.8189979 43.3294397,98.2099599 C43.0405958,99.5633776 45.4476287,100.686714 46.0803344,101.593504 C45.2688205,102.337884 43.9346366,101.390492 43.3294397,100.970932 C43.5495113,101.322821 43.9621455,101.458163 44.237235,101.715312 C42.8617876,102.703307 39.4644326,97.9392763 38.9004992,96.924213 C38.6194451,96.3213116 38.3894236,95.6966203 38.2127755,95.0564965 C37.9695137,94.5530261 37.639061,94.0950541 37.2362079,93.7030787 C36.9886274,93.4053268 36.1496045,92.6744812 36.3284127,92.2007849 C36.4109395,91.9436356 37.5663153,91.21279 37.8414048,90.9691748 C38.1164942,90.7255596 40.2346832,89.1285266 40.3722279,89.6969621 L40.578545,89.4939494 Z" id="Path" fill="url(#linearGradient-9)" fill-rule="nonzero"></path>
                            <path d="M18.2598836,43.76988 C18.7797938,42.8924502 19.4431213,42.1105769 20.2216343,41.4575374 C20.3028102,41.5533149 20.2216343,41.4575374 20.3028102,41.4575374 L20.0998705,41.6354099 C20.4756204,41.2978488 20.9514042,41.0957571 21.452802,41.0607449 C24.6186617,39.4051623 28.7180442,41.9911549 30.5174431,44.6045125 C31.9406776,46.5991027 32.434585,49.1215757 31.8703747,51.5141753 C31.3833193,53.5665504 31.4644952,55.824163 31.1668503,57.931268 C31.1965273,59.070252 31.1331753,60.2097696 30.9774399,61.3382107 C30.6844532,63.1500207 30.4947296,64.9773704 30.4092086,66.8112109 C30.4092086,68.0015884 29.8274481,69.793996 30.1792103,70.9159611 C30.5061304,70.7746094 30.8861012,70.8968781 31.0721451,71.2032936 C31.5997884,71.8326886 31.0721451,71.8190061 31.0721451,72.5715436 C31.0721451,73.3240812 31.5997884,73.0777961 32.1139023,73.4061762 C32.8986026,73.9261112 32.3709593,73.8303337 32.4386059,74.5691887 C32.5062525,75.3080437 39.1085583,83.2849416 39.9879638,85.9119817 C40.412549,86.8476612 40.7434132,87.8239901 40.9756038,88.8263543 C40.9756038,89.4967968 41.0432503,89.1684168 40.5832536,89.6199393 C40.1232569,90.0714618 39.5414964,90.4956193 39.054441,90.8924119 C38.2291528,91.5491719 37.3497473,92.1238369 36.4974004,92.7942794 C35.6044656,92.4111694 35.1444689,90.7419043 34.2515341,90.0577793 C32.525713,88.6351696 30.8983785,87.0945553 29.3809807,85.4467766 C28.0280491,83.9280191 26.6751176,82.3545315 25.3221861,80.8220915 C24.278674,79.8092561 23.3691655,78.6640972 22.6163231,77.4151488 C22.2898746,76.1988307 22.0546981,74.9593219 21.9127987,73.7071912 C21.5360011,72.4894099 21.084139,71.2966965 20.5598672,70.1360585 C19.0879827,66.2905779 18.1015776,62.2727006 17.6240058,58.1775531 C17.3940074,56.152543 17.4481247,54.0728029 17.0963625,52.0751578 C16.7477489,50.4017322 16.6836951,48.6804589 16.9069521,46.9852676 C17.1432407,45.8335361 17.6030926,44.7406484 18.2598836,43.76988 L18.2598836,43.76988 Z" id="Path" fill="url(#linearGradient-10)" fill-rule="nonzero"></path>
                            <path d="M16.9144207,46.7326581 C17.1509018,45.5735368 17.6111284,44.4736369 18.2684544,43.4966399 C18.4173981,43.2487747 18.5934225,42.9871392 18.7829873,42.7392739 C19.8662143,59.4701767 24.1991224,77.1649999 40.1496403,86.2947024 C40.525115,87.0924358 40.8025245,87.9341729 40.9756009,88.8008952 C40.9756009,89.4756394 41.0433026,89.1451525 40.5829311,89.5995721 C40.1225596,90.0539916 39.5403251,90.4808706 39.052873,90.8802091 C38.2269123,91.541183 37.3467904,92.1195352 36.4937491,92.7942794 C35.6000868,92.4087113 35.1397153,90.7287359 34.246053,90.0402214 C32.5188259,88.6084838 30.8901655,87.0579847 29.3715314,85.3996335 C28.0174976,83.8711313 26.6634639,82.2875479 25.3094301,80.7452754 C24.2650678,79.7259415 23.3548183,78.5734349 22.6013625,77.3164731 C22.2746481,76.0923508 22.0392799,74.844889 21.897265,73.5847244 C21.5201604,72.3591295 21.0679301,71.1587635 20.5432312,69.9906786 C19.0701475,66.1205245 18.0829388,62.0768677 17.6049779,57.9554448 C17.3747921,55.9174418 17.4289535,53.8243577 17.0769047,51.8138953 C16.7416432,50.1415549 16.6867082,48.4236175 16.9144207,46.7326581 L16.9144207,46.7326581 Z" id="Path" fill="url(#linearGradient-11)" fill-rule="nonzero"></path>
                        </g>
                    </g>
                </g>
            </g>
        </g>
    </g>
</svg>