<?xml version="1.0" encoding="UTF-8"?>
<svg width="496px" height="641px" viewBox="0 0 496 641" version="1.1" xmlns="http://www.w3.org/2000/svg" xmlns:xlink="http://www.w3.org/1999/xlink">
    <!-- Generator: Sketch 55.2 (78181) - https://sketchapp.com -->
    <title>Group 11</title>
    <desc>Created with Sketch.</desc>
    <defs>
        <linearGradient x1="50%" y1="0.401182432%" x2="50%" y2="100%" id="linearGradient-1">
            <stop stop-color="#5C20D2" offset="0%"></stop>
            <stop stop-color="#39A4E9" offset="100%"></stop>
        </linearGradient>
        <path d="M31.4777448,222.890246 C117.793041,343.956739 84.5939314,373.419505 19.4437668,504.066427 C-45.7063978,634.71335 434.181439,726.384403 486.083345,517.25476 C537.985251,308.125117 377.2177,8.67967333 211.878244,0.436965276 C46.538788,-7.80574277 -54.8375513,101.823753 31.4777448,222.890246 Z" id="path-2"></path>
        <linearGradient x1="40.6625857%" y1="-7.94869144%" x2="40.6625857%" y2="40.5342845%" id="linearGradient-4">
            <stop stop-color="#5C20D2" offset="0%"></stop>
            <stop stop-color="#000000" offset="100%"></stop>
        </linearGradient>
        <linearGradient x1="-17.990481%" y1="54.802732%" x2="104.467003%" y2="45.9073363%" id="linearGradient-5">
            <stop stop-color="#5C20D2" offset="0%"></stop>
            <stop stop-color="#39A4E9" offset="98.0336782%"></stop>
        </linearGradient>
        <linearGradient x1="55.312074%" y1="-31.6062285%" x2="81.0376492%" y2="155.469424%" id="linearGradient-6">
            <stop stop-color="#EAEAEA" offset="0%"></stop>
            <stop stop-color="#D0D0D0" offset="100%"></stop>
        </linearGradient>
        <linearGradient x1="3.97846198%" y1="-23.4382698%" x2="73.9758057%" y2="100%" id="linearGradient-7">
            <stop stop-color="#000000" offset="0%"></stop>
            <stop stop-color="#000000" offset="100%"></stop>
        </linearGradient>
        <linearGradient x1="49.1905303%" y1="0%" x2="50%" y2="99.8126056%" id="linearGradient-8">
            <stop stop-color="#CCCCCC" offset="0%"></stop>
            <stop stop-color="#D9D7D7" offset="100%"></stop>
        </linearGradient>
        <linearGradient x1="47.0092801%" y1="2.60193495%" x2="47.6954023%" y2="85.7308502%" id="linearGradient-9">
            <stop stop-color="#D4D4D4" offset="0%"></stop>
            <stop stop-color="#F4F4F4" offset="100%"></stop>
        </linearGradient>
        <linearGradient x1="39.3298317%" y1="-25.1450184%" x2="50%" y2="100%" id="linearGradient-10">
            <stop stop-color="#EAEAEA" offset="0%"></stop>
            <stop stop-color="#A7A7A7" offset="100%"></stop>
        </linearGradient>
        <linearGradient x1="39.2742382%" y1="-12.6794963%" x2="52.4369558%" y2="114.115464%" id="linearGradient-11">
            <stop stop-color="#FAFAFA" offset="0%"></stop>
            <stop stop-color="#F4F4F4" offset="100%"></stop>
        </linearGradient>
        <linearGradient x1="18.6789314%" y1="-32.1726018%" x2="52.8846609%" y2="100%" id="linearGradient-12">
            <stop stop-color="#F6F6F6" offset="0%"></stop>
            <stop stop-color="#EAEAEA" offset="100%"></stop>
        </linearGradient>
        <linearGradient x1="50%" y1="1.19562922%" x2="50%" y2="100%" id="linearGradient-13">
            <stop stop-color="#DFDFDF" offset="0%"></stop>
            <stop stop-color="#E6E4E1" offset="100%"></stop>
        </linearGradient>
        <linearGradient x1="50%" y1="0%" x2="50%" y2="100%" id="linearGradient-14">
            <stop stop-color="#E3E3E3" offset="0%"></stop>
            <stop stop-color="#CDCDCD" offset="100%"></stop>
        </linearGradient>
        <linearGradient x1="50%" y1="0%" x2="50%" y2="100%" id="linearGradient-15">
            <stop stop-color="#DFDEDC" offset="0%"></stop>
            <stop stop-color="#B5B5B4" offset="100%"></stop>
        </linearGradient>
        <linearGradient x1="50%" y1="0%" x2="50%" y2="100%" id="linearGradient-16">
            <stop stop-color="#9C9D9E" offset="0%"></stop>
            <stop stop-color="#818181" offset="100%"></stop>
        </linearGradient>
        <linearGradient x1="50%" y1="0%" x2="50%" y2="100%" id="linearGradient-17">
            <stop stop-color="#D6D6D6" offset="0%"></stop>
            <stop stop-color="#ADADAD" offset="100%"></stop>
        </linearGradient>
    </defs>
    <g id="landing-page" stroke="none" stroke-width="1" fill="none" fill-rule="evenodd">
        <g id="HomeV2" transform="translate(-809.000000, -350.000000)">
            <g id="Group-11" transform="translate(809.000000, 350.000000)">
                <mask id="mask-3" fill="white">
                    <use xlink:href="#path-2"></use>
                </mask>
                <use id="Path-4" fill="url(#linearGradient-1)" xlink:href="#path-2"></use>
                <path d="M-103.522255,-50.1097542 C-17.2069591,70.9567385 -50.4060686,100.419505 -115.556233,231.066427 C-180.706398,361.71335 299.181439,453.384403 351.083345,244.25476 C402.985251,35.1251166 242.2177,-264.320327 76.878244,-272.563035 C-88.461212,-280.805743 -189.837551,-171.176247 -103.522255,-50.1097542 Z" id="Path-4-Copy" fill="url(#linearGradient-1)" mask="url(#mask-3)"></path>
                <path d="M44.4777448,15.8902458 C130.793041,136.956739 97.5939314,166.419505 32.4437668,297.066427 C-32.7063978,427.71335 447.181439,519.384403 499.083345,310.25476 C550.985251,101.125117 390.2177,-198.320327 224.878244,-206.563035 C59.538788,-214.805743 -41.8375513,-105.176247 44.4777448,15.8902458 Z" id="Path-4-Copy-2" fill="url(#linearGradient-1)" opacity="0.492234003" mask="url(#mask-3)"></path>
                <path d="M-181.522255,270.890246 C-95.2069591,391.956739 -128.406069,421.419505 -193.556233,552.066427 C-258.706398,682.71335 221.181439,774.384403 273.083345,565.25476 C324.985251,356.125117 164.2177,56.6796733 -1.12175602,48.4369653 C-166.461212,40.1942572 -267.837551,149.823753 -181.522255,270.890246 Z" id="Path-4-Copy-3" fill="url(#linearGradient-1)" opacity="0.0782412574" mask="url(#mask-3)"></path>
                <path d="M249.477745,683.890246 C335.793041,804.956739 302.593931,834.419505 237.443767,965.066427 C172.293602,1095.71335 652.181439,1187.3844 704.083345,978.25476 C755.985251,769.125117 595.2177,469.679673 429.878244,461.436965 C264.538788,453.194257 163.162449,562.823753 249.477745,683.890246 Z" id="Path-4-Copy-4" fill="url(#linearGradient-4)" opacity="0.297130766" mask="url(#mask-3)"></path>
                <path d="M-36.3818528,612.918338 C35.2819185,613.440622 264.852937,613.440622 232.983708,547.102942 C201.11448,480.765262 -48.8765395,528.371204 -110.263556,547.102942 C-171.650572,565.834679 -108.045624,612.396054 -36.3818528,612.918338 Z" id="Path-5" fill="url(#linearGradient-5)" mask="url(#mask-3)"></path>
                <g id="Art/cardWithMan" mask="url(#mask-3)">
                    <g transform="translate(147.000000, 119.000000)" id="bookWithMen">
                        <g transform="translate(101.000000, 306.000000) scale(-1, 1) translate(-101.000000, -306.000000) translate(0.000000, 0.000000)">
                            <polygon id="Path" fill="#39A4E9" fill-rule="nonzero" points="14 573.517986 38.6238625 585 63 543.755396 31.3902932 529"></polygon>
                            <path d="M44.9554871,573.778747 C45.8302492,575.012353 46.3834139,576.467743 46.5595395,577.999048 C47.1428313,579.954797 47.7747308,581.962014 48.4066302,583.866296 C49.2102593,587.424006 50.663365,590.780924 52.6841033,593.747977 C55.7120306,597.425599 59.73313,600.030489 64.204116,601.210704 C66.3904119,601.689845 68.3404171,602.987145 69.6967803,604.864868 C70.3286797,606.151545 69.9884262,610.732116 68.5301967,611.658523 C67.0719673,612.584931 64.4957619,611.349721 63.6694318,611.195319 C61.9195565,610.886517 38.3934546,608.36463 27.0678725,595.755193 C22.2071076,590.608484 15.4506444,588.601268 9.13165013,585.461776 C7.72202832,584.792703 5.04860765,583.197224 5,581.292941 C5.6670304,578.973106 6.68478641,576.783089 8.01367421,574.808088 C10.3390877,570.620388 13.4094437,566.949931 17.0546969,564 C17.9296345,564.669072 18.2212804,566.779223 18.8045722,567.808564 C19.7253425,569.302411 20.837761,570.653485 22.1098923,571.822997 C23.9215711,573.716317 25.9651485,575.343491 28.1858484,576.660904 C32.5119291,579.02839 36.1575027,575.631562 40.5807988,573.933148 C42.2334588,573.264076 44.566626,573.00674 45.4415636,574.499286 L44.9554871,573.778747 Z" id="Path" fill="#5C20D2" fill-rule="nonzero"></path>
                            <polygon id="Path" fill="#39A4E9" fill-rule="nonzero" points="129.927428 595 158 589.437315 146.012807 546 110 553.110563"></polygon>
                            <path d="M156.272281,580 C157.855264,580.398797 159.333438,581.155215 160.600861,582.21504 L166.272792,585.511843 C169.470459,587.694199 173.003729,589.296825 176.721087,590.250998 C181.528883,591.188551 186.494466,590.706572 191.050177,588.860159 C193.224977,587.863907 195.658418,587.6464 197.965953,588.242008 C199.359059,588.808646 202.443794,592.466037 201.946256,594.011414 C201.448718,595.556791 198.612752,596.226454 197.766938,596.741579 C196.921123,597.256705 176.024534,609.980305 157.96391,607.353165 C150.713291,607.073577 143.475625,608.19149 136.619536,610.649968 C135.027415,611.010556 131.644158,611.422656 130.400313,610.031818 C129.279465,607.948583 128.505739,605.684668 128.111639,603.335186 C126.921139,598.891881 126.683403,594.232804 127.415086,589.68436 C128.559423,589.68436 130.300806,591.075199 131.494896,591.435786 C133.272771,592.004876 135.110242,592.350771 136.967813,592.466037 C139.694449,592.805512 142.450551,592.805512 145.177187,592.466037 C150.152566,591.590324 150.650104,586.799657 152.889024,582.83319 C153.734838,581.339326 155.326959,579.690925 157.167849,580.20605 L156.272281,580 Z" id="Path" fill="#5C20D2" fill-rule="nonzero"></path>
                            <path d="M90.5911612,26 C93.4067172,26.4488038 96.4164496,26 99.3290938,26.598405 C102.56575,27.2438109 105.669621,28.4584635 108.503923,30.1888352 C113.601323,33.6301149 117.721407,38.3958349 120.445764,44.0020178 C121.7633,46.1008602 122.685436,48.4351989 123.164232,50.8836756 C123.164232,52.9282261 122.047719,54.7234412 122.387527,56.8178588 C123.321717,60.4896953 125.554372,63.672155 128.649712,65.7440671 C129.717682,66.6416746 132.047797,67.7886176 132,69.4342314 C131.950709,71.0798453 129.766226,72.127054 128.989521,72.9747945 C127.606596,74.0051786 126.793041,75.6580618 126.805038,77.4129651 C126.805038,78.3105726 127.775919,78.9089777 127.581743,79.8065852 C127.387566,80.7041927 126.125421,80.9535282 126.076876,81.5519332 C126.028332,82.1503382 127.144846,82.8983445 127.096302,83.746085 C127.047758,84.5938254 125.979788,84.8431608 125.542892,85.6410342 C124.631484,87.2252903 125.053466,89.2626572 126.513773,90.3285402 C128.115727,91.924287 128.892433,91.8744199 127.824463,94.4675083 C127.143791,96.1613417 125.750684,97.4456392 124.038026,97.9582043 C120.825585,98.6366804 117.504636,98.5513939 114.329212,97.7088689 C110.057333,97.2600651 109.474804,99.6536852 108.115571,103.244115 C105.797359,110.184462 104.536533,117.450975 104.377677,124.786696 C102.290282,125.833905 98.6980209,122.742146 96.9989784,121.64507 C93.1154528,119.151716 89.3775594,116.658361 85.4454897,114.165007 C81.8466547,112.81873 78.3290721,111.253456 74.9114265,109.477501 C73.3187198,108.103323 72.3375957,106.123591 72.1929586,103.992122 C71.5152049,98.4996748 70.3783106,93.077379 68.7948736,87.7853189 C67.9022493,85.8451845 66.5906703,84.1397102 64.9598921,82.7986103 C62.9843505,80.6633646 61.3463854,78.2235859 60.1054851,75.5678829 C55.251078,66.1928709 51.8529931,55.2221121 55.5908865,45.0492266 C58.543225,39.1385605 63.0506279,34.1973264 68.6006974,30.7872402 C72.8062176,28.2619761 77.5659702,26.872336 82.4357574,26.7480063 C85.3886007,26.1928179 88.415023,26.1928179 91.3678663,26.7480063 L90.5911612,26 Z" id="Path" fill="url(#linearGradient-6)" fill-rule="nonzero"></path>
                            <g id="Group" transform="translate(43.000000, 0.000000)" fill-rule="nonzero">
                                <path d="M63.7258459,35.6411804 C54.0755784,37.8755362 48.332063,38.1561538 48.084507,48.0946154 C47.370323,52.1151824 46.9730031,56.1859942 46.8962386,60.2692308 C47.2923281,62.1078462 49.2727755,62.7041538 49.9164209,64.5427692 C50.5600663,66.3813846 50.5105551,69.0150769 51.2037117,71.0524615 C53.4812262,77.5124615 60.3632809,82.6307692 66.0570671,86.6558462 C71.7508534,90.6809231 83.7820713,91.1778462 87.4954101,96.5943077 C79.96971,99.7746154 69.2752941,96.5943077 61.1554598,96.5943077 C48.876686,96.5943077 48.6291301,94.2090769 44.4701906,84.7178462 C43.3314333,82.1835385 36.0532891,61.9587692 30.8051036,70.2076923 C29.0722121,72.8910769 33.5777299,77.264 32.5875062,80.5933846 C31.5972825,83.9227692 27.3393206,87.1030769 24.2696272,89.5876923 C18.9554531,81.6131619 10.3325875,69.3432453 5.72851452,59 C-4.02974865,37.0776477 0.798608973,30.8114443 13.4008849,30.8114443 C18,30.8114443 15.6771585,13.4337309 24.2696272,16.5294974 C29.5411091,18.4287511 35.7093618,20.66129 40.512392,19.3804925 C51.2037117,16.5294974 48.084507,-7.13873405e-14 55.5286595,1.00746809 C62.972812,2.01493619 115.219656,3.01124528 83.5381471,38.2502593 C74.7143125,48.0649191 73.3761135,33.4068246 63.7258459,35.6411804 Z" id="Path" fill="url(#linearGradient-7)"></path>
                                <path d="M81.9996686,88.892 C83.980116,89.4386154 88.8322121,93.414 88.3866114,95.7992308 C87.6934548,99.4267692 81.2074896,98.8801538 78.4843745,98.9298462 C74.6962179,98.9185712 70.9114036,98.7029268 67.1463132,98.2838462 C63.0198808,98.1677825 58.9397167,97.3789741 55.0655841,95.9483077 C54.0793954,95.611569 53.1938491,95.0304398 52.4910025,94.2587692 C53.7782933,93.7618462 56.6004308,94.5569231 57.442121,93.7121538 C58.2838111,92.8673846 57.0460315,90.0846154 58.3333223,88.7429231 C59.6206131,87.4012308 66.4531566,89.538 68.7306711,90.3330769 C71.0081856,91.1281538 82.643314,94.9047692 81.1579785,88.4447692 C81.6740406,88.6126056 82.1591126,88.8644228 82.5938028,89.1901538 L81.9996686,88.892 Z" id="Path" fill="#000000"></path>
                                <path d="M83.7325601,75.0278462 C84.8896546,75.6118286 85.5469518,76.8712593 85.3664292,78.1584615 C83.4893998,77.975915 81.5991834,77.975915 79.7221541,78.1584615 C77.8171377,78.5888838 76.0892329,79.5947348 74.7710356,81.0406154 C72.8319021,83.9697857 72.304874,87.6177583 73.3352113,90.9790769 C68.7801823,90.4324615 69.1762717,80.7424615 71.4042751,78.2578462 C73.0250771,76.6902753 75.1109427,75.6958646 77.3456172,75.4253846 C78.632908,75.4253846 84.0296272,75.4253846 83.980116,75.1272308 L83.7325601,75.0278462 Z" id="Path" fill="#000000"></path>
                            </g>
                            <path d="M72.062503,101 C74.885355,108.403328 97.7157891,118.191621 106.38244,117.645066 C105.144347,124.452153 112.424333,129.967384 115.395757,136.128543 C118.36718,142.289702 135.997623,163.853758 137.879525,169.915543 C142.287136,184.225331 156.847109,341.633003 164.374714,413.082571 C167.643279,444.186486 171.357558,474.942593 175.666122,505.798074 C177.250881,517.126656 177.597547,528.455239 179.083258,539.833508 C179.925161,546.243101 187.205148,557.273563 184.332772,563.633468 C179.380401,574.862677 137.631906,576.35328 125.597642,578.092317 C100.489117,581.769138 76.7177325,583.060994 52.1044446,575.260171 C38.9311355,571.235544 26.9959194,565.322818 13.6245154,561.795058 C0.253111501,558.267298 0.302635219,556.279827 0.00549290972,544.504064 C-0.132294635,517.828444 2.32248742,491.202888 7.33500322,465.00524 C18.1806975,403.343965 21.4492629,374.475954 38.0397086,301.833904 C43.4873176,278.033944 50.6682567,260.494515 54.2339644,236.396434 C56.5120555,221.092911 45.3196951,167.431205 48.4396894,154.512646 C51.1634939,143.333124 59.1863363,107.508966 72.1120267,102.788724 L72.062503,101 Z" id="Path" fill="url(#linearGradient-8)" fill-rule="nonzero"></path>
                            <path d="M7.32715742,465.01891 C18.1612508,403.33848 21.42632,374.461502 37.9990198,301.796886 C43.4408019,277.989533 50.61406,260.444656 54.1759537,236.339089 C56.4516081,221.030812 45.172278,163.575069 48.3384057,150.652497 C51.0592968,139.469502 59.1230283,107.411584 72.0843637,102.689875 L72.0843637,101 C74.8514029,105.263456 78.8341085,108.589245 83.512106,110.542822 C80.989098,120.483262 77.3777335,130.175191 75.7451989,140.364142 C73.3999114,157.356574 72.88574,174.553587 74.2116058,191.656812 C75.0190965,214.824642 77.2993974,237.916952 81.0385687,260.792572 C78.268207,305.524551 78.8618559,351.002064 89.2012418,394.29268 C95.5713132,423.120288 107.049835,450.561934 123.088703,475.307265 C138.869871,498.617597 161.181177,515.367238 178.743292,536.689482 C178.743292,537.733228 178.743292,538.776974 179.089587,539.82072 C179.93059,546.232304 187.202789,557.266192 184.333486,563.628074 C179.386411,574.860771 137.682573,576.351837 125.661181,578.091414 C100.579513,581.769377 76.8335553,583.061634 52.2465947,575.258388 C39.0873763,571.23251 27.1649265,565.317949 13.8078251,561.789092 C0.450723747,558.260236 0.302311509,556.32185 0.00548703429,544.542429 C-0.132153127,517.858523 2.3200032,491.224696 7.32715742,465.01891 L7.32715742,465.01891 Z" id="Path" fill="url(#linearGradient-9)" fill-rule="nonzero"></path>
                            <g id="creditcard" transform="translate(62.000000, 251.000000)">
                                <g id="creditCard">
                                    <path d="M17.4970525,79.7999991 L126.950916,78.1082342 C134.12976,77.997275 139.859413,72.0877216 139.748454,64.9088773 C139.748193,64.8920312 139.7479,64.8751856 139.747574,64.8583407 L138.743318,12.947057 C138.604831,5.7884546 132.704003,0.0894416737 125.544915,0.20005451 L16.0575744,1.89170942 C8.87872951,2.00262752 3.14904275,7.91214806 3.25996085,15.090993 C3.26026467,15.1106569 3.26061311,15.13032 3.26100617,15.1499823 L4.29873978,67.061376 C4.44177709,74.2166477 10.341206,79.9106029 17.4970525,79.7999991 Z" id="Path" fill="#4F1FAE" fill-rule="nonzero"></path>
                                    <path d="M14.4970525,84.7999991 L123.950916,83.1082342 C131.12976,82.997275 136.859413,77.0877216 136.748454,69.9088773 C136.748193,69.8920312 136.7479,69.8751856 136.747574,69.8583407 L135.743318,17.947057 C135.604831,10.7884546 129.704003,5.08944167 122.544915,5.20005451 L13.0575744,6.89170942 C5.87872951,7.00262752 0.149042749,12.9121481 0.259960853,20.090993 C0.260264673,20.1106569 0.260613114,20.13032 0.261006173,20.1499823 L1.29873978,72.061376 C1.44177709,79.2166477 7.341206,84.9106029 14.4970525,84.7999991 Z" id="Path" fill="#5C20D2" fill-rule="nonzero"></path>
                                    <path d="M13.6340775,84.774825 L127.063693,82.6598814 C111.335099,54.4642461 95.2978533,36.1828116 78.9519566,27.8155779 C62.60606,19.4483442 36.5376433,16.1764849 0.746706551,18 L1.41124959,72.9220966 C1.49143374,79.5490285 6.9286256,84.8562162 13.5555575,84.776032 C13.5817321,84.7757153 13.6079056,84.775313 13.6340775,84.774825 Z" id="Path" fill-opacity="0.0962357955" fill="#000000" fill-rule="nonzero"></path>
                                    <rect id="Rectangle" fill="#441997" x="43" y="62" width="80" height="6" rx="3"></rect>
                                    <rect id="Rectangle-Copy-4" fill="#441997" x="101" y="18" width="22" height="5" rx="2.5"></rect>
                                    <circle id="Oval" fill="#000000" cx="20" cy="65" r="7"></circle>
                                    <circle id="Oval-Copy-3" fill="#39A4E9" cx="27" cy="65" r="7"></circle>
                                </g>
                            </g>
                            <path d="M147.54359,303 C149.594052,305.165252 150.444243,307.921027 153.294885,309.003653 C156.145527,310.086279 159.196215,310.529171 162.096868,311.562587 C164.76735,312.287165 167.012857,314.069053 168.298265,316.483614 C170.098671,319.780702 173.849516,321.404641 175.59991,324.603309 C172.4492,328.687761 167.198017,321.503062 165.597657,319.682282 C167.648119,322.930159 169.798603,326.227248 171.498986,329.524336 C173.58091,332.694614 175.102724,336.18864 176,339.858492 C176,341.777693 176,345.173202 173.749493,343.10637 C172.549223,342.023744 171.799054,339.071128 170.748817,337.64403 C168.848389,335.134307 165.3476,330.016438 162.296913,329.524336 C162.94706,332.526162 173.24938,341.876114 170.448749,345.370043 C167.648119,348.863972 159.146203,336.905876 157.545843,334.691414 C156.495606,339.612441 165.247578,343.696894 167.548096,346.993982 C164.597431,349.700547 159.746339,346.255828 157.545843,344.730309 C158.346023,346.009776 159.846361,346.501879 160.846586,347.436874 C155.84546,351.029224 143.492677,333.707209 141.442215,330.016438 C140.420302,327.824289 139.583944,325.552911 138.941652,323.225421 C138.057152,321.394803 136.855626,319.729617 135.390852,318.304394 C134.490649,317.221768 131.439962,314.564414 132.090108,312.842054 C132.390176,311.907059 136.591122,309.249704 137.591348,308.363919 C138.591573,307.478135 146.293308,301.671323 146.793421,303.738154 L147.54359,303 Z" id="Path" fill="url(#linearGradient-10)" fill-rule="nonzero"></path>
                            <path d="M66.3929368,136.747284 C68.2833304,133.556949 70.6951891,130.714058 73.5258623,128.339606 C73.8210178,128.687853 73.5258623,128.339606 73.8210178,128.339606 L73.083129,128.98635 C74.4493557,127.758978 76.1793055,127.024173 78.002388,126.896868 C89.513454,120.87717 104.418809,130.279839 110.961423,139.782008 C116.136304,147.034337 117.932151,156.206049 115.880682,164.905541 C114.109749,172.367977 114.404905,180.576657 113.322668,188.238091 C113.430573,192.379436 113.200226,196.522722 112.633971,200.625734 C111.568672,207.213475 110.878837,213.857719 110.567883,220.525563 C110.567883,224.853776 108.452601,231.37097 109.731609,235.450434 C110.92029,234.93648 112.301864,235.381049 112.978319,236.495175 C114.89683,238.783656 112.978319,238.733906 112.978319,241.470133 C112.978319,244.206359 114.89683,243.310867 116.766149,244.504857 C119.619319,246.39534 117.700808,246.047093 117.946771,248.73357 C118.192734,251.420047 142.198718,280.424047 145.396236,289.975965 C146.940028,293.378096 148.14305,296.928028 148.987295,300.572624 C148.987295,303.010353 149.233258,301.816363 147.56071,303.458099 C145.888162,305.099835 143.772881,306.642072 142.001948,308.084809 C139.0012,310.472789 135.803681,312.562271 132.704548,315 C129.457837,313.607012 127.785289,307.537564 124.538578,305.050086 C118.263493,299.877477 112.346504,294.275803 106.829246,288.28448 C101.909987,282.762277 96.9907277,277.041077 92.0714687,271.469125 C88.2772587,267.786455 84.9702858,263.622657 82.2329507,259.081481 C81.0459841,254.658948 80.1908822,250.152094 79.674936,245.599347 C78.3049,241.171494 76.6619294,236.834789 74.755677,232.614709 C69.4039051,218.632541 65.8173362,204.023539 64.080885,189.133583 C63.244611,181.770646 63.4413814,174.208711 62.162374,166.945274 C60.8948152,160.860698 60.6619154,154.602149 61.4736778,148.438433 C62.3328231,144.250737 64.0048447,140.276997 66.3929368,136.747284 L66.3929368,136.747284 Z" id="Path" fill="url(#linearGradient-11)" fill-rule="nonzero"></path>
                            <path d="M61.5008335,147.519945 C62.3606788,143.30538 64.0340627,139.306144 66.4241003,135.753783 C66.9656597,134.852545 67.6056844,133.901238 68.2949417,133 C72.2335552,193.833563 87.988009,258.171939 145.984092,291.367538 C147.349318,294.268097 148.357979,297.328653 148.987285,300.480055 C148.987285,302.933425 149.233448,301.731774 147.559538,303.384044 C145.885627,305.036314 143.768622,306.588446 141.996246,308.04044 C138.993053,310.443741 135.79293,312.54663 132.691272,315 C129.441916,313.598074 127.768005,307.489684 124.518649,304.986245 C118.238451,299.780447 112.316642,294.142832 106.794888,288.113067 C101.871621,282.555433 96.9483546,276.797524 92.0250878,271.189821 C88.2277866,267.483523 84.9181194,263.293009 82.1785542,258.722696 C80.9906204,254.271787 80.1348219,249.736016 79.6184554,245.154058 C78.2473031,240.697795 76.602994,236.333264 74.6951886,232.086107 C69.3390564,218.014227 65.7495655,203.311491 64.0116996,188.325997 C63.1747442,180.915818 63.3716749,173.305365 62.0916255,165.995323 C60.8726146,159.914694 60.6728712,153.668273 61.5008335,147.519945 L61.5008335,147.519945 Z" id="Path" fill="url(#linearGradient-12)" fill-rule="nonzero"></path>
                        </g>
                    </g>
                </g>
                <g id="men" mask="url(#mask-3)" fill-rule="nonzero">
                    <g transform="translate(349.000000, 362.000000)" id="Path">
                        <path d="M71.4962113,23 C69.6852291,23.3059407 67.7401,23 65.895581,23.4419143 C63.8103347,23.8765774 61.8212289,24.6945758 60.026657,25.8554463 C56.7124797,28.237129 54.0753091,31.4612427 52.3802874,35.2036337 C51.5251262,36.6359373 50.9342001,38.2140013 50.6363786,39.8607307 C50.6363786,41.2544604 51.3406495,42.4782231 51.1394292,43.8719529 C50.5726513,46.3105455 49.1400998,48.4523337 47.1150242,49.8887862 C46.4107533,50.5006676 44.9351381,51.2485226 45.0022116,52.370305 C45.069285,53.4920875 46.44429,54.1719557 46.9473406,54.7498436 C47.8595262,55.4664858 48.3921973,56.5714485 48.3894191,57.7412636 C48.3894191,58.353145 47.7522217,58.7610659 47.8863685,59.3729472 C48.0205153,59.9848286 48.8253963,60.1208022 48.858933,60.5287231 C48.8924697,60.936644 48.1546622,61.4465451 48.1881989,62.0244331 C48.2217356,62.602321 48.8924697,62.7722881 49.1607634,63.3161826 C49.7651856,64.3931833 49.4932126,65.7570579 48.523566,66.511563 C47.5174647,67.5653587 46.9808774,67.5653587 47.7186849,69.3330159 C48.1411449,70.4510352 49.0418333,71.3139642 50.1668647,71.6785611 C52.2504486,72.1468497 54.4156844,72.0884794 56.4717659,71.5085941 C59.1882393,71.2026534 59.8254367,72.834337 60.4626342,75.2818625 C61.9526828,80.0005459 62.7658783,84.9118186 62.8772772,89.8650348 C64.2187456,90.5449029 66.5327785,88.471305 67.5724164,87.7574434 C70.0541329,86.057773 72.4687759,84.3581026 75.0175657,82.6924255 C77.313958,81.7761323 79.5537969,80.7204238 81.7249074,79.5310385 C82.758509,78.5720946 83.3838536,77.2434256 83.4688163,75.825757 C83.901508,72.1232665 84.6305395,68.4625753 85.6487024,64.8798794 C86.1961054,63.5710704 87.0338663,62.4078245 88.0968821,61.4805386 C89.3296587,60.0416974 90.3466703,58.4266815 91.1151858,56.6874679 C94.0664162,50.3646939 96.4139858,43.0901045 93.9993428,36.0194755 C92.1528294,32.0788076 89.2615783,28.7362486 85.6487024,26.3653475 C82.9934463,24.661621 79.9360426,23.7107794 76.7950113,23.6118814 C75.6212265,23.6118814 71.764505,22.8640264 71.0602341,23.6118814 L71.4962113,23 Z" fill="url(#linearGradient-13)"></path>
                        <path d="M59.650288,28.2537067 C67.5708255,26.2349032 71.0423802,30.7435642 71.1771979,37.4392623 C71.5705664,40.1471455 71.7732898,42.8792273 71.7838773,45.6154161 C71.514242,46.8266982 70.2671787,47.2641056 69.8627257,48.4753877 C69.4582727,49.6866697 69.4919771,51.4699461 69.0201153,52.8494618 C66.9459627,57.2015636 63.6268896,60.8427824 59.4817659,63.3135929 C55.7405759,66.0053308 48.2581958,66.3754447 46,70.0429376 C50.7523225,72.196328 57.5269099,70.0429376 62.6499809,70.0429376 C70.4357008,70.0429376 70.5705184,68.4278949 73.1994628,62.0686641 C73.9072555,60.3526812 78.5247603,46.7594048 81.827793,52.3111142 C82.9400387,54.1280373 80.0751634,57.0553022 80.7155473,59.275986 C81.8726007,61.7418725 83.692853,63.8385687 85.973436,65.3323963 C92.4109792,55.0364988 120.212318,44.760681 111.415465,32.6142137 C92,28.2537067 114.666384,16.2744349 98.3808154,7.65149932 C90.0549094,3.24307156 62.4218605,-6.79524965 51.8723786,9.7346967 C41.3228968,26.2646431 57.5606143,28.825701 59.5154703,28.2537067 L59.650288,28.2537067 Z" fill="#280808"></path>
                        <path d="M49.0906478,65.3665479 C47.8345508,65.7294423 44.7452311,68.3356843 45.0168196,69.9192237 C45.458151,72.3275232 49.5659277,71.9646287 51.4670475,71.9976191 C53.8837112,71.9849711 56.2977833,71.8417918 58.6980924,71.5687439 C61.3269074,71.5003371 63.9232887,70.9867856 66.3704687,70.0511853 C66.9994052,69.8275914 67.559954,69.453091 68,68.9625019 C67.1852344,68.6325979 65.3859603,69.1604444 64.6051432,68.5996075 C63.8243262,68.0387706 64.8427832,66.2242984 64.0619661,65.3005671 C63.2811491,64.3768358 58.9017838,65.8284136 57.4419954,66.35626 C55.982207,66.8841065 48.5814193,69.3583868 49.5319791,65.1026247 C49.2019135,65.2204508 48.8926888,65.3873937 48.6153678,65.5974807 L49.0906478,65.3665479 Z" fill="#280808"></path>
                        <path d="M49.0782691,56 C48.3211911,56.4373079 47.9027636,57.2903409 48.0193018,58.1588785 C49.2230965,58.0341837 50.4364921,58.0341837 51.6402868,58.1588785 C52.8831443,58.4652978 53.9960976,59.1615856 54.8171886,60.1464174 C56.0792433,62.1964862 56.4144881,64.6876083 55.739515,67 C58.6772952,66.623053 58.3698531,60.1464174 56.9692834,58.2959502 C55.9655642,57.2285653 54.627079,56.5390685 53.1774973,56.3426791 C52.3576517,56.3426791 48.907468,56.3426791 48.9416282,56.1370717 L49.0782691,56 Z" fill="#280808"></path>
                        <path d="M83.054763,73 C81.2498041,78.0026118 66.6739094,84.593891 61.1568652,84.2220752 C61.9401492,88.8190699 57.3085565,92.5372273 55.4014301,96.6948034 C53.4943037,100.852379 35.955552,127.758319 34.7635979,131.848292 C31.97102,141.4817 28.9741071,235.449679 24.2062911,283.684322 C22.1288855,304.675011 19.7449775,325.462891 16.9864554,346.284573 C15.9988364,353.923696 15.7604456,361.596621 14.8068824,369.269546 C14.2619891,373.629931 9.63039639,381.066246 11.4012995,385.325226 C14.6366032,392.896747 41.2342054,393.944591 48.862711,395.09384 C64.9030063,397.561344 80.0578501,398.304976 95.7916429,393.167158 C104.203433,390.429242 111.831938,386.406872 120.345895,384.074573 C128.859853,381.742274 128.859853,380.390217 128.996076,372.277873 C129.088786,354.317138 127.538561,336.385129 124.364483,318.702605 C117.553317,277.059241 115.339689,257.589617 104.748326,208.509938 C101.342743,192.454258 101.342743,180.45475 98.958835,164.196262 C97.4944343,153.853024 95.0083588,99.7369322 92.999065,90.9823615 C91.2622177,83.4446423 91.2622177,77.4617889 82.9866513,74.0816458 L83.054763,73 Z" fill="#041D23"></path>
                        <path d="M124.264661,318.74457 C117.453354,277.105551 115.239679,257.637957 104.648097,208.563399 C101.242444,192.509393 101.957631,184.093715 99.6417867,167.836923 C98.1773558,157.494763 94.9079285,99.801739 92.83048,91.0480815 C91.0935968,83.5111486 91.0935968,77.5289193 82.8178591,74.1491288 L82.8178591,73 C81.1046194,75.8275421 78.5617381,78.0680953 75.5297608,79.421602 C77.1304179,86.1811831 79.4462622,92.6703809 80.4679582,99.429962 C82.0058436,110.968344 82.3709491,122.630934 81.5577673,134.241805 C81.0426571,149.87238 79.5869848,165.458452 77.198531,180.916712 C78.9694707,211.165837 78.5607923,241.752942 71.9878813,271.021928 C68.0590817,290.344802 60.8130885,308.853824 50.5663216,325.740737 C40.3493615,341.49056 26.2159,352.779061 15.0113004,367.176969 C15.0113004,367.886725 15.0113004,368.562683 14.8069612,369.272439 C14.2620566,373.632368 9.63036804,381.067908 11.4013078,385.326444 C14.6366785,392.897175 41.2348314,393.94491 48.8634949,395.094038 C64.9041223,397.561285 80.0592798,398.304839 95.7933984,393.167558 C104.205362,390.429927 111.834026,386.407977 120.348159,384.075921 C128.862293,381.743866 128.862293,380.39195 128.998519,372.280452 C129.055452,354.329797 127.471003,336.411039 124.264661,318.74457 L124.264661,318.74457 Z" fill="url(#linearGradient-14)" style="mix-blend-mode: multiply;"></path>
                        <path d="M35.5107437,208 C34.2528831,209.50811 33.7232576,211.427523 31.9688731,212.147303 C30.2144885,212.867083 28.3276976,213.24411 26.5733131,213.929615 C24.8877748,214.452757 23.5010168,215.701389 22.7666297,217.357138 C21.6411754,219.619303 19.4564702,220.78466 18.2648128,222.944 C20.1847053,225.788844 23.4286616,220.78466 24.3886078,219.516477 C23.1307472,221.778642 21.8066834,224.040807 20.7474324,226.371523 C19.4834975,228.563294 18.5566007,230.94535 18,233.43222 C18,234.768954 18,237.133945 19.390267,235.66011 C20.1185021,234.906055 20.5488228,232.883816 21.2439563,231.85556 C22.4025121,230.141798 24.5541158,226.577174 26.4409067,226.234422 C26.0436876,228.325211 19.8205877,234.768954 21.4425659,237.16822 C23.064544,239.567486 28.3939008,231.307156 29.3869487,229.799046 C30.0489806,233.226569 24.6534206,236.037137 23.39556,238.299303 C25.1830461,240.18444 28.1952912,237.785174 29.519355,236.722642 C29.0228311,237.613798 28.0959865,237.95655 27.5001577,238.573504 C30.5786061,241.041321 38.1588713,229.079266 39.4498335,226.542899 C40.0307272,225.029292 40.4955869,223.470662 40.8401005,221.881468 C41.3448263,220.626027 42.049783,219.467374 42.925501,218.453945 C43.4882281,217.69989 45.3419174,215.883303 44.9446983,214.649394 C44.7460887,213.998165 42.1972659,212.147303 41.6345388,211.564624 C41.0718117,210.981945 36.305182,206.937468 35.9741661,208.377028 L35.5107437,208 Z" fill="url(#linearGradient-15)"></path>
                        <path d="M88.3694948,97.8373955 C87.1795969,95.7318318 85.6451731,93.8393145 83.8296136,92.2380272 C83.6614699,92.4727313 83.8296136,92.2380272 83.6278411,92.2380272 L84.0986436,92.6739062 C83.2397432,91.8545025 82.1227652,91.3569053 80.9375412,91.2656818 C73.6401025,87.2421837 64.1231665,93.5456641 60.020459,99.8826738 C56.7839152,104.834977 55.7037032,110.88561 57.0275003,116.64725 C58.1372491,121.643093 58.0027341,127.141874 58.6753091,132.271834 C58.6003924,135.039594 58.7465787,137.808907 59.1124828,140.553535 C59.7975895,144.996527 60.2354334,149.473934 60.424004,153.965195 C61.0791566,157.275918 61.2603119,160.66252 60.962064,164.023941 C60.1992136,163.653095 59.2787846,163.949128 58.8770815,164.694524 C57.6664466,166.236865 58.8770815,166.203335 58.8770815,167.879793 C58.8770815,169.556251 57.6328178,169.120372 56.4558116,169.891542 C54.6398591,171.16565 55.8504941,170.930946 55.7159791,172.74152 C55.5814641,174.552094 40.3140119,193.831356 38.2626582,200.235424 C37.2974272,202.52043 36.5432605,204.888458 36.009532,207.310075 C36.009532,208.953004 35.8413882,208.148304 36.9175082,209.254766 C37.9840883,210.350985 39.1065303,211.391764 40.2803831,212.372977 C42.1972218,213.982376 44.2149468,215.357072 46.1654143,217 C48.216768,216.094713 49.5282892,212.004156 51.3442417,210.29417 C55.4073091,206.86175 59.2276643,203.153537 62.7780165,199.196021 C65.9391189,195.474285 69.0329639,191.685491 72.1604376,187.930226 C74.6593647,185.419452 76.8289062,182.602894 78.6171574,179.547938 C79.350521,176.581121 79.8786144,173.56758 80.1977087,170.528596 C81.0434526,167.575744 82.0653444,164.675897 83.2579249,161.844546 C86.6529684,152.456255 88.9108855,142.697174 89.9836747,132.774771 C90.5217347,127.845986 90.3872197,122.716026 91.1943097,117.921357 C92.0194106,113.896115 92.2122735,109.767499 91.7659985,105.683217 C91.1453745,102.876122 89.9925381,100.213104 88.3694948,97.8373955 Z" fill="url(#linearGradient-16)"></path>
                        <path d="M91.7539123,105.65586 C91.1429684,102.851318 90.0004802,100.188598 88.3877063,97.8104738 C88.0174237,97.2069825 87.647141,96.6034913 87.2095342,96 C84.6848797,136.400388 74.6199239,179.047104 37.8946167,201.242172 C37.032382,203.185434 36.3997813,205.221904 36.0095414,207.310612 C36.0095414,208.95345 35.8412311,208.148795 36.918417,209.255195 C37.9860536,210.351353 39.1096074,211.392075 40.284623,212.373234 C42.2033604,213.982544 44.223084,215.357163 46.1754834,217 C48.2288691,216.094763 49.5416894,212.004433 51.3594406,210.294541 C55.4160917,206.850368 59.228983,203.131158 62.7708789,199.16348 C65.9351125,195.441951 69.032022,191.653367 72.1625935,187.89831 C74.6639959,185.387675 76.8356864,182.571274 78.625709,179.516487 C79.359799,176.549834 79.8884155,173.536461 80.2078258,170.497645 C81.0544075,167.544957 82.0773115,164.64527 83.2710732,161.814076 C86.6694797,152.426306 88.9296333,142.667766 90.0034852,132.745913 C90.5420781,127.817401 90.4074299,122.687725 91.2153193,117.893322 C92.0300052,113.866557 92.2117025,109.738182 91.7539123,105.65586 L91.7539123,105.65586 Z" fill="url(#linearGradient-17)" style="mix-blend-mode: multiply;"></path>
                    </g>
                </g>
            </g>
        </g>
    </g>
</svg>