<?xml version="1.0" encoding="UTF-8"?>
<svg width="154px" height="154px" viewBox="0 0 154 154" version="1.1" xmlns="http://www.w3.org/2000/svg" xmlns:xlink="http://www.w3.org/1999/xlink">
    <!-- Generator: Sketch 55.2 (78181) - https://sketchapp.com -->
    <title>Img/add-product/active</title>
    <desc>Created with Sketch.</desc>
    <defs>
        <circle id="path-1" cx="75" cy="75" r="75"></circle>
        <linearGradient x1="50%" y1="34.5342561%" x2="52.9422022%" y2="68.2768647%" id="linearGradient-3">
            <stop stop-color="#EBEBEB" offset="0%"></stop>
            <stop stop-color="#D2D2D2" offset="100%"></stop>
        </linearGradient>
        <linearGradient x1="50%" y1="0%" x2="50%" y2="100%" id="linearGradient-4">
            <stop stop-color="#5C20D2" offset="0%"></stop>
            <stop stop-color="#39A4E9" offset="100%"></stop>
        </linearGradient>
    </defs>
    <g id="landing-page" stroke="none" stroke-width="1" fill="none" fill-rule="evenodd">
        <g id="HomeV2" transform="translate(-761.000000, -2973.000000)">
            <g id="Img/add-product/active" transform="translate(763.000000, 2975.000000)">
                <g id="Group-4">
                    <g id="image/border/3">
                        <mask id="mask-2" fill="white">
                            <use xlink:href="#path-1"></use>
                        </mask>
                        <use id="Oval" stroke="#5C20D2" stroke-width="3" fill="#FFFFFF" fill-rule="evenodd" xlink:href="#path-1"></use>
                    </g>
                    <g id="Group-21-Copy-2" transform="translate(22.222222, 33.333333)">
                        <g id="Asset-16">
                            <path d="M31.5309735,26.5486726 L30.6460177,19.4690265 C30.6460177,19.4690265 67.8141593,2.65486726 70.4690265,3.53982301 C73.1238938,4.42477876 86.3982301,33.6283186 86.3982301,33.6283186 L34.1858407,34.5132743 L31.5309735,26.5486726 Z" id="Path" fill="url(#linearGradient-3)"></path>
                            <path d="M30.6460177,27.4336283 C30.0560472,22.9858015 29.7610619,20.1778173 29.7610619,19.0096757 C29.7610619,17.2574634 58.079646,4.42477876 66.9292035,4.42477876 C66.9292035,4.42477876 73.1238938,3.53982301 77.5486726,21.2389381" id="Path" stroke="#282540"></path>
                            <polygon id="Path" fill="#39A4E9" points="44.8053097 10.6017699 58.9646018 31.840708 63.3893805 27.4159292 49.2300885 8.83185841"></polygon>
                            <path d="M20.9115044,26.5486726 C20.9115044,26.5486726 28.8761062,62.8318584 38.6106195,67.2566372 C48.3451327,71.6814159 81.8449995,66.9677114 86.3982301,64.4023272 C90.9514607,61.8369431 102.327434,30.9734513 98.7876106,25.6637168 L20.9115044,26.5486726 Z" id="Path" fill="url(#linearGradient-4)"></path>
                            <path d="M18.2566372,25.6637168 C18.2566372,25.6637168 2.32743363,22.1238938 2.32743363,19.4690265 C2.32743363,15.0442478 18.2566372,15.0442478 18.2566372,25.6637168 Z" id="Path" fill="#39A4E9"></path>
                            <path d="M17.3716814,21.2389381 C17.3716814,21.2389381 -1.21238938,11.5044248 0.557522124,19.4690265 C1.05382752,21.2389381 4.98230088,22.1238938 12.0619469,22.1238938 C19.1415929,22.1238938 25.3362832,46.0176991 27.9911504,56.6371681 C27.9911504,56.6371681 30.6460177,65.4867257 38.6106195,67.2566372 C46.5752212,68.1415929 82.8584071,69.9115044 87.2831858,61.0619469 C91.7079646,52.2123894 97.9026549,24.7787611 97.9026549,24.7787611 L20.9115044,26.5486726" id="Path" stroke="#282540"></path>
                            <path d="M22.6814159,39.8053097 L94.3628319,39.8053097" id="Path" stroke="#282540"></path>
                            <path d="M29.7610619,54.8495575 L89.0530973,55.7345133" id="Path" stroke="#282540"></path>
                            <path d="M37.7256637,73.4513274 C37.7256637,73.4513274 66.0442478,69.0265487 77.5486726,72.5663717" id="Path" stroke="#282540"></path>
                            <circle id="Oval" stroke="#282540" cx="80.2035398" cy="79.6283186" r="6.19469027"></circle>
                            <circle id="Oval-Copy-4" fill="#282540" cx="80.5309735" cy="80.5309735" r="6.19469027"></circle>
                            <circle id="Oval-Copy-5" fill="#282540" cx="38.0530973" cy="79.6460177" r="6.19469027"></circle>
                            <circle id="Oval" stroke="#282540" cx="36.840708" cy="79.6283186" r="6.19469027"></circle>
                            <path d="M43.920354,10.619469 C43.920354,10.619469 33.300885,8.84955752 38.6106195,6.19469027 C43.920354,3.53982301 47.460177,8.84955752 47.460177,8.84955752 C47.460177,8.84955752 49.2300885,-1.7699115 51.8849558,0.884955752 C54.539823,3.53982301 51,7.07964602 51,7.07964602" id="Path" stroke="#282540"></path>
                            <path d="M51,8.83185841 L60.7345133,23.8761062" id="Path" stroke="#282540"></path>
                        </g>
                    </g>
                </g>
            </g>
        </g>
    </g>
</svg>