<?xml version="1.0" encoding="UTF-8"?>
<svg width="1320px" height="788px" viewBox="0 0 1320 788" version="1.1" xmlns="http://www.w3.org/2000/svg" xmlns:xlink="http://www.w3.org/1999/xlink">
    <!-- Generator: Sketch 55.2 (78181) - https://sketchapp.com -->
    <title>Group 2</title>
    <desc>Created with Sketch.</desc>
    <g id="landing-page" stroke="none" stroke-width="1" fill="none" fill-rule="evenodd" fill-opacity="0.0485686189">
        <g id="HomeV2" fill="#4A68DF">
            <g id="Group-2" transform="translate(-95.000000, -676.000000)">
                <path d="M240.575946,526.321063 C433.276154,777.378643 -173.722494,366.329 50.4481454,784.002715 C230.359662,1119.21303 958.435461,1546.84761 1203.82722,1346.75558 C1264.19481,1297.53195 1273.18739,1205.19028 1263.84497,1116.972 C1238.83757,880.832889 1215.87258,494.528839 1098.79615,268.270889 C967.744017,15.0039455 821.146752,9.74525857 626.190003,0.717360535 C257.067159,-16.3756789 47.8757385,275.263483 240.575946,526.321063 Z" id="Path-4"></path>
                <path d="M360.611956,535.233431 C553.24393,786.249209 -56.8896191,333.4131 167.201644,751.017272 C347.049456,1086.17178 1082.03129,1603.38427 1340.05003,1429.03305 C1377.04788,1404.03247 1445.24187,1398.54232 1400.04653,970.172184 C1354.8512,541.802053 1335.56324,503.4465 1218.52828,277.226221 C1087.52254,24.0014473 940.977187,18.743636 746.08947,9.71724109 C377.097329,-7.37295235 167.979981,284.217652 360.611956,535.233431 Z" id="Path-4-Copy-7"></path>
            </g>
        </g>
    </g>
</svg>