<?xml version="1.0" encoding="utf-8"?>
<!-- Generator: Adobe Illustrator 17.0.0, SVG Export Plug-In . SVG Version: 6.00 Build 0)  -->
<!DOCTYPE svg PUBLIC "-//W3C//DTD SVG 1.1//EN" "http://www.w3.org/Graphics/SVG/1.1/DTD/svg11.dtd">
<svg version="1.1" id="Layer_1" xmlns="http://www.w3.org/2000/svg" xmlns:xlink="http://www.w3.org/1999/xlink" x="0px" y="0px"
	 width="514.141px" height="239.586px" viewBox="0 0 514.141 239.586" style="enable-background:new 0 0 514.141 239.586;"
	 xml:space="preserve">
<g>
	<path style="fill:#FFFFFF;" d="M193.984,127.443v28.884h-6.496c-16.628,0-29.156-3.48-37.584-10.44
		c-8.12,6.96-17.71,10.44-28.768,10.44c-12.297,0-22.814-4.33-31.553-12.992c-4.64-4.716-8.082-10.014-10.323-15.892h-2.553
		c-9.59,0-14.384,7.231-14.384,21.692v47.096H33.44v-47.096c0-33.716,14.422-50.576,43.268-50.576h1.624
		c2.088-6.804,5.838-12.952,11.252-18.444c8.738-8.66,19.256-12.992,31.553-12.992c12.296,0,22.812,4.332,31.552,12.992
		c6.34,6.342,10.4,13.688,12.18,22.04v0.232c0.154,0.928,0.309,2.088,0.464,3.48l0.116,0.58l0.116,0.58
		c0.154,1.548,0.231,3.132,0.231,4.756v1.16c0,9.667,7.23,14.5,21.692,14.5H193.984z M121.136,127.443
		c4.33,0,8.042-1.546,11.136-4.64c3.092-3.092,4.64-6.766,4.64-11.02c0-4.33-1.548-8.042-4.64-11.136
		c-3.094-3.092-6.806-4.64-11.136-4.64c-4.332,0-8.044,1.548-11.137,4.64c-3.094,3.094-4.64,6.806-4.64,11.136
		c0,4.254,1.546,7.928,4.64,11.02C113.092,125.896,116.804,127.443,121.136,127.443z"/>
	<path style="fill:#FFFFFF;" d="M284.811,127.327v29h-10.904c-12.22,0-21.848-3.054-28.884-9.164
		c-7.116,6.11-16.744,9.164-28.885,9.164h-23.199v-29h23.199c9.589,0,14.385-7.192,14.385-21.576V69.559h28.884v36.192v0.232
		c0.076,14.23,4.91,21.344,14.5,21.344H284.811z M218.111,166.303c4.02,0,7.424,1.43,10.208,4.292
		c2.784,2.784,4.176,6.186,4.176,10.208c0,4.02-1.392,7.424-4.176,10.208c-2.784,2.784-6.188,4.176-10.208,4.176
		c-4.022,0-7.424-1.392-10.208-4.176c-2.862-2.784-4.292-6.188-4.292-10.208c0-4.022,1.43-7.424,4.292-10.208
		C210.687,167.733,214.088,166.303,218.111,166.303z M251.17,166.535c4.021,0,7.462,1.43,10.324,4.292
		c2.784,2.784,4.176,6.186,4.176,10.208c0,4.02-1.392,7.424-4.176,10.208c-2.862,2.784-6.304,4.176-10.324,4.176
		c-3.943,0-7.308-1.392-10.092-4.176c-2.862-2.784-4.292-6.188-4.292-10.208c0-4.022,1.43-7.424,4.292-10.208
		C243.862,167.965,247.227,166.535,251.17,166.535z"/>
	<path style="fill:#FFFFFF;" d="M376.333,127.443v28.884h-10.904c-12.22,0-21.848-3.016-28.884-9.048
		c-7.116,6.032-16.744,9.048-28.884,9.048h-23.2v-28.884h23.2c9.666,0,14.5-7.23,14.5-21.692V69.559h28.884v36.192v0.232
		c0,14.308,4.794,21.46,14.384,21.46H376.333z M309.633,61.438c-3.944,0-7.348-1.43-10.208-4.292
		c-2.784-2.784-4.176-6.186-4.176-10.208c0-4.02,1.392-7.424,4.176-10.208c2.86-2.784,6.264-4.176,10.208-4.176
		c4.021,0,7.462,1.392,10.324,4.176c2.784,2.784,4.176,6.188,4.176,10.208c0,4.022-1.392,7.424-4.176,10.208
		C317.095,60.009,313.653,61.438,309.633,61.438z M328.309,47.171c0-4.021,1.431-7.424,4.292-10.208
		c2.784-2.86,6.187-4.292,10.208-4.292c4.021,0,7.425,1.432,10.208,4.292c2.784,2.784,4.177,6.188,4.177,10.208
		c0,3.944-1.393,7.348-4.177,10.208c-2.783,2.784-6.188,4.176-10.208,4.176c-4.021,0-7.424-1.392-10.208-4.176
		C329.739,54.519,328.309,51.115,328.309,47.171z"/>
	<path style="fill:#FFFFFF;" d="M442.567,69.559v36.192c0,33.718-14.462,50.576-43.383,50.576h-23.2v-28.884h23.2
		c9.666,0,14.5-7.23,14.5-21.692V69.559H442.567z M422.499,59.814c-4.021,0-7.424-1.392-10.208-4.176
		c-2.861-2.86-4.292-6.302-4.292-10.324c0-3.944,1.431-7.308,4.292-10.092c2.784-2.86,6.186-4.292,10.208-4.292
		c4.021,0,7.425,1.432,10.208,4.292c2.784,2.784,4.177,6.148,4.177,10.092c0,4.022-1.393,7.464-4.177,10.324
		C429.923,58.423,426.519,59.814,422.499,59.814z"/>
	<path style="fill:#FFFFFF;" d="M453.818,39.631h28.884v116.696h-28.884V39.631z"/>
</g>
</svg>
