<?xml version="1.0" encoding="UTF-8"?>
<svg width="200px" height="189px" viewBox="0 0 200 189" version="1.1" xmlns="http://www.w3.org/2000/svg" xmlns:xlink="http://www.w3.org/1999/xlink">
    <!-- Generator: Sketch 55.2 (78181) - https://sketchapp.com -->
    <title>Path 4 Copy 11</title>
    <desc>Created with Sketch.</desc>
    <defs>
        <path d="M29.2861091,92.1096335 C53.1611849,125.604015 -53.3411298,169.155047 38.1097561,182.98822 C99.0770134,192.210336 138.050899,189.063871 155.031413,173.548824 C200.712828,146.024175 211.109449,100.606107 186.221276,37.2946198 C148.889017,-57.6726105 5.41103333,58.6152525 29.2861091,92.1096335 Z" id="path-1"></path>
        <linearGradient x1="49.1875566%" y1="0%" x2="50%" y2="99.8126056%" id="linearGradient-3">
            <stop stop-color="#CCCCCC" offset="0%"></stop>
            <stop stop-color="#D9D7D7" offset="100%"></stop>
        </linearGradient>
        <linearGradient x1="46.9982933%" y1="2.60193495%" x2="47.6869361%" y2="85.7308502%" id="linearGradient-4">
            <stop stop-color="#D4D4D4" offset="0%"></stop>
            <stop stop-color="#F4F4F4" offset="100%"></stop>
        </linearGradient>
    </defs>
    <g id="landing-page" stroke="none" stroke-width="1" fill="none" fill-rule="evenodd">
        <g id="HomeV2" transform="translate(-193.000000, -1416.000000)">
            <g id="Path-4-Copy-11" transform="translate(193.000000, 1416.000000)">
                <mask id="mask-2" fill="white">
                    <use xlink:href="#path-1"></use>
                </mask>
                <use id="Path-4-Copy-5" fill="#000000" xlink:href="#path-1"></use>
                <g id="bookWithMen" mask="url(#mask-2)" fill-rule="nonzero">
                    <g transform="translate(144.390244, -96.935567) scale(-1, 1) translate(-144.390244, 96.935567) translate(53.658537, -362.412371)" id="Path">
                        <polygon fill="#39A4E9" points="13.4360512 496.266143 35.1924613 506.65438 56.729994 469.338738 28.8012422 455.988942"></polygon>
                        <path d="M40.2682818,496.086155 C41.0518384,497.196777 41.5473283,498.507072 41.7050905,499.885713 C42.2275664,501.646484 42.7935819,503.453591 43.3595974,505.168026 C44.0794375,508.37105 45.3810377,511.3933 47.1910873,514.064552 C49.903313,517.375534 53.5051596,519.720729 57.509986,520.783283 C59.4683316,521.214655 61.2150229,522.382622 62.4299672,524.073144 C62.9959828,525.231546 62.6912052,529.355457 61.3850154,530.189506 C60.0788257,531.023556 57.7712239,529.91149 57.0310497,529.772482 C55.4636221,529.494465 34.3904281,527.223997 24.245688,515.871659 C19.8917223,511.238052 13.83971,509.430945 8.17955458,506.604444 C6.91690453,506.002075 4.52222339,504.565657 4.47868373,502.851222 C5.07616737,500.762663 5.98780883,498.79098 7.17814247,497.012877 C9.26110078,493.242669 12.0113315,489.938139 15.2765187,487.282301 C16.0602325,487.88467 16.3214704,489.784449 16.8439463,490.711171 C17.6687141,492.056088 18.6651483,493.272466 19.804643,494.325384 C21.4274302,496.02995 23.2579377,497.494903 25.2471001,498.680975 C29.1221296,500.812435 32.3876039,497.754254 36.3497127,496.225164 C37.830061,495.622795 39.9199645,495.391114 40.7036784,496.73486 L40.2682818,496.086155 Z" fill="#5C20D2"></path>
                        <polygon fill="#39A4E9" points="116.504728 515.59534 141.824985 510.689433 131.01305 472.380702 98.5310421 478.65173"></polygon>
                        <path d="M139.680246,502.183901 C141.098182,502.548131 142.422237,503.238986 143.557513,504.206949 L148.638071,507.217998 C151.502339,509.211196 154.667219,510.674913 157.996992,511.546381 C162.303512,512.402671 166.751368,511.962468 170.832085,510.276095 C172.780134,509.366195 174.959856,509.16754 177.0268,509.711523 C178.274656,510.229047 181.037766,513.56943 180.592103,514.980859 C180.14644,516.392288 177.606162,517.003907 176.848535,517.474384 C176.090908,517.94486 157.373064,529.565628 141.1955,527.166198 C134.700854,526.910844 128.217811,527.931861 122.07656,530.177247 C120.650439,530.50658 117.619931,530.882962 116.505773,529.612675 C115.501789,527.710007 114.808733,525.64232 114.455724,523.496482 C113.389349,519.438306 113.1764,515.183059 113.831796,511.028857 C114.85682,511.028857 116.416641,512.299143 117.486232,512.628477 C119.07874,513.14824 120.724629,513.464154 122.388524,513.56943 C124.830872,513.87948 127.299614,513.87948 129.741962,513.56943 C134.198592,512.76962 134.644255,508.394189 136.649738,504.771521 C137.407365,503.407139 138.833486,501.901615 140.482439,502.372091 L139.680246,502.183901 Z" fill="#5C20D2"></path>
                        <path d="M64.549032,74.5079971 C67.0775642,81.1272828 87.527623,89.8789558 95.2906605,89.3902837 C94.1816552,95.4764725 100.702607,100.407618 103.36422,105.916286 C106.025832,111.424953 121.818069,130.705288 123.503757,136.125106 C127.451816,148.91943 140.493719,289.656994 147.236471,353.539764 C150.164246,381.349649 153.491262,408.848561 157.3506,436.436322 C158.770127,446.565162 159.080649,456.694002 160.411455,466.867266 C161.165579,472.598057 167.68653,482.460348 165.113638,488.146715 C160.677616,498.186705 123.281956,499.519447 112.502424,501.074313 C90.011795,504.361743 68.7188922,505.516787 46.6718656,498.542103 C34.8720486,494.943699 24.181237,489.657156 12.2039791,486.502999 C0.226721273,483.348843 0.271081487,481.571854 0.00492020108,471.043191 C-0.118501166,447.192627 2.08033733,423.386825 6.57023192,399.963614 C16.2851188,344.832516 19.212893,319.021744 34.0735648,254.07278 C38.9531884,232.793332 45.3854194,217.1114 48.5793549,195.565403 C50.6199247,181.882584 40.5945163,133.903869 43.3892098,122.353438 C45.8290216,112.357872 53.0153763,80.3276375 64.5933922,76.1072876 L64.549032,74.5079971 Z" fill="url(#linearGradient-3)"></path>
                        <path d="M6.56320415,399.975836 C16.2676997,344.827612 19.1923422,319.008823 34.0371184,254.039683 C38.9115226,232.753624 45.3368735,217.066821 48.5273925,195.514131 C50.5657797,181.827062 40.4624693,130.456114 43.2984863,118.902095 C45.7356884,108.903424 52.958669,80.2405683 64.5686135,76.0189073 L64.5686135,74.5079971 C67.0471521,78.3199362 70.6146078,81.2935101 74.8048622,83.040196 C72.5449111,91.9279033 69.3100793,100.593418 67.8477581,109.703318 C65.7469978,124.896182 65.2864356,140.271963 66.4740624,155.563887 C67.1973614,176.278151 69.2399108,196.924891 72.5892239,217.377891 C70.1077091,257.372573 70.6394623,298.033834 79.9008301,336.739799 C85.6067372,362.514447 95.8884713,387.049912 110.255074,409.174613 C124.390846,430.016286 144.375903,444.992073 160.106935,464.056205 C160.106935,464.989414 160.106935,465.922623 160.417124,466.855833 C161.170441,472.588404 167.684417,482.453759 165.114277,488.141891 C160.683001,498.185 123.32734,499.518157 112.559338,501.073505 C90.0927661,504.361957 68.8226389,505.517359 46.7991947,498.540509 C35.0119992,494.940987 24.3326229,489.652802 12.3681764,486.497665 C0.403729823,483.342529 0.270791528,481.609427 0.00491493825,471.077493 C-0.118374412,447.219521 2.07811212,423.406323 6.56320415,399.975836 L6.56320415,399.975836 Z" fill="url(#linearGradient-4)"></path>
                    </g>
                </g>
            </g>
        </g>
    </g>
</svg>