<svg width="102" height="121" viewBox="0 0 102 121" fill="none" xmlns="http://www.w3.org/2000/svg">
<path d="M36.0312 -16.5C37.4427 -12.7983 48.8579 -7.90419 53.1912 -8.17747C52.5722 -4.77392 56.2122 -2.01631 57.6979 1.06427C59.1836 4.14485 67.9988 14.9269 68.9398 17.9578C71.1436 25.1127 78.4236 103.817 82.1874 139.541C83.8216 155.093 85.6788 170.471 87.8331 185.899C88.6254 191.563 88.7988 197.228 89.5416 202.917C89.9626 206.122 93.6026 211.637 92.1664 214.817C89.6902 220.431 68.8159 221.177 62.7988 222.046C50.2446 223.885 38.3589 224.53 26.0522 220.63C19.4656 218.618 13.498 215.661 6.81226 213.898C0.126556 212.134 0.151318 211.14 0.00274645 205.252C-0.0661473 191.914 1.16124 178.601 3.6675 165.503C9.09035 134.672 10.7246 120.238 19.0199 83.917C21.7437 72.017 25.3341 63.2473 27.117 51.1982C28.256 43.5465 22.6598 16.7156 24.2198 10.2563C25.5817 4.66656 29.5932 -13.2455 36.056 -15.6056L36.0312 -16.5Z" fill="url(#paint0_linear)"/>
<path d="M3.66358 165.509C9.08063 134.669 10.7132 120.231 18.9995 83.8984C21.7204 71.9948 25.307 63.2223 27.088 51.1695C28.2258 43.5154 22.5861 14.7875 24.1692 8.32625C25.5296 2.73475 29.5615 -13.2942 36.0422 -15.6551V-16.5C37.4257 -14.3683 39.4171 -12.7054 41.7561 -11.7286C40.4945 -6.75837 38.6889 -1.9124 37.8726 3.18207C36.7 11.6783 36.4429 20.2768 37.1058 28.8284C37.5095 40.4123 38.6497 51.9585 40.5193 63.3963C39.1341 85.7623 39.4309 108.501 44.6006 130.146C47.7857 144.56 53.5249 158.281 61.5443 170.654C69.4349 182.309 80.5906 190.684 89.3716 201.345C89.3716 201.867 89.3716 202.388 89.5448 202.91C89.9653 206.116 93.6014 211.633 92.1667 214.814C89.6932 220.43 68.8413 221.176 62.8306 222.046C50.2898 223.885 38.4168 224.531 26.1233 220.629C19.5437 218.616 13.5825 215.659 6.90391 213.895C0.225362 212.13 0.151156 211.161 0.00274352 205.271C-0.0660766 191.929 1.16 178.612 3.66358 165.509Z" fill="url(#paint1_linear)"/>
<path d="M33.6792 93.5236C33.7342 96.2756 36.0032 98.4656 38.7555 98.4231L96.4811 97.5308C99.2498 97.488 101.456 95.2032 101.403 92.4347L100.843 63.4796C100.789 60.7263 98.5199 58.5344 95.7664 58.5769L38.0221 59.4691C35.2522 59.5119 33.045 61.7987 33.1004 64.5685L33.6792 93.5236Z" fill="#4F1FAE"/>
<path d="M31.6792 96.0236C31.7342 98.7756 34.0032 100.966 36.7555 100.923L94.4811 100.031C97.2498 99.988 99.4565 97.7032 99.4029 94.9347L98.8428 65.9796C98.7895 63.2263 96.5199 61.0344 93.7664 61.0769L36.0221 61.9691C33.2522 62.0119 31.045 64.2987 31.1004 67.0685L31.6792 96.0236Z" fill="#5C20D2"/>
<path d="M31.73 96.9741C31.7568 99.1933 33.5853 100.966 35.8043 100.925L94.5318 99.83C94.5318 99.83 82.7354 78.6833 70.476 72.4079C58.2166 66.1325 31.3734 67.5001 31.3734 67.5001L31.73 96.9741Z" fill="black" fill-opacity="0.0962358"/>
<rect x="52.5" y="89.5" width="40" height="3" rx="1.5" fill="#441997"/>
<rect x="81.5" y="67.5" width="11" height="2.5" rx="1.25" fill="#441997"/>
<path fill-rule="evenodd" clip-rule="evenodd" d="M41 94.5C42.933 94.5 44.5 92.933 44.5 91C44.5 89.067 42.933 87.5 41 87.5C39.067 87.5 37.5 89.067 37.5 91C37.5 92.933 39.067 94.5 41 94.5Z" fill="black"/>
<path fill-rule="evenodd" clip-rule="evenodd" d="M44.5 94.5C46.433 94.5 48 92.933 48 91C48 89.067 46.433 87.5 44.5 87.5C42.567 87.5 41 89.067 41 91C41 92.933 42.567 94.5 44.5 94.5Z" fill="#39A4E9"/>
<path d="M73.7718 84.5C74.797 85.5826 75.2221 86.9605 76.6474 87.5018C78.0728 88.0431 79.5981 88.2646 81.0484 88.7813C82.3837 89.1436 83.5064 90.0345 84.1491 91.2418C85.0493 92.8904 86.9248 93.7023 87.8 95.3017C86.2246 97.3439 83.599 93.7515 82.7988 92.8411C83.8241 94.4651 84.8993 96.1136 85.7495 97.7622C86.7905 99.3473 87.5514 101.094 88 102.929C88 103.889 88 105.587 86.8747 104.553C86.2746 104.012 85.8995 102.536 85.3744 101.822C84.4242 100.567 82.6738 98.0082 81.1485 97.7622C81.4735 99.2631 86.6247 103.938 85.2244 105.685C83.8241 107.432 79.5731 101.453 78.7729 100.346C78.2478 102.806 82.6238 104.848 83.774 106.497C82.2987 107.85 79.8732 106.128 78.7729 105.365C79.173 106.005 79.9232 106.251 80.4233 106.718C77.9227 108.515 71.7463 99.8536 70.7211 98.0082C70.2102 96.9121 69.792 95.7765 69.4708 94.6127C69.0286 93.6974 68.4278 92.8648 67.6954 92.1522C67.2453 91.6109 65.72 90.2822 66.0451 89.421C66.1951 88.9535 68.2956 87.6249 68.7957 87.182C69.2958 86.7391 73.1467 83.8357 73.3967 84.8691L73.7718 84.5Z" fill="url(#paint2_linear)"/>
<path d="M33.1965 1.37364C34.1417 -0.221525 35.3476 -1.64297 36.7629 -2.8302C36.9105 -2.65607 36.7629 -2.8302 36.9105 -2.8302L36.5416 -2.50682C37.2247 -3.12051 38.0897 -3.48791 39.0012 -3.55157C44.7567 -6.56141 52.2094 -1.86008 55.4807 2.891C58.0682 6.51717 58.9661 11.103 57.9403 15.4528C57.0549 19.184 57.2025 23.2883 56.6613 27.119C56.7153 29.1897 56.6001 31.2614 56.317 33.3129C55.7843 36.6067 55.4394 39.9289 55.2839 43.2628C55.2839 45.4269 54.2263 48.6855 54.8658 50.7252C55.4601 50.4682 56.1509 50.6905 56.4892 51.2476C57.4484 52.3918 56.4892 52.367 56.4892 53.7351C56.4892 55.1032 57.4484 54.6554 58.3831 55.2524C59.8097 56.1977 58.8504 56.0235 58.9734 57.3668C59.0964 58.71 71.0994 73.212 72.6981 77.988C73.47 79.689 74.0715 81.464 74.4936 83.2863C74.4936 84.5052 74.6166 83.9082 73.7804 84.729C72.9441 85.5499 71.8864 86.321 71.001 87.0424C69.5006 88.2364 67.9018 89.2811 66.3523 90.5C64.7289 89.8035 63.8926 86.7688 62.2693 85.525C59.1317 82.9387 56.1733 80.1379 53.4146 77.1422C50.955 74.3811 48.4954 71.5205 46.0357 68.7346C44.1386 66.8932 42.4851 64.8113 41.1165 62.5407C40.523 60.3295 40.0954 58.076 39.8375 55.7997C39.1525 53.5857 38.331 51.4174 37.3778 49.3074C34.702 42.3163 32.9087 35.0118 32.0404 27.5668C31.6223 23.8853 31.7207 20.1044 31.0812 16.4726C30.4474 13.4303 30.331 10.3011 30.7368 7.21922C31.1664 5.12537 32.0024 3.1385 33.1965 1.37364Z" fill="url(#paint3_linear)"/>
<path d="M30.7504 6.75997C31.1803 4.65269 32.017 2.65307 33.2121 0.876891C33.4828 0.426272 33.8028 -0.049381 34.1475 -0.5C36.1168 29.9168 43.994 62.086 72.992 78.6838C73.6747 80.134 74.179 81.6643 74.4936 83.24C74.4936 84.4667 74.6167 83.8659 73.7798 84.692C72.9428 85.5182 71.8843 86.2942 70.9981 87.0202C69.4965 88.2219 67.8965 89.2733 66.3456 90.5C64.721 89.799 63.884 86.7448 62.2593 85.4931C59.1192 82.8902 56.1583 80.0714 53.3974 77.0565C50.9358 74.2777 48.4742 71.3988 46.0125 68.5949C44.1139 66.7418 42.4591 64.6465 41.0893 62.3613C40.4953 60.1359 40.0674 57.868 39.8092 55.577C39.1237 53.3489 38.3015 51.1666 37.3476 49.0431C34.6695 42.0071 32.8748 34.6557 32.0058 27.163C31.5874 23.4579 31.6858 19.6527 31.0458 15.9977C30.4363 12.9573 30.3364 9.83414 30.7504 6.75997Z" fill="url(#paint4_linear)"/>
<defs>
<linearGradient id="paint0_linear" x1="-4.95392" y1="-9.96086" x2="28.4106" y2="225.577" gradientUnits="userSpaceOnUse">
<stop stop-color="#CCCCCC"/>
<stop offset="1" stop-color="#D9D7D7"/>
</linearGradient>
<linearGradient id="paint1_linear" x1="-10.8204" y1="-4.71265" x2="17.4431" y2="191.338" gradientUnits="userSpaceOnUse">
<stop stop-color="#D4D4D4"/>
<stop offset="1" stop-color="#F4F4F4"/>
</linearGradient>
<linearGradient id="paint2_linear" x1="60.7787" y1="80.0979" x2="63.346" y2="108.245" gradientUnits="userSpaceOnUse">
<stop stop-color="#EAEAEA"/>
<stop offset="1" stop-color="#A7A7A7"/>
</linearGradient>
<linearGradient id="paint3_linear" x1="2.60511" y1="12.6006" x2="76.866" y2="83.6735" gradientUnits="userSpaceOnUse">
<stop stop-color="#FAFAFA"/>
<stop offset="1" stop-color="#F4F4F4"/>
</linearGradient>
<linearGradient id="paint4_linear" x1="-35.5256" y1="36.7943" x2="62.6555" y2="79.6792" gradientUnits="userSpaceOnUse">
<stop stop-color="#F6F6F6"/>
<stop offset="1" stop-color="#EAEAEA"/>
</linearGradient>
</defs>
</svg>
