<svg width="99" height="89" viewBox="0 0 99 89" fill="none" xmlns="http://www.w3.org/2000/svg">
<path d="M6.47662 69.7289L18.5655 75.4201L30.5327 54.9768L15.0142 47.6631L6.47662 69.7289Z" fill="#39A4E9"/>
<path d="M22.1129 69.9555C22.5362 70.5499 22.804 71.2513 22.8892 71.9892C23.1715 72.9317 23.4773 73.8989 23.7831 74.8166C24.1721 76.531 24.8753 78.1487 25.8533 79.5785C27.3187 81.3507 29.2648 82.606 31.4286 83.1747C32.4867 83.4056 33.4305 84.0308 34.0869 84.9356C34.3927 85.5557 34.228 87.763 33.5223 88.2094C32.8166 88.6559 31.5698 88.0606 31.1698 87.9862C30.323 87.8374 18.9371 86.6221 13.4558 80.5458C11.1034 78.0656 7.83348 77.0983 4.77528 75.5854C4.09307 75.263 2.79922 74.4942 2.7757 73.5765C3.09852 72.4586 3.59108 71.4032 4.23422 70.4515C5.35965 68.4335 6.8456 66.6647 8.60979 65.2432C9.03323 65.5656 9.17438 66.5825 9.45667 67.0785C9.9023 67.7984 10.4407 68.4494 11.0563 69.013C11.9331 69.9254 12.9222 70.7095 13.9969 71.3444C16.0906 72.4852 17.8549 70.8483 19.9957 70.0299C20.7955 69.7075 21.9247 69.5834 22.3481 70.3027L22.1129 69.9555Z" fill="#5C20D2"/>
<path d="M64.1917 79.1215L77.7196 76.3906L71.9431 55.0654L54.5888 58.5563L64.1917 79.1215Z" fill="#39A4E9"/>
<path d="M76.4353 72.6445C77.2164 72.8469 77.9459 73.2307 78.5713 73.7684L81.3701 75.4412C82.948 76.5485 84.6916 77.3616 86.5259 77.8457C88.8984 78.3214 91.3487 78.0769 93.5967 77.1401C94.6699 76.6346 95.8707 76.5242 97.0094 76.8264C97.6968 77.1139 99.219 78.9696 98.9735 79.7537C98.728 80.5378 97.3285 80.8776 96.9112 81.139C96.4938 81.4003 86.1822 87.8561 77.27 86.5231C73.6922 86.3813 70.1207 86.9485 66.7375 88.1959C65.9519 88.3789 64.2824 88.588 63.6686 87.8823C63.1155 86.8253 62.7337 85.6766 62.5392 84.4845C61.9517 82.23 61.8344 79.8661 62.1955 77.5582C62.7602 77.5582 63.6195 78.2639 64.2087 78.4469C65.086 78.7356 65.9927 78.9111 66.9094 78.9696C68.2548 79.1419 69.6149 79.1419 70.9603 78.9696C73.4155 78.5253 73.661 76.0946 74.7658 74.0821C75.1832 73.3241 75.9688 72.4877 76.8772 72.7491L76.4353 72.6445Z" fill="#5C20D2"/>
<path d="M34.9591 -163.29C36.3286 -159.651 47.4041 -154.84 51.6085 -155.108C51.0079 -151.763 54.5396 -149.052 55.9811 -146.023C57.4226 -142.995 65.9755 -132.396 66.8885 -129.416C69.0267 -122.382 76.0901 -45.0116 79.7419 -9.89198C81.3275 5.39653 83.1294 20.5141 85.2196 35.6805C85.9884 41.2489 86.1566 46.8172 86.8773 52.41C87.2857 55.5605 90.8174 60.9823 89.424 64.1084C87.0215 69.6279 66.7683 70.3605 60.9302 71.2153C48.7495 73.0226 37.2175 73.6576 25.277 69.8232C18.8864 67.845 13.0963 64.9387 6.60956 63.2047C0.12279 61.4707 0.146815 60.4938 0.00266473 54.7057C-0.0641791 41.5938 1.12669 28.5065 3.55838 15.6296C8.81987 -14.6788 10.4055 -28.8683 18.4539 -64.5741C21.0967 -76.2725 24.5803 -84.8936 26.3101 -96.7386C27.4153 -104.261 21.9856 -130.637 23.4992 -136.987C24.8206 -142.482 28.7126 -160.091 34.9832 -162.411L34.9591 -163.29Z" fill="url(#paint0_linear)"/>
<path d="M3.55457 15.6363C8.81043 -14.6815 10.3944 -28.8754 18.4342 -64.5923C21.0741 -76.2943 24.554 -84.9182 26.282 -96.7668C27.3859 -104.291 21.9141 -132.532 23.45 -138.884C24.77 -144.381 28.6819 -160.139 34.9697 -162.459V-163.29C36.3121 -161.194 38.2442 -159.56 40.5136 -158.599C39.2896 -153.713 37.5377 -148.95 36.7457 -143.941C35.6079 -135.589 35.3585 -127.136 36.0017 -118.729C36.3935 -107.342 37.4997 -95.9912 39.3136 -84.7471C37.9697 -62.76 38.2577 -40.4064 43.2735 -19.1278C46.3638 -4.95813 51.9323 8.53026 59.7131 20.6933C67.3689 32.1511 78.1926 40.384 86.7124 50.8646C86.7124 51.3776 86.7124 51.8906 86.8804 52.4037C87.2884 55.5552 90.8163 60.9787 89.4243 64.1057C87.0244 69.6269 66.7929 70.3598 60.9611 71.2149C48.7934 73.0227 37.2737 73.6579 25.346 69.8224C18.9622 67.8435 13.1783 64.9363 6.69849 63.2018C0.218657 61.4673 0.146658 60.5145 0.00266188 54.7245C-0.0641105 41.6086 1.12549 28.5172 3.55457 15.6363Z" fill="url(#paint1_linear)"/>
<defs>
<linearGradient id="paint0_linear" x1="-4.80652" y1="-156.862" x2="28.4087" y2="74.5655" gradientUnits="userSpaceOnUse">
<stop stop-color="#CCCCCC"/>
<stop offset="1" stop-color="#D9D7D7"/>
</linearGradient>
<linearGradient id="paint1_linear" x1="-10.4985" y1="-151.702" x2="17.6381" y2="40.9231" gradientUnits="userSpaceOnUse">
<stop stop-color="#D4D4D4"/>
<stop offset="1" stop-color="#F4F4F4"/>
</linearGradient>
</defs>
</svg>
