<svg width="38" height="38" viewBox="0 0 38 38" fill="none" xmlns="http://www.w3.org/2000/svg">
<path fill-rule="evenodd" clip-rule="evenodd" d="M19 38C29.4934 38 38 29.4934 38 19C38 8.50659 29.4934 0 19 0C8.50659 0 0 8.50659 0 19C0 29.4934 8.50659 38 19 38Z" fill="black"/>
<mask id="mask0" mask-type="alpha" maskUnits="userSpaceOnUse" x="0" y="0" width="38" height="38">
<path fill-rule="evenodd" clip-rule="evenodd" d="M19 38C29.4934 38 38 29.4934 38 19C38 8.50659 29.4934 0 19 0C8.50659 0 0 8.50659 0 19C0 29.4934 8.50659 38 19 38Z" fill="white"/>
</mask>
<g mask="url(#mask0)">
<path d="M19.5676 10C20.073 10.0816 20.6132 10 21.136 10.1088C21.7169 10.2261 22.274 10.447 22.7828 10.7616C23.6977 11.3873 24.4372 12.2538 24.9262 13.2731C25.1626 13.6547 25.3282 14.0791 25.4141 14.5243C25.4141 14.896 25.2137 15.2224 25.2747 15.6032C25.4424 16.2709 25.8431 16.8495 26.3987 17.2262C26.5904 17.3894 27.0086 17.5979 26.9999 17.8971C26.9912 18.1963 26.5991 18.3867 26.4597 18.5409C26.2114 18.7282 26.0654 19.0287 26.0676 19.3478C26.0676 19.511 26.2418 19.6198 26.207 19.783C26.1721 19.9462 25.9456 19.9916 25.9369 20.1004C25.9282 20.2092 26.1286 20.3452 26.1198 20.4993C26.1111 20.6534 25.9194 20.6988 25.841 20.8438C25.6774 21.1319 25.7532 21.5023 26.0153 21.6961C26.3028 21.9862 26.4422 21.9772 26.2505 22.4486C26.1284 22.7566 25.8783 22.9901 25.5709 23.0833C24.9943 23.2067 24.3983 23.1912 23.8283 23.038C23.0616 22.9564 22.957 23.3916 22.7131 24.0444C22.297 25.3063 22.0707 26.6275 22.0421 27.9612C21.6675 28.1516 21.0227 27.5895 20.7178 27.39C20.0207 26.9367 19.3498 26.4833 18.6441 26.03C17.9981 25.7852 17.3668 25.5006 16.7533 25.1777C16.4675 24.9279 16.2914 24.5679 16.2654 24.1804C16.1438 23.1818 15.9397 22.1959 15.6555 21.2337C15.4953 20.8809 15.2599 20.5709 14.9672 20.327C14.6126 19.9388 14.3186 19.4952 14.0959 19.0123C13.2246 17.3078 12.6146 15.3131 13.2855 13.4635C13.8155 12.3888 14.6245 11.4904 15.6206 10.8704C16.3755 10.4113 17.2298 10.1586 18.1039 10.136C18.6339 10.0351 19.1771 10.0351 19.7071 10.136L19.5676 10Z" fill="url(#paint0_linear)"/>
<path d="M22.9074 11.1054C20.6436 10.5471 19.6504 11.792 19.6056 13.6228C19.4766 14.3634 19.4048 15.1133 19.3909 15.8654C19.4625 16.2041 19.8204 16.314 19.9367 16.6527C20.053 16.9914 20.0441 17.4765 20.1693 17.8518C20.5809 19.0418 21.8247 19.9847 22.8537 20.7261C23.8827 21.4676 26.057 21.5591 26.7281 22.5569C25.368 23.1428 23.4353 22.5569 21.9679 22.5569C19.7488 22.5569 19.7041 22.1175 18.9524 20.3691C18.7466 19.9023 17.4313 16.1767 16.4829 17.6962C16.1697 18.1905 16.9839 18.9961 16.805 19.6094C16.626 20.2227 15.8565 20.8085 15.3017 21.2662C13.4585 18.4468 8.60503 17.2533 11.105 11.876C13.0528 7.68651 15.0653 10.0661 16.805 8.14735C19.6056 5.05837 22.5529 9.02794 23.3687 10.8755C23.5325 10.9851 22.9074 11.1054 22.9074 11.1054Z" fill="url(#paint1_linear)"/>
<path d="M25.7349 21.1381C26.0928 21.2388 26.9697 21.9711 26.8892 22.4105C26.7639 23.0787 25.5917 22.978 25.0996 22.9872C24.415 22.9851 23.731 22.9454 23.0505 22.8682C22.3048 22.8468 21.5674 22.7015 20.8673 22.438C20.6891 22.3759 20.529 22.2689 20.402 22.1267C20.6346 22.0352 21.1447 22.1817 21.2968 22.026C21.4489 21.8704 21.2252 21.3578 21.4578 21.1107C21.6905 20.8635 22.9253 21.2571 23.3369 21.4036C23.7485 21.55 25.8512 22.2457 25.5828 21.0557C25.676 21.0867 25.7637 21.133 25.8423 21.193L25.7349 21.1381Z" fill="black"/>
<path d="M26.0481 18.5842C26.2572 18.6918 26.376 18.9238 26.3433 19.1609C26.0041 19.1273 25.6625 19.1273 25.3233 19.1609C24.979 19.2402 24.6667 19.4255 24.4285 19.6918C24.0781 20.2314 23.9828 20.9034 24.169 21.5226C23.3458 21.4219 23.4174 19.6369 23.82 19.1792C24.113 18.8905 24.4899 18.7073 24.8938 18.6575C25.1264 18.6575 26.1017 18.6575 26.0928 18.6025L26.0481 18.5842Z" fill="black"/>
<path d="M16.2439 23C16.7627 24.3419 20.9586 26.116 22.5514 26.0169C22.3238 27.2507 23.6618 28.2503 24.2079 29.367C24.754 30.4838 27.9942 34.3922 28.34 35.4909C29.1501 38.0846 31.826 66.6147 33.2094 79.565C33.8101 85.2025 34.4927 90.7771 35.2846 96.3697C35.5758 98.423 35.6395 100.476 35.9126 102.539C36.0673 103.7 37.4053 105.7 36.8774 106.852C35.9672 108.888 28.2945 109.158 26.0828 109.473C21.4683 110.139 17.0995 110.374 12.576 108.96C10.1549 108.23 7.96141 107.159 5.50396 106.519C3.04652 105.88 3.05562 105.519 3.00101 103.385C2.97569 98.5502 3.42684 93.7243 4.34805 88.976C6.34132 77.7998 6.94203 72.5675 9.99108 59.4011C10.9923 55.0874 12.312 51.9084 12.9673 47.5406C13.386 44.7668 11.329 35.0407 11.9024 32.6992C12.403 30.6729 13.8775 24.1798 16.253 23.3242L16.2439 23Z" fill="url(#paint2_linear)"/>
<path d="M4.34661 88.9784C6.33774 77.7988 6.93781 72.5649 9.9836 59.3944C10.9837 55.0794 12.302 51.8993 12.9567 47.5302C13.3749 44.7556 11.3019 34.3417 11.8838 31.9995C12.3839 29.9726 13.8659 24.1621 16.2479 23.3063V23C16.7565 23.7728 17.4884 24.3756 18.3482 24.7296C17.8845 26.5313 17.2208 28.288 16.9207 30.1348C16.4897 33.2146 16.3952 36.3316 16.6389 39.4315C16.7873 43.6307 17.2064 47.8162 17.8936 51.9624C17.3844 60.0701 17.4935 68.3129 19.3937 76.1593C20.5645 81.3843 22.674 86.3581 25.6217 90.8432C28.522 95.0682 32.6225 98.1041 35.8501 101.969C35.8501 102.158 35.8501 102.347 35.9138 102.536C36.0683 103.698 37.4048 105.698 36.8775 106.851C35.9683 108.887 28.3038 109.158 26.0945 109.473C21.4849 110.139 17.1208 110.374 12.6021 108.959C10.1836 108.23 7.99247 107.158 5.53765 106.518C3.08284 105.878 3.05556 105.527 3.00101 103.392C2.97571 98.5556 3.42638 93.7282 4.34661 88.9784Z" fill="url(#paint3_linear)"/>
<path d="M15.9805 29.164C16.3242 28.5763 16.7628 28.0526 17.2774 27.6152C17.3311 27.6793 17.2774 27.6152 17.3311 27.6152L17.1969 27.7343C17.4453 27.5082 17.7599 27.3729 18.0913 27.3494C20.1843 26.2405 22.8943 27.9726 24.0839 29.723C25.0248 31.059 25.3513 32.7485 24.9783 34.351C24.6563 35.7257 24.71 37.2378 24.5132 38.6491C24.5328 39.412 24.4909 40.1752 24.388 40.9311C24.1943 42.1446 24.0689 43.3685 24.0123 44.5968C24.0123 45.3941 23.6277 46.5947 23.8603 47.3461C24.0764 47.2515 24.3276 47.3334 24.4506 47.5386C24.7994 47.9601 24.4506 47.951 24.4506 48.455C24.4506 48.9591 24.7994 48.7941 25.1393 49.0141C25.6581 49.3623 25.3092 49.2981 25.354 49.793C25.3987 50.2879 29.7634 55.6307 30.3448 57.3903C30.6255 58.017 30.8442 58.671 30.9977 59.3423C30.9977 59.7914 31.0424 59.5714 30.7383 59.8739C30.4342 60.1763 30.0496 60.4604 29.7276 60.7262C29.182 61.166 28.6007 61.5509 28.0372 62C27.4469 61.7434 27.1428 60.6253 26.5525 60.1671C25.4115 59.2143 24.3357 58.1824 23.3326 57.0787C22.4382 56.0615 21.5438 55.0076 20.6494 53.9812C19.9595 53.3028 19.3582 52.5358 18.8605 51.6992C18.6447 50.8845 18.4893 50.0543 18.3954 49.2157C18.1463 48.4 17.8476 47.6011 17.501 46.8238C16.528 44.2481 15.8759 41.557 15.5602 38.8141C15.4081 37.4578 15.4439 36.0648 15.2113 34.7268C14.9809 33.6059 14.9385 32.453 15.0861 31.3176C15.2423 30.5462 15.5463 29.8142 15.9805 29.164Z" fill="url(#paint4_linear)"/>
<path d="M15.0911 31.6327C15.2474 30.8686 15.5516 30.1434 15.9862 29.4993C16.0847 29.3359 16.201 29.1634 16.3264 29C17.0425 40.0303 19.9069 51.696 30.4517 57.715C30.6999 58.2409 30.8833 58.7959 30.9977 59.3673C30.9977 59.8121 31.0424 59.5942 30.7381 59.8938C30.4338 60.1934 30.0488 60.4748 29.7266 60.7381C29.1806 61.1739 28.5987 61.5552 28.0348 62C27.444 61.7458 27.1396 60.6382 26.5488 60.1843C25.407 59.2404 24.3303 58.2182 23.3263 57.1249C22.4312 56.1172 21.5361 55.0732 20.6409 54.0564C19.9505 53.3844 19.3487 52.6246 18.8506 51.7959C18.6347 50.9888 18.4791 50.1664 18.3852 49.3356C18.1359 48.5276 17.8369 47.7362 17.49 46.9662C16.5162 44.4147 15.8636 41.7488 15.5476 39.0316C15.3954 37.688 15.4312 36.3081 15.1985 34.9827C14.9768 33.8801 14.9405 32.7475 15.0911 31.6327Z" fill="url(#paint5_linear)"/>
</g>
<defs>
<linearGradient id="paint0_linear" x1="8.10275" y1="8.04071" x2="17.4094" y2="40.7161" gradientUnits="userSpaceOnUse">
<stop stop-color="#EAEAEA"/>
<stop offset="1" stop-color="#D0D0D0"/>
</linearGradient>
<linearGradient id="paint1_linear" x1="10.4044" y1="7.00781" x2="10.4044" y2="22.8173" gradientUnits="userSpaceOnUse">
<stop stop-color="#242425"/>
<stop offset="1" stop-color="#04121B"/>
</linearGradient>
<linearGradient id="paint2_linear" x1="1.1791" y1="25.3704" x2="13.1134" y2="110.799" gradientUnits="userSpaceOnUse">
<stop stop-color="#CCCCCC"/>
<stop offset="1" stop-color="#D9D7D7"/>
</linearGradient>
<linearGradient id="paint3_linear" x1="-0.977234" y1="27.2729" x2="9.13268" y2="98.381" gradientUnits="userSpaceOnUse">
<stop stop-color="#D4D4D4"/>
<stop offset="1" stop-color="#F4F4F4"/>
</linearGradient>
<linearGradient id="paint4_linear" x1="4.8564" y1="33.3002" x2="32.1977" y2="59.1279" gradientUnits="userSpaceOnUse">
<stop stop-color="#FAFAFA"/>
<stop offset="1" stop-color="#F4F4F4"/>
</linearGradient>
<linearGradient id="paint5_linear" x1="-9.00933" y1="42.5243" x2="26.6614" y2="58.148" gradientUnits="userSpaceOnUse">
<stop stop-color="#F6F6F6"/>
<stop offset="1" stop-color="#EAEAEA"/>
</linearGradient>
</defs>
</svg>
