<?xml version="1.0" encoding="UTF-8"?>
<svg width="180px" height="218px" viewBox="0 0 180 218" version="1.1" xmlns="http://www.w3.org/2000/svg" xmlns:xlink="http://www.w3.org/1999/xlink">
    <!-- Generator: Sketch 55.2 (78181) - https://sketchapp.com -->
    <title>Path 4 Copy 12</title>
    <desc>Created with Sketch.</desc>
    <defs>
        <path d="M4.3902439,80.6501781 C28.8383215,114.923406 31.956559,137.641903 13.5033259,174.627295 C-4.94990714,211.612688 159.445566,244.818637 174.146341,185.615237 C188.847117,126.411837 172.019473,3.06517058 125.18847,0.731707317 C78.3574676,-1.60175594 -20.0578337,46.3769501 4.3902439,80.6501781 Z" id="path-1"></path>
        <linearGradient x1="12.0684533%" y1="-17.3317141%" x2="51.4866892%" y2="100%" id="linearGradient-3">
            <stop stop-color="#EBEBEB" offset="0%"></stop>
            <stop stop-color="#D2D2D2" offset="100%"></stop>
        </linearGradient>
        <linearGradient x1="50%" y1="0%" x2="50.2098113%" y2="109.088217%" id="linearGradient-4">
            <stop stop-color="#EBEBEB" offset="0%"></stop>
            <stop stop-color="#D2D2D2" offset="100%"></stop>
        </linearGradient>
        <linearGradient x1="50%" y1="-26.0196505%" x2="50%" y2="122.93922%" id="linearGradient-5">
            <stop stop-color="#EAEAEA" offset="0%"></stop>
            <stop stop-color="#A7A7A7" offset="100%"></stop>
        </linearGradient>
        <linearGradient x1="44.9925364%" y1="-25.1450184%" x2="50%" y2="100%" id="linearGradient-6">
            <stop stop-color="#EAEAEA" offset="0%"></stop>
            <stop stop-color="#A7A7A7" offset="100%"></stop>
        </linearGradient>
        <linearGradient x1="45.6504291%" y1="-36.5621393%" x2="50%" y2="100%" id="linearGradient-7">
            <stop stop-color="#EAEAEA" offset="0%"></stop>
            <stop stop-color="#A7A7A7" offset="100%"></stop>
        </linearGradient>
        <linearGradient x1="47.9152944%" y1="-36.5621393%" x2="50%" y2="100%" id="linearGradient-8">
            <stop stop-color="#EAEAEA" offset="0%"></stop>
            <stop stop-color="#A7A7A7" offset="100%"></stop>
        </linearGradient>
        <linearGradient x1="59.1739481%" y1="-55.5383655%" x2="42.8764848%" y2="111.360391%" id="linearGradient-9">
            <stop stop-color="#EBEBEB" offset="0%"></stop>
            <stop stop-color="#D2D2D2" offset="100%"></stop>
        </linearGradient>
        <linearGradient x1="56.6040938%" y1="-10.7131848%" x2="50%" y2="27.1163061%" id="linearGradient-10">
            <stop stop-color="#EBEBEB" offset="0%"></stop>
            <stop stop-color="#D2D2D2" offset="100%"></stop>
        </linearGradient>
        <linearGradient x1="50%" y1="0%" x2="62.5852755%" y2="209.375169%" id="linearGradient-11">
            <stop stop-color="#EBEBEB" offset="0%"></stop>
            <stop stop-color="#D2D2D2" offset="100%"></stop>
        </linearGradient>
        <linearGradient x1="38.8393126%" y1="-13.1995763%" x2="11.0311044%" y2="226.132348%" id="linearGradient-12">
            <stop stop-color="#EAEAEA" offset="0%"></stop>
            <stop stop-color="#A7A7A7" offset="100%"></stop>
        </linearGradient>
        <linearGradient x1="38.8393126%" y1="-10.5388427%" x2="50%" y2="90.2813413%" id="linearGradient-13">
            <stop stop-color="#EAEAEA" offset="0%"></stop>
            <stop stop-color="#A7A7A7" offset="100%"></stop>
        </linearGradient>
        <linearGradient x1="50%" y1="-36.6400741%" x2="52.9422022%" y2="91.7578123%" id="linearGradient-14">
            <stop stop-color="#EBEBEB" offset="0%"></stop>
            <stop stop-color="#D2D2D2" offset="100%"></stop>
        </linearGradient>
        <linearGradient x1="50%" y1="0%" x2="50%" y2="105.268391%" id="linearGradient-15">
            <stop stop-color="#EBEBEB" offset="0%"></stop>
            <stop stop-color="#D2D2D2" offset="100%"></stop>
        </linearGradient>
        <linearGradient x1="42.7970229%" y1="-146.853813%" x2="42.7970229%" y2="96.3174655%" id="linearGradient-16">
            <stop stop-color="#EBEBEB" offset="0%"></stop>
            <stop stop-color="#D2D2D2" offset="100%"></stop>
        </linearGradient>
        <linearGradient x1="47.9790795%" y1="-25.1450184%" x2="50%" y2="100%" id="linearGradient-17">
            <stop stop-color="#EAEAEA" offset="0%"></stop>
            <stop stop-color="#A7A7A7" offset="100%"></stop>
        </linearGradient>
        <linearGradient x1="51.5268927%" y1="-11.5846263%" x2="50.3673336%" y2="109.088217%" id="linearGradient-18">
            <stop stop-color="#EBEBEB" offset="0%"></stop>
            <stop stop-color="#D2D2D2" offset="100%"></stop>
        </linearGradient>
        <linearGradient x1="23.1190864%" y1="-89.8098891%" x2="52.9422022%" y2="80.3757068%" id="linearGradient-19">
            <stop stop-color="#EBEBEB" offset="0%"></stop>
            <stop stop-color="#D2D2D2" offset="100%"></stop>
        </linearGradient>
        <linearGradient x1="38.8393126%" y1="18.0028772%" x2="50%" y2="71.2902488%" id="linearGradient-20">
            <stop stop-color="#EAEAEA" offset="0%"></stop>
            <stop stop-color="#A7A7A7" offset="100%"></stop>
        </linearGradient>
        <linearGradient x1="50%" y1="0%" x2="51.8135249%" y2="109.088217%" id="linearGradient-21">
            <stop stop-color="#EBEBEB" offset="0%"></stop>
            <stop stop-color="#D2D2D2" offset="100%"></stop>
        </linearGradient>
        <linearGradient x1="50%" y1="-56.7777162%" x2="50%" y2="100%" id="linearGradient-22">
            <stop stop-color="#EAEAEA" offset="0%"></stop>
            <stop stop-color="#A7A7A7" offset="100%"></stop>
        </linearGradient>
        <linearGradient x1="0%" y1="32.7847685%" x2="50%" y2="56.7282785%" id="linearGradient-23">
            <stop stop-color="#EAEAEA" offset="0%"></stop>
            <stop stop-color="#A7A7A7" offset="100%"></stop>
        </linearGradient>
        <linearGradient x1="38.8393126%" y1="-21.9070735%" x2="108.561321%" y2="164.89659%" id="linearGradient-24">
            <stop stop-color="#EAEAEA" offset="0%"></stop>
            <stop stop-color="#A7A7A7" offset="100%"></stop>
        </linearGradient>
        <linearGradient x1="40.9653416%" y1="-23.3108521%" x2="50%" y2="71.4549697%" id="linearGradient-25">
            <stop stop-color="#EAEAEA" offset="0%"></stop>
            <stop stop-color="#A7A7A7" offset="100%"></stop>
        </linearGradient>
        <linearGradient x1="50%" y1="13.7411013%" x2="52.9422022%" y2="92.8494738%" id="linearGradient-26">
            <stop stop-color="#EBEBEB" offset="0%"></stop>
            <stop stop-color="#D2D2D2" offset="100%"></stop>
        </linearGradient>
        <linearGradient x1="50%" y1="0%" x2="51.3010216%" y2="100%" id="linearGradient-27">
            <stop stop-color="#5C20D2" offset="0%"></stop>
            <stop stop-color="#39A4E9" offset="100%"></stop>
        </linearGradient>
        <linearGradient x1="48.1504311%" y1="-25.1450184%" x2="50%" y2="100%" id="linearGradient-28">
            <stop stop-color="#EAEAEA" offset="0%"></stop>
            <stop stop-color="#A7A7A7" offset="100%"></stop>
        </linearGradient>
        <linearGradient x1="47.8801471%" y1="4.93488129%" x2="50.2226018%" y2="109.088217%" id="linearGradient-29">
            <stop stop-color="#EBEBEB" offset="0%"></stop>
            <stop stop-color="#D2D2D2" offset="100%"></stop>
        </linearGradient>
        <linearGradient x1="49.5346342%" y1="-25.1450184%" x2="50%" y2="100%" id="linearGradient-30">
            <stop stop-color="#EAEAEA" offset="0%"></stop>
            <stop stop-color="#A7A7A7" offset="100%"></stop>
        </linearGradient>
        <linearGradient x1="50%" y1="2.80360968%" x2="97.108621%" y2="135.880811%" id="linearGradient-31">
            <stop stop-color="#5C20D2" offset="0%"></stop>
            <stop stop-color="#39A4E9" offset="100%"></stop>
        </linearGradient>
        <linearGradient x1="38.8393126%" y1="4.7505992%" x2="50%" y2="80.1080509%" id="linearGradient-32">
            <stop stop-color="#EAEAEA" offset="0%"></stop>
            <stop stop-color="#A7A7A7" offset="100%"></stop>
        </linearGradient>
        <linearGradient x1="90.8292276%" y1="102.516253%" x2="30.4439244%" y2="5.4382507%" id="linearGradient-33">
            <stop stop-color="#5C20D2" offset="0%"></stop>
            <stop stop-color="#39A4E9" offset="100%"></stop>
        </linearGradient>
        <linearGradient x1="38.8393126%" y1="10.983935%" x2="50%" y2="75.9605133%" id="linearGradient-34">
            <stop stop-color="#EAEAEA" offset="0%"></stop>
            <stop stop-color="#A7A7A7" offset="100%"></stop>
        </linearGradient>
        <linearGradient x1="15.2815073%" y1="13.0404624%" x2="50%" y2="92.8076017%" id="linearGradient-35">
            <stop stop-color="#EAEAEA" offset="0%"></stop>
            <stop stop-color="#A7A7A7" offset="100%"></stop>
        </linearGradient>
        <linearGradient x1="45.9875427%" y1="-57.1417477%" x2="106.854593%" y2="201.270183%" id="linearGradient-36">
            <stop stop-color="#EBEBEB" offset="0%"></stop>
            <stop stop-color="#D2D2D2" offset="100%"></stop>
        </linearGradient>
        <linearGradient x1="33.6982749%" y1="-97.7333546%" x2="50.7747127%" y2="109.088217%" id="linearGradient-37">
            <stop stop-color="#EBEBEB" offset="0%"></stop>
            <stop stop-color="#D2D2D2" offset="100%"></stop>
        </linearGradient>
        <linearGradient x1="45.5520987%" y1="-25.1450184%" x2="50%" y2="100%" id="linearGradient-38">
            <stop stop-color="#EAEAEA" offset="0%"></stop>
            <stop stop-color="#A7A7A7" offset="100%"></stop>
        </linearGradient>
        <linearGradient x1="50%" y1="0%" x2="50%" y2="100%" id="linearGradient-39">
            <stop stop-color="#5C20D2" offset="0%"></stop>
            <stop stop-color="#39A4E9" offset="100%"></stop>
        </linearGradient>
        <linearGradient x1="48.3456415%" y1="-7.2493487%" x2="50%" y2="100%" id="linearGradient-40">
            <stop stop-color="#EAEAEA" offset="0%"></stop>
            <stop stop-color="#A7A7A7" offset="100%"></stop>
        </linearGradient>
        <linearGradient x1="50%" y1="0%" x2="50.1508678%" y2="109.088217%" id="linearGradient-41">
            <stop stop-color="#EBEBEB" offset="0%"></stop>
            <stop stop-color="#D2D2D2" offset="100%"></stop>
        </linearGradient>
        <linearGradient x1="47.7752756%" y1="-25.1450184%" x2="52.1279575%" y2="147.891305%" id="linearGradient-42">
            <stop stop-color="#EAEAEA" offset="0%"></stop>
            <stop stop-color="#A7A7A7" offset="100%"></stop>
        </linearGradient>
        <linearGradient x1="38.8393126%" y1="-25.1450184%" x2="38.8393126%" y2="573.346227%" id="linearGradient-43">
            <stop stop-color="#EAEAEA" offset="0%"></stop>
            <stop stop-color="#A7A7A7" offset="100%"></stop>
        </linearGradient>
        <linearGradient x1="50%" y1="0%" x2="51.7323603%" y2="109.088217%" id="linearGradient-44">
            <stop stop-color="#EBEBEB" offset="0%"></stop>
            <stop stop-color="#D2D2D2" offset="100%"></stop>
        </linearGradient>
    </defs>
    <g id="landing-page" stroke="none" stroke-width="1" fill="none" fill-rule="evenodd">
        <g id="HomeV2" transform="translate(-1068.000000, -1402.000000)">
            <g id="Path-4-Copy-12" transform="translate(1068.000000, 1402.000000)">
                <mask id="mask-2" fill="white">
                    <use xlink:href="#path-1"></use>
                </mask>
                <use id="Path-4-Copy-5" fill="#000000" xlink:href="#path-1"></use>
                <g id="Art/weMadeIteasy" mask="url(#mask-2)">
                    <g transform="translate(-55.000000, 60.000000)" id="weMade-for-you-everyThings">
                        <g transform="translate(3.663551, 0.000000)">
                            <path d="M187.904376,77.2746615 C228.919006,84.0782695 222.48015,122.205155 228.654396,155.155963 C234.828641,188.10677 226.50811,189.227364 218.746202,187.759919 C210.984293,186.292475 203.457594,182.423756 199.429634,164.387525 C195.401674,146.351293 189.786051,121.324688 187.669166,108.171046 C186.491373,97.8959108 186.570256,87.534049 187.904376,77.2746615 L187.904376,77.2746615 Z" id="Path" fill="url(#linearGradient-3)" fill-rule="nonzero"></path>
                            <path d="M200.812326,123.57847 C200.469122,111.254463 195.950264,98.9040106 186.912548,92.9535783 C186.698326,98.3422237 186.966175,103.738023 187.713359,109.085861 C189.200578,118.315643 192.375218,133.442964 195.492658,147.829787 C204.044168,144.418206 201.012529,130.004937 200.812326,123.57847 Z" id="Path" fill="url(#linearGradient-4)" fill-rule="nonzero"></path>
                            <path d="M219.95667,168.298383 C216.17082,156.625274 207.021681,155.152749 196.610592,155.795306 L198.474836,164.335951 C202.40409,182.407851 209.717665,186.316736 217.318047,187.789261 C218.903882,188.146441 220.545191,188.2371 222.165083,188.056993 C222.530655,181.403744 221.785615,174.737893 219.95667,168.298383 Z" id="Path" fill="url(#linearGradient-5)" fill-rule="nonzero"></path>
                            <path d="M167.89274,485.210059 C171.308568,483.481133 175.398594,483.342099 178.941041,484.834489 C182.777658,486.497728 185.460405,493.365292 186.729661,501.62783 C187.88213,508.160633 189.432736,514.627276 191.373987,520.996506 C192.354776,524.671726 191.662454,528.427425 184.364229,530.171143 C177.066003,531.91486 174.296716,530.171143 174.787111,526.039874 C175.277505,521.908605 175.479432,521.26477 175.68136,518.689434 C175.883287,516.114097 165.527307,490.146121 166.104242,488.134139 C166.391875,487.022068 167.011911,486.008348 167.89274,485.210059 L167.89274,485.210059 Z" id="Path" fill="#000000" fill-rule="nonzero"></path>
                            <path d="M148.896811,443.630988 C151.773972,446.669261 166.303636,484.396684 169.353427,484.291005 C173.64824,483.951164 177.736794,486.042723 179.682436,489.574958 C181.638905,494.013478 188.31392,518.319662 188.054975,518.636699 C187.79603,518.953736 178.905602,522.441145 177.812281,521.807071 C176.71896,521.172996 172.892335,510.68435 171.223582,507.064842 C169.554828,503.445334 163.052444,491.714959 157.557066,487.0915 C152.061688,482.468041 136.582561,464.951738 135.604326,459.165809 C134.626091,453.379881 147.515773,442.098641 148.896811,443.630988 Z" id="Path" fill="url(#linearGradient-6)" fill-rule="nonzero"></path>
                            <path d="M157.769756,487.168726 C163.351385,491.785095 169.892356,503.591328 171.578473,507.226056 C172.276177,508.711784 173.351803,511.391401 174.485572,514.044487 L174.892566,513.646525 C182.538234,504.440316 175.561198,493.323885 170.822628,484.462578 L169.71793,484.462578 C166.636406,484.462578 151.98463,446.656101 149.048461,443.631583 C147.56584,442.092793 134.512968,453.421471 135.617666,459.231729 C136.722363,465.041988 152.217198,482.552356 157.769756,487.168726 Z" id="Path" fill="url(#linearGradient-7)" fill-rule="nonzero"></path>
                            <path d="M125.548342,540.636392 C128.706093,545.652863 130.381961,551.37561 130.401763,557.209832 C130.401763,566.63447 130.997797,569.927738 130.401763,570.945171 C126.649295,574.229234 121.630771,575.913794 116.522682,575.60394 C108.944534,575.229097 105.169651,573.488752 108.944534,565.349292 C112.719417,557.209832 117.459307,546.312594 119.133879,543.447719 C120.808451,540.582843 124.583334,538.601527 125.548342,540.636392 Z" id="Path" fill="#000000" fill-rule="nonzero"></path>
                            <path d="M126.950043,471.832291 C124.920633,478.45456 121.006772,522.807744 118.020641,533.382013 C115.03451,543.956281 108.685358,567.427954 108.685358,567.427954 C108.685358,567.427954 120.281983,568.709684 123.760971,566.520062 C127.239958,564.330441 130.110123,556.292928 128.718528,547.534443 C127.326933,538.775958 125.355507,534.370012 127.326933,531.833256 C129.298359,529.2965 129.12441,530.364608 129.12441,527.080176 C129.12441,523.795744 146.780271,500.377476 150.955056,482.860506 C155.129841,465.343535 130.313064,460.884184 126.950043,471.832291 Z" id="Path" fill="url(#linearGradient-8)" fill-rule="nonzero"></path>
                            <path d="M140.192193,507.328355 C144.866962,499.62887 148.480817,491.425768 150.950615,482.907774 C155.160433,465.276651 130.164642,460.875579 126.744165,471.905094 C125.370127,476.386673 123.119044,498.204182 120.897196,515.16441 C127.697845,513.397138 134.193343,510.759196 140.192193,507.328355 Z" id="Path" fill="#000000" fill-rule="nonzero"></path>
                            <path d="M88.7972335,88.4738878 C79.6078122,99.1161321 77.7407551,103.878536 77.4782002,133.25113 C77.2156453,162.623725 65.3715022,186.462352 71.2352282,192.04953 C77.0989543,197.636708 81.2706598,208.012896 87.3969408,204.075266 C94.5734413,199.392678 115.54866,189.575208 113.419048,148.203484 C111.289436,106.831759 88.7972335,88.4738878 88.7972335,88.4738878 Z" id="Path" fill="url(#linearGradient-9)" fill-rule="nonzero"></path>
                            <path d="M74.3155521,160.403801 C71.139889,176.357528 67.3112858,188.006709 71.3476426,191.71938 C75.3839995,195.432052 78.6190208,201.539128 82.2101912,203.825919 C86.543339,198.983303 89.8673976,182.303184 91.588785,175.81946 C85.7420034,168.232696 74.6420221,158.439851 74.3155521,160.403801 Z" id="Path" fill="url(#linearGradient-10)" fill-rule="nonzero"></path>
                            <path d="M106.211434,114.232108 C98.1603847,121.939811 94.1949424,131.19976 97.8299312,145.25026 C100.704469,154.830955 103.000906,164.54194 104.709373,174.341485 C105.330615,178.545864 105.551705,182.789511 105.37028,187.027079 C110.567413,178.703831 114.382649,166.392917 113.42133,147.605391 C112.954086,136.217325 110.522325,124.961148 106.211434,114.232108 L106.211434,114.232108 Z" id="Path" fill="url(#linearGradient-11)" fill-rule="nonzero"></path>
                            <path d="M26.2900285,160.050446 C21.7035175,153.941262 42.8832659,137.776253 48.4338207,143.398865 C53.9843754,149.021477 53.8675217,161.834544 48.0832593,165.700089 C42.298997,169.565635 28.2765429,162.83472 26.2900285,160.050446 Z" id="Path" fill="url(#linearGradient-12)" fill-rule="nonzero"></path>
                            <path d="M52.775054,150.468566 C45.1648134,141.306792 39.4643671,134.349154 35.4132884,134.349154 L31.3911461,134.349154 C28.7602785,132.033471 25.1904024,130.83862 21.5528123,131.056226 C15.2736404,131.374897 1.2974191,130.551665 0.168904339,137.004741 C-0.959610423,143.457817 3.64125745,147.281862 11.7434147,149.751558 C17.0352973,151.230797 22.6175495,151.620692 28.0924106,150.89346 C28.0924106,150.89346 48.579294,181.592044 53.1512256,182.5215 C57.7231572,183.450955 59.9512504,159.099224 52.775054,150.468566 Z" id="Path" fill="url(#linearGradient-13)" fill-rule="nonzero"></path>
                            <path d="M98.5681046,185.119193 C89.5652349,217.951148 68.1616381,204.545435 47.8035359,184.129151 C27.4454338,163.712866 25.6448598,159.832969 25.6448598,159.832969 C25.6448598,159.832969 39.8752023,167.699794 46.4676262,158.441558 C53.0600502,149.183321 47.6583284,143.350097 47.6583284,143.350097 L75.4510585,165.639435 C91.1334767,178.322684 100.920467,176.503146 98.5681046,185.119193 Z" id="Path" fill="url(#linearGradient-14)" fill-rule="nonzero"></path>
                            <path d="M135.874912,77.3373147 C184.739348,74.9270465 196.751856,74.0794796 199.864055,96.5400013 C202.976254,119.000523 187.211656,169.748589 191.603638,185.32263 C191.603638,185.32263 141.866623,207.438827 101.262603,187.971276 C101.262603,187.971276 106.439906,166.225889 102.862332,149.565903 C99.2847568,132.905917 84.538168,93.2821662 88.6392903,88.9383861 C92.7404126,84.5946059 121.157409,77.9994763 135.874912,77.3373147 Z" id="Path" fill="url(#linearGradient-15)" fill-rule="nonzero"></path>
                            <path d="M110.778816,111.457148 C120.570045,124.829137 110.545692,150.316149 135.519153,151.171956 C156.704341,151.894044 161.221128,130.231421 168.389706,116.404784 C171.915714,109.558325 174.684068,102.176987 178.763746,95.6514565 C182.843425,89.1259257 188.030445,85.4887446 189.283489,77.7062467 C180.191634,73.9620897 164.280887,74.844641 136.276808,76.2085839 C123.133122,77.2935971 110.17937,79.8257201 97.694704,83.7503859 C100.657578,93.4908011 105.059842,102.812983 110.778816,111.457148 L110.778816,111.457148 Z" id="Path" fill="url(#linearGradient-16)" fill-rule="nonzero"></path>
                            <path d="M101.472797,185.445259 C101.472797,185.445259 147.444087,199.509236 194.201958,182.547389 C194.201958,182.547389 195.250732,193.952769 197.668741,198.312868 C200.086749,202.672967 219.197754,248.507175 201.135523,357.164027 C183.073293,465.820878 180.451356,464.411821 179.868704,467.867997 C179.286051,471.324173 176.955441,483.154929 144.909548,500.595324 C128.42048,509.501623 109.950392,497.936727 109.950392,497.936727 C109.950392,497.936727 96.0832607,436.921931 75.3990937,364.368824 C71.1836002,349.330826 70.9439573,333.593949 74.6999105,318.454857 C87.4308697,266.053914 88.9457665,211.659024 95.0927513,200.679019 C102.142848,188.103856 101.472797,185.445259 101.472797,185.445259 Z" id="Path" fill="url(#linearGradient-17)" fill-rule="nonzero"></path>
                            <path d="M196.49723,198.31306 C194.106161,193.952908 193.027264,182.547389 193.027264,182.547389 C146.226451,199.53603 100.212942,185.445295 100.212942,185.445295 C100.212942,185.445295 100.825289,188.103924 94.0311526,200.067755 C119.28318,203.603732 149.171549,211.606206 157.423655,236.198526 C162.614025,251.671749 157.16122,269.378219 153.516297,284.585578 C148.442564,305.854612 141.852544,326.618506 137.536955,347.967299 C127.768561,396.460696 135.933188,454.312468 116.338082,501.503137 C123.278015,503.949075 133.833713,505.889875 143.602107,500.599203 C175.910705,483.132009 178.185137,471.141591 178.593368,467.871477 C179.0016,464.601363 181.771741,465.797746 199.879719,357.166156 C217.987697,248.534566 198.8883,202.806143 196.49723,198.31306 Z" id="Path" fill="url(#linearGradient-18)" fill-rule="nonzero"></path>
                            <path d="M159.67033,240.783366 L157.53271,239.985778 C157.53271,239.852847 159.071797,235.200254 160.582381,198.511237 C162.121467,160.705597 171.013966,79.2187577 171.127972,78.3945841 L173.4081,78.6072741 C173.4081,79.4314477 164.430097,160.865115 162.89101,198.590996 C161.351924,235.918083 159.84134,240.411158 159.67033,240.783366 Z" id="Path" fill="#C7C7C7" fill-rule="nonzero"></path>
                            <path d="M101.71842,247.502901 C94.4025726,231.030679 91.6731987,203.969172 91.588785,202.043847 L93.7835393,200.466151 C93.7835393,200.920741 96.5973269,230.549348 103.800623,246.647202 L101.71842,247.502901 Z" id="Path" fill="#C7C7C7" fill-rule="nonzero"></path>
                            <path d="M161.487281,237.81747 C159.881121,237.106753 161.487281,237.106753 137.511685,239.975945 C113.536089,242.845138 100.161152,244.661416 100.161152,248.267649 C100.161152,251.873882 99.3726731,278.170426 106.819417,277.801906 L107.140649,278.170426 C106.876908,281.447734 109.095211,284.474049 112.543189,285.540829 C115.142249,286.09361 147.119445,280.671099 154.098943,279.591861 C161.07844,278.512624 167.47388,277.249126 167.298662,270.957961 C167.123445,264.666795 163.093442,238.528188 161.487281,237.81747 Z" id="Path" fill="url(#linearGradient-19)" fill-rule="nonzero"></path>
                            <path d="M137.444422,238.875081 C113.511974,241.794698 100.161109,243.642897 100.161109,247.312507 C100.161109,250.982118 99.3740488,277.740812 106.807391,277.365816 L107.128045,277.740812 C107.128045,277.740812 160.560659,271.499796 163.155041,269.115888 C164.904062,267.508759 161.52262,248.383926 159.161441,236.303675 C157.033465,236.437602 151.932151,237.107239 137.444422,238.875081 Z" id="Path" fill="url(#linearGradient-20)" fill-rule="nonzero"></path>
                            <path d="M143.738274,40.3674273 L161.845879,39.8662438 C164.252919,39.7996216 166.258218,41.6969048 166.32484,44.1039445 C166.327141,44.1870598 166.327063,44.2702238 166.324608,44.3533346 L165.024573,88.3552322 C164.956321,90.6653466 163.097343,92.5208604 160.787105,92.5848033 L142.6795,93.0859868 C140.27246,93.152609 138.267161,91.2553258 138.200539,88.8482861 C138.198238,88.7651708 138.198316,88.6820068 138.200771,88.598896 L139.500806,44.5969984 C139.569058,42.286884 141.428036,40.4313702 143.738274,40.3674273 Z" id="Rectangle" fill="#5C20D2" fill-rule="nonzero" transform="translate(152.262689, 66.476115) rotate(20.610000) translate(-152.262689, -66.476115) "></path>
                            <path d="M173.791809,20.0365976 C183.045149,23.3134107 187.06834,27.9643713 186.637284,36.3149595 C186.206228,44.6655478 185.401589,50.320693 189.510992,53.042562 C193.620394,55.7644309 191.321428,56.4250787 188.189086,56.7421897 C185.390403,57.3266025 183.261531,59.4203545 182.815252,62.0273721 L175.659719,61.2081688 C175.659719,61.2081688 180.228915,64.5642597 181.407135,65.2249075 C180.461267,66.1540392 179.587432,67.1430332 178.792061,68.1846097 C178.073634,69.2416462 176.694254,75.7159946 169.021454,74.9760691 C151.463098,73.2848107 148.646864,58.7769849 147.813488,48.814416 C146.980113,38.8518471 156.549561,13.7472305 173.791809,20.0365976 Z" id="Path" fill="url(#linearGradient-21)" fill-rule="nonzero"></path>
                            <path d="M146.878647,50.3965184 C154.523781,49.7821399 161.807646,47.1579821 167.843171,42.8436301 C173.730468,38.4268893 178.469025,34.7157816 185.619938,33.3567844 C185.045567,26.8492786 180.996255,22.9029598 172.840194,20.0281581 C155.494205,13.8081325 145.758625,38.5575621 146.591462,48.4364263 C146.62018,49.0636557 146.677618,49.6908852 146.878647,50.3965184 Z" id="Path" fill="#5C20D2" fill-rule="nonzero"></path>
                            <path d="M186.797089,33.5305761 C186.621711,31.6131641 180.951138,29.6147347 175.426713,32.0722628 C169.902289,34.5297908 142.046329,51.516441 142.046329,51.516441 C142.046329,51.516441 138.421839,42.9015898 153.299786,29.9117985 C168.177733,16.9220072 173.38063,13.7083166 178.817365,16.7329666 C184.2541,19.7576165 182.821842,21.9990982 185.101763,25.3478178 C186.429151,27.8922607 187.013579,30.7130908 186.797089,33.5305761 Z" id="Path" fill="#000000" fill-rule="nonzero"></path>
                            <path d="M142.193029,57.4625881 C142.193029,57.4625881 144.360284,43.5861791 159.531071,29.8958522 C174.701857,16.2055254 180.134443,15.4507738 183.284188,21.3154033 C180.791309,17.374838 173.037908,12.0279506 168.489059,9.71923457 C162.218467,6.74192076 158.982033,4.40260277 148.925968,6.2634239 C138.869904,8.12424503 130.085296,10.0648156 126.675482,17.322018 C123.265667,24.5792204 102.286636,49.2218088 105.320794,69.478176 C108.354951,89.7345431 106.76563,97.7094908 113.989814,100.846304 C121.213998,103.983116 121.358482,105.126192 121.358482,106.614849 C121.358482,108.103506 112.689461,121.953332 125.490715,131.549852 C138.29197,141.146373 143.782349,144.097103 147.365545,141.119789 C150.94874,138.142476 159.213206,124.611648 164.703586,117.008864 C170.193966,109.406081 171.869977,99.5968951 173.228123,95.8752529 C174.58627,92.1536106 173.574884,89.9206252 175.395379,89.6813768 C177.215873,89.4421284 183.024117,89.8408758 183.284188,86.3850651 C183.544258,82.9292544 182.561769,81.9988439 184.902405,81.2810986 C187.24304,80.5633533 190.999616,80.0316901 190.450578,80.0316901 C187.87751,79.1351621 185.484837,77.8504346 183.370878,76.2302984 C182.475079,75.0872225 181.116932,72.2694077 180.221134,71.2858308 C179.357601,70.1927139 178.575598,69.0470126 177.880498,67.8566033 C177.278261,71.0258358 174.838509,73.6375212 171.523216,74.661892 C166.235113,75.8049678 162.854195,72.0035761 160.802527,75.326471 C158.750859,78.6493658 151.526675,77.2936247 150.255218,73.332734 C148.917486,69.384882 146.971225,65.6339188 144.475871,62.1943904 C142.4531,58.951245 141.528404,58.6056639 142.193029,57.4625881 Z" id="Path" fill="#000000" fill-rule="nonzero"></path>
                            <path d="M142.029092,59.408032 C145.573479,62.7751571 136.799668,57.7642386 138.048919,50.181579 C139.298171,42.5989194 135.34705,40.9551261 137.700291,35.8646693 C140.053532,30.7742125 144.178966,18.6048392 141.535202,17.9420193 C138.891438,17.2791994 134.330218,30.959802 134.330218,36.5009764 C134.572177,40.2091396 135.115987,43.8957473 135.95715,47.5302994 C136.396233,52.015854 138.544854,56.2189156 142.029092,59.408032 Z" id="Path" fill="#5C20D2" fill-rule="nonzero" opacity="0.426013765"></path>
                            <path d="M133.840584,15.6904608 C135.159463,15.2560307 132.008808,27.1485535 133.229992,40.3172147 C133.229992,40.3172147 130.201456,16.8851434 133.840584,15.6904608 Z" id="Path" fill="#5C20D2" fill-rule="nonzero" opacity="0.426013765"></path>
                            <path d="M127.124674,16.8023678 C129.586734,17.5276807 126.013744,31.3086272 128.986232,40.9794667 C130.61504,46.5533653 133.702548,51.7006177 137.993769,55.9961315 C130.871952,51.2679109 126.523196,43.9108916 126.16387,35.9828663 C125.082965,21.9870123 126.584221,16.6411871 127.124674,16.8023678 Z" id="Path" fill="#5C20D2" fill-rule="nonzero" opacity="0.426013765"></path>
                            <path d="M120.29572,40.3264696 C121.872752,39.9013585 120.29572,54.1957184 127.742817,67.8789812 C135.189913,81.5622439 145.265396,81.1637023 150.054902,81.4028273 C156.936117,80.7999039 163.700899,79.3796454 170.176664,77.178286 C174.352879,75.7701055 161.123331,87.992049 149.967289,87.3278129 C138.811246,86.6635769 130.488021,77.6033971 125.202042,64.9032037 C119.916064,52.2030103 118.777096,40.7515807 120.29572,40.3264696 Z" id="Path" fill="#5C20D2" fill-rule="nonzero" opacity="0.426013765"></path>
                            <path d="M173.243411,77.1814968 C173.243411,77.1814968 157.257351,96.3341548 147.15627,97.3116008 C137.055188,98.2890468 128.125246,85.2916568 125.343789,74.8831779 C122.562331,64.4746989 117.233645,49.8394264 117.233645,49.2846598 C117.233645,48.7298931 122.942952,76.9437397 125.841523,89.2014408 C128.740095,101.459142 128.505867,106.16145 133.483211,107.350235 C138.460556,108.539021 149.117929,102.964937 156.906009,98.2626294 C164.69409,93.5603216 174.82445,77.6305936 173.243411,77.1814968 Z" id="Path" fill="#5C20D2" fill-rule="nonzero" opacity="0.426013765"></path>
                            <path d="M123.339564,108.303156 C126.819172,109.581555 130.525764,110.263807 134.274725,110.315932 C140.841685,110.476954 140.841685,114.153625 143.919948,113.4827 C146.99821,112.811775 152.099331,108.115297 157.200452,103.982397 C162.301573,99.8494964 153.741071,110.315932 147.379329,114.153625 C141.017586,117.991318 137.352988,123.305047 134.274725,119.816236 C131.196463,116.327424 135.007645,115.978542 129.173604,113.804744 C123.339564,111.630946 123.339564,108.303156 123.339564,108.303156 Z" id="Path" fill="#5C20D2" fill-rule="nonzero" opacity="0.426013765"></path>
                            <path d="M198.886509,160.165509 C188.940118,159.402398 183.579959,185.242918 192.867079,185.848144 C202.1542,186.45337 207.88699,182.374673 208.689581,174.927762 C209.492172,167.48085 206.711768,160.770736 198.886509,160.165509 Z" id="Path" fill="url(#linearGradient-22)" fill-rule="nonzero"></path>
                            <path d="M166.412827,178.031131 C170.818127,177.052692 185.619938,172.546721 185.619938,170.30661 C185.619938,168.066498 172.345298,169.379667 164.738812,170.898823 C157.132326,172.417979 163.740278,178.597596 166.412827,178.031131 Z" id="Path" fill="url(#linearGradient-23)" fill-rule="nonzero"></path>
                            <path d="M168.393322,175.793642 L192.344287,168.559533 C192.833082,168.400541 193.206867,167.049114 192.718072,165.909676 L177.56542,157.960104 C177.400798,157.892086 177.212495,157.892086 177.047872,157.960104 L151.889295,164.107773 C151.655483,164.167924 151.479646,164.346084 151.436761,164.566285 C151.393875,164.786486 151.491507,165.009882 151.688026,165.141217 L167.847021,175.740645 C168.010862,175.834061 168.211966,175.853571 168.393322,175.793642 L168.393322,175.793642 Z" id="Path" fill="#000000" fill-rule="nonzero"></path>
                            <path d="M168.459179,173.530758 L192.503113,166.284494 C192.733648,166.217594 192.902881,166.036128 192.939639,165.816411 C192.976398,165.596694 192.874306,165.376842 192.676299,165.249314 L177.66688,155.720345 C177.501619,155.652213 177.312585,155.652213 177.147323,155.720345 L151.89109,161.878342 C151.656371,161.938594 151.479851,162.117053 151.4368,162.337624 C151.393748,162.558195 151.491758,162.781966 151.68904,162.913522 L167.910758,173.530758 C168.084142,173.607091 168.285795,173.607091 168.459179,173.530758 Z" id="Path" fill="#5C20D2" fill-rule="nonzero"></path>
                            <path d="M149.184121,168.722349 C148.650365,166.764888 149.184121,161.133833 150.815043,160.892502 C152.445965,160.651171 153.513478,162.47456 153.513478,162.47456 C153.513478,162.47456 157.309078,159.042299 159.444103,160.517099 C161.579128,161.991899 157.546303,166.496742 157.546303,166.496742 C159.66227,169.097089 161.928963,171.594335 164.336868,173.978 C165.285768,174.460662 167.302181,175.801389 167.302181,177.410262 C167.302181,179.019134 161.608781,177.168931 161.608781,177.168931 C161.608781,177.168931 157.546303,178.268327 156.47879,177.168931 L155.440931,176.310865 C154.011427,176.242524 152.727208,175.498893 152.060474,174.353404 C151.348799,172.5032 149.184121,168.722349 149.184121,168.722349 Z" id="Path" fill="url(#linearGradient-24)" fill-rule="nonzero"></path>
                            <path d="M153.854473,164.628627 C153.854473,164.628627 149.899217,166.579381 156.311526,176.947776" id="Path" stroke="#000000" stroke-width="0.25"></path>
                            <path d="M157.614252,166.983968 C157.614252,166.983968 154.321497,166.090569 155.257968,169.273302 C156.19444,172.456036 162.417445,178.067698 162.417445,178.067698" id="Path" stroke="#000000" stroke-width="0.25"></path>
                            <path d="M206.428594,163.432834 C201.440969,161.91225 196.681359,159.826709 192.260894,157.224906 C188.47118,154.320769 184.477405,153.841186 183.078126,155.493081 C181.678847,157.144976 171.417467,158.157428 171.009344,159.969183 C170.601221,161.780939 173.108263,163.352903 176.402399,162.63353 C179.4043,161.798059 182.576581,161.606593 185.672622,162.074017 C187.480024,162.793391 184.972983,169.640761 187.975602,172.544899 C190.978222,175.449036 207.827873,181.204025 211.122009,182.482911 C214.416145,183.761797 216.10694,165.617598 206.428594,163.432834 Z" id="Path" fill="url(#linearGradient-25)" fill-rule="nonzero"></path>
                            <path d="M217.823241,163.125656 C211.47231,162.507612 205.167738,161.52787 198.944747,160.191904 C199.11611,159.285108 212.11114,172.88705 192.94704,186.222286 C192.94704,186.222286 217.166349,191.343017 222.764209,188.302583 C228.362068,185.262149 230.361303,164.805896 217.823241,163.125656 Z" id="Path" fill="url(#linearGradient-26)" fill-rule="nonzero"></path>
                            <path d="M240.005646,87.625014 C225.693084,96.9439442 214.099909,186.63531 222.830571,195.874134 C231.561234,205.112959 244.242164,205.620293 250.511066,193.44427 C256.779968,181.268247 253.115952,136.462617 251.026318,125.247858 C248.936684,114.0331 245.129543,84.2071828 240.005646,87.625014 Z" id="Path" fill="url(#linearGradient-27)" fill-rule="nonzero"></path>
                            <path d="M314.776859,518.802383 C318.524882,518.019429 322.452049,518.910123 325.387001,521.208797 C328.581453,523.853207 329.094847,530.940228 327.925449,539.085013 C327.128165,545.564006 326.728215,552.079738 326.72753,558.600764 C326.72753,562.329383 324.845086,565.714228 317.400873,565.555564 C309.95666,565.396899 307.817519,562.911153 309.50031,559.235422 C311.183101,555.559691 311.553886,554.872145 312.352499,552.492175 C313.151112,550.112205 310.954926,522.874776 312.124324,521.129465 C312.748071,520.132923 313.669221,519.324794 314.776859,518.802383 L314.776859,518.802383 Z" id="Path" fill="#000000" fill-rule="nonzero"></path>
                            <path d="M308.411299,474.025827 C310.344872,477.712044 313.128045,518.073443 316.14559,518.767947 C320.460374,519.539365 323.825199,522.628469 324.641591,526.567768 C325.227522,531.375876 324.319329,556.698581 324.05566,556.912275 C323.791991,557.125968 313.948348,558.274572 313.069451,557.393085 C312.190555,556.511599 311.604624,545.346103 311.077286,541.366057 C310.549948,537.386012 307.737478,524.350696 303.72385,518.474119 C299.710222,512.597542 289.895876,491.628846 290.686883,485.752269 C291.47789,479.875692 307.444513,472.102584 308.411299,474.025827 Z" id="Path" fill="url(#linearGradient-28)" fill-rule="nonzero"></path>
                            <path d="M276.036115,168.980392 C312.840777,180.183456 297.291972,252.484462 291.963449,291.389162 C286.634926,330.293862 274.958764,377.314796 281.859638,393.334379 C288.760512,409.353961 331.359579,507.41403 329.670757,514.705335 C327.981936,521.99664 282.383755,547.223491 279.734052,539.453195 C277.084349,531.682899 225.575293,416.538824 227.176762,347.138374 C228.77823,277.737923 229.826464,235.373845 240.97851,198.597993 C252.130555,161.82214 272.862295,167.9958 276.036115,168.980392 Z" id="Path" fill="url(#linearGradient-29)" fill-rule="nonzero"></path>
                            <path d="M281.634865,393.707885 C274.709325,377.773183 286.427221,330.712696 291.77479,291.964811 C293.6742,278.10162 296.888585,260.095407 298.554221,241.903288 C289.583163,242.726581 281.810195,245.727617 278.391258,255.182207 C273.482014,268.886051 273.248241,285.166005 271.962487,299.507237 C269.24487,329.703498 270.501402,360.218453 270.501402,390.467829 C270.501402,420.717206 271.231945,451.816433 270.501402,482.464177 C270.238407,492.582713 269.683195,502.648133 268.660436,512.713554 C274.504773,527.426595 278.829583,537.359227 279.560125,539.457296 C282.219299,547.212184 328.068124,522.008797 329.675317,514.758507 C331.28251,507.508218 288.677291,409.695703 281.634865,393.707885 Z" id="Path" fill="url(#linearGradient-30)" fill-rule="nonzero"></path>
                            <path d="M294.30055,81.3155779 C356.544232,81.3155779 356.485951,80.3566815 358.613193,129.899664 C360.740435,179.442647 354.358709,202.296346 346.957073,200.351917 C339.555436,198.407488 342.178063,195.504163 327.811895,195.983611 C313.445727,196.463059 308.142192,197.448592 296.981457,195.983611 C285.820722,194.51863 272.00822,192.094753 265.072828,192.094753 C258.137437,192.094753 249.133084,204.240775 241.148642,198.407488 C233.164199,192.574202 241.148642,190.150324 239.0214,153.712259 C236.894158,117.274195 229.958766,87.6549489 245.927651,83.2600068 C261.896536,78.8650648 278.331665,81.3155779 294.30055,81.3155779 Z" id="Path" fill="url(#linearGradient-31)" fill-rule="nonzero"></path>
                            <path d="M248.513559,119.398317 C251.405682,124.050056 252.591452,124.714591 253.372325,130.53591 C254.404184,140.275721 257.804245,149.677917 263.321225,158.047626 C268.845178,166.394176 278.099969,169.956079 286.19791,175.644492 C296.060047,182.529066 305.314837,199.567723 319.83329,191.726219 C329.348372,186.409946 335.913489,174.288842 341.292836,165.649897 C349.18833,152.917422 351.473106,135.081324 349.101566,120.80713 C348.262851,115.783251 356.621084,113.63016 357.459799,118.68062 C357.459799,119.531224 357.691169,120.381828 357.806854,121.338757 C355.840211,81.6261932 352.022609,82.4236343 294.411537,82.4236343 C278.591629,82.4236343 262.222218,80.0047298 246.40231,84.3640741 C242.226597,85.673727 239.093143,88.8859726 238.130841,92.8435305 C249.930699,97.9737345 243.07637,110.546722 248.513559,119.398317 Z" id="Path" fill="#021256" fill-rule="nonzero"></path>
                            <path d="M293.94025,193.045726 C288.804684,187.557463 282.984162,182.648354 276.599765,178.420518 C272.060337,175.888465 267.728203,173.052787 263.63819,169.936282 C262.08541,168.617425 260.650323,167.185285 259.346858,165.653763 C253.676256,161.936869 246.267081,161.349165 239.992075,164.11852 C240.254809,191.052604 234.620611,193.584408 241.772832,198.863488 C249.771641,204.762052 258.821389,192.48011 265.740067,192.48011 C272.658746,192.48011 286.496102,194.931112 297.706113,196.412486 L297.968847,196.412486 C296.532813,195.388949 295.185832,194.263256 293.94025,193.045726 Z" id="Path" fill="#021256" fill-rule="nonzero"></path>
                            <path d="M249.364775,163.530817 C256.765888,164.173309 258.471613,199.911919 253.99047,201.250444 C249.509328,202.588969 238.436569,199.911919 236.181543,193.43346 C233.926516,186.955 239.592993,162.674161 249.364775,163.530817 Z" id="Path" fill="#021256" fill-rule="nonzero"></path>
                            <path d="M240.874866,168.605563 C252.313671,164.732368 255.902888,160.487771 262.030819,163.299817 C268.158751,166.111862 270.93091,173.301149 274.140779,181.074068 C277.350648,188.846986 267.341693,196.991307 263.752476,199.113606 C260.163259,201.235904 251.496613,188.236825 250.037582,184.469745 C248.578551,180.702665 230.661646,199.564594 227.743584,192.32225 C224.825521,185.079906 233.025277,171.258437 240.874866,168.605563 Z" id="Path" fill="url(#linearGradient-32)" fill-rule="nonzero"></path>
                            <path d="M220.330762,177.223322 C218.832425,192.364581 219.552779,201.005405 236.898913,202.538028 C254.245046,204.070651 261.333333,194.610667 261.333333,194.610667 C261.333333,194.610667 244.765183,202.538028 240.443056,190.990505 C236.12093,179.442983 244.793997,164.248875 248.33814,163.508704 C248.33814,163.482564 221.512143,165.279432 220.330762,177.223322 Z" id="Path" fill="url(#linearGradient-33)" fill-rule="nonzero"></path>
                            <polygon id="Path" fill="#FFFFFF" fill-rule="nonzero" points="234.46729 188.781711 270.441223 162.388781 290.641745 180.69739 255.195546 208.305609"></polygon>
                            <polygon id="Path" fill="#000000" fill-rule="nonzero" points="241.794393 185.368258 268.810686 165.748549 285.757009 181.774809 259.632627 202.705996"></polygon>
                            <path d="M248.32745,172.249607 C249.896367,175.576816 250.923295,176.401744 254.317861,176.896701 C257.712428,177.391658 264.84387,179.398982 264.986499,176.649223 C265.129128,173.899463 263.816943,172.634573 260.165644,171.369684 C256.514346,170.104794 255.230686,166.612599 253.804398,165.870164 C252.378109,165.127729 246.245069,167.849991 248.32745,172.249607 Z" id="Path" fill="url(#linearGradient-34)" fill-rule="nonzero"></path>
                            <path d="M266.218069,198.733771 L270.178556,195.741477 C270.178556,195.741477 269.398022,192.880425 271.508355,192.276717 C272.509105,191.919627 273.591745,191.793369 274.6594,191.909242 L277.290089,190.124365 C277.290089,190.124365 275.584477,187.263313 277.550267,186.423371 C278.558684,185.93018 279.705716,185.720059 280.845855,185.819663 C280.845855,185.819663 281.510754,183.667311 283.476544,183.667311 C285.442333,183.667311 286.107233,186.528364 285.586876,189.04819 C285.06652,191.568016 281.510754,191.35803 281.510754,191.35803 C281.510754,191.35803 280.585677,194.350323 278.619887,194.954032 L276.654098,195.55774 C276.654098,195.55774 274.543765,200.466151 271.768533,200.466151 C269.785078,200.331723 267.873343,199.735043 266.218069,198.733771 L266.218069,198.733771 Z" id="Path" fill="url(#linearGradient-35)" fill-rule="nonzero"></path>
                            <path d="M275.425939,192.626692 C275.425939,192.626692 276.989054,195.112374 276.42731,195.98646" id="Path" stroke="#B55D89" stroke-width="0.25"></path>
                            <path d="M281.624633,185.907157 C281.624633,185.907157 283.285443,187.133739 282.186378,191.50677" id="Path" stroke="#B55D89" stroke-width="0.25"></path>
                            <path d="M354.671496,267.661509 C350.944561,223.469877 349.288146,89.8041597 349.258567,88.4738878 L352.453082,91.1344316 C352.453082,92.4913089 354.079919,223.230428 357.806854,267.342243 L354.671496,267.661509 Z" id="Path" fill="#C7C7C7" fill-rule="nonzero"></path>
                            <path d="M356.798128,254.863784 C354.518133,261.047849 346.655071,275.194229 350.133526,289.977595 C353.61198,304.76096 355.453515,318.058027 361.328889,318.058027 C369.136627,317.19518 376.619329,314.706402 383.193462,310.785779 C386.671917,308.131674 387.461146,303.513531 388.250375,300.169359 C389.039605,296.825186 384.245768,278.379156 380.24116,269.91256 C376.236552,261.445965 359.195047,248.334686 356.798128,254.863784 Z" id="Path" fill="url(#linearGradient-36)" fill-rule="nonzero"></path>
                            <path d="M365.014378,275.442523 C361.108897,267.144986 357.261708,262.955938 353.997425,260.941973 C351.082888,268.299659 347.614588,278.799131 350.12109,289.647691 C353.58939,304.577886 355.425549,318.058027 361.28377,318.058027 C367.315745,317.427779 373.172526,315.78984 378.566978,313.224511 C375.089032,300.333916 370.558595,287.703948 365.014378,275.442523 L365.014378,275.442523 Z" id="Path" fill="url(#linearGradient-37)" fill-rule="nonzero"></path>
                            <path d="M359.703328,263.30987 C355.370567,267.587015 353.416109,273.406644 354.387928,279.137106 C356.257079,288.527932 357.308477,299.949921 358.797958,299.818027 C360.287438,299.686134 363.733687,299.105802 362.799111,293.671784 C361.864535,288.237766 362.799111,283.436838 363.850509,283.436838 C364.901907,283.436838 367.851663,289.081886 367.851663,293.065073 C367.851663,297.048261 368.26054,301.479887 370.772213,301.849189 L373.313091,302.218491 C373.313091,302.218491 372.378515,304.618956 373.721968,304.618956 C375.065421,304.618956 380.117973,296.705338 380.789699,294.621418 C381.232018,290.761999 381.005387,286.863887 380.117973,283.067536 C379.446246,280.90448 376.379669,264.892593 374.130845,262.861431 C371.882022,260.83027 359.703328,263.30987 359.703328,263.30987 Z" id="Path" fill="url(#linearGradient-38)" fill-rule="nonzero"></path>
                            <path d="M349.258567,87.3539652 C362.937424,95.730416 373.051664,93.8955744 377.804488,134.155722 C382.557311,174.415869 384.672897,265.147457 384.672897,265.147457 C375.094455,268.100011 364.792176,268.460041 354.996732,266.184541 C354.996732,266.184541 355.605325,180.744743 354.01139,161.093324 C352.417456,141.441904 349.258567,87.3539652 349.258567,87.3539652 Z" id="Path" fill="url(#linearGradient-39)" fill-rule="nonzero"></path>
                            <path d="M307.582398,543.896614 C311.139531,548.580655 313.294606,554.064517 313.825807,559.783762 C314.535285,569.077744 315.471797,572.281652 314.875835,573.340795 C311.413192,576.865723 306.548207,578.90548 301.424127,578.980732 C293.846899,579.192561 289.817062,577.762718 292.910387,569.421965 C296.003713,561.081213 299.920033,550.013166 301.225473,547.074044 C302.530913,544.134921 306.447233,541.963678 307.582398,543.896614 Z" id="Path" fill="#000000" fill-rule="nonzero"></path>
                            <path d="M301.900055,475.95869 C300.432638,482.69417 300.344594,527.047174 298.290211,537.802645 C296.235828,548.558115 291.862928,572.252096 291.862928,572.252096 C291.862928,572.252096 303.602257,572.678056 307.006663,570.22879 C310.411068,567.779525 312.524147,559.57981 310.352371,550.980758 C308.180596,542.381706 305.803381,538.148736 307.564281,535.459869 C309.32518,532.771001 309.237135,533.889144 308.943652,530.614583 C308.650169,527.340021 324.410218,502.820744 327.080915,485.090191 C329.751613,467.359638 304.335965,464.803883 301.900055,475.95869 Z" id="Path" fill="url(#linearGradient-40)" fill-rule="nonzero"></path>
                            <path d="M302.493185,178.075619 C345.648061,179.907817 353.037793,229.430264 354.10584,250.726243 C355.173887,272.022223 333.033559,367.960347 335.083055,407.604858 C337.132551,447.249369 338.229464,519.129939 328.761371,523.856478 C319.293277,528.583017 282.431219,531.610127 277.148716,523.856478 C271.866212,516.10283 276.138401,353.435533 282.460085,282.802981 C288.781769,212.17043 288.262179,177.464886 302.493185,178.075619 Z" id="Path" fill="url(#linearGradient-41)" fill-rule="nonzero"></path>
                            <path d="M339.127386,220.240919 C347.266048,235.140111 346.169348,254.890203 346.140488,270.88218 C346.111627,286.874156 345.13037,302.866133 344.639742,319.17795 C349.632609,288.420048 354.625475,260.247515 354.105986,249.879383 C353.067008,228.556747 345.649859,178.795046 302.50341,176.955969 C296.413845,176.689436 293.037166,182.926307 290.641745,195.613275 C307.611719,205.048541 328.708745,201.15716 339.127386,220.240919 Z" id="Path" fill="url(#linearGradient-42)" fill-rule="nonzero"></path>
                            <path d="M266.218069,242.641422 C278.416058,243.974018 290.751086,243.487248 302.798705,241.19786 C319.579347,237.433276 274.608389,261.039764 266.218069,242.641422 Z" id="Path" fill="url(#linearGradient-43)" fill-rule="nonzero"></path>
                            <path d="M263.266986,57.1160542 C259.144781,65.1587698 253.224894,72.3221929 245.889091,78.1443605 C236.186433,85.4009801 231.233733,88.7379658 234.014196,91.5452712 C236.794659,94.3525765 244.904344,94.9881929 248.872296,99.1461829 C252.840249,103.304173 251.768612,107.091387 251.247275,112.388189 C250.725938,117.684992 259.559702,121.816498 263.933138,123.617411 C268.306575,125.418324 287.509149,130.132478 291.071617,121.63111 C294.634086,113.129742 300.397754,98.6165027 296.864249,91.5452712 C293.330744,84.4740397 263.266986,57.1160542 263.266986,57.1160542 Z" id="Path" fill="#5C20D2" fill-rule="nonzero"></path>
                            <path d="M268.84186,14.3680825 C258.827315,17.6581155 254.333985,22.6727626 254.392722,31.6407559 C254.451458,40.6087491 255.773025,45.7560589 251.455905,48.5685064 C247.138784,51.380954 249.400133,50.9564336 253.45294,53.5300885 C255.657172,54.9014038 257.09325,57.0702205 257.388275,59.473374 L265.023998,58.7835283 C265.023998,58.7835283 260.002042,62.2858216 258.856683,62.9756672 C259.822754,64.0144834 260.706017,65.113922 261.499818,66.2657002 C262.204654,67.4331313 263.350013,74.4642503 271.543732,73.8805347 C290.280623,72.527376 294.01038,56.9262516 295.390684,46.1540467 C296.770988,35.3818418 287.608119,8.07987422 268.84186,14.3680825 Z" id="Path" fill="url(#linearGradient-44)" fill-rule="nonzero"></path>
                            <path d="M269.403701,14.3737572 C259.578653,17.6835924 255.170347,22.7284218 255.227972,31.7503919 C255.227972,32.497774 255.227972,33.1650795 255.227972,33.8590772 C260.385402,34.7399204 264.678458,37.8896023 269.346076,40.0783643 C273.264809,41.7370289 276.805073,44.0745265 279.776185,46.9649568 C284.532386,52.1231057 287.803168,58.3118409 289.284296,64.9555126 C292.812654,59.2327092 294.900654,52.8457079 295.392537,46.2709591 C296.746723,35.5139948 287.814861,8.04770124 269.403701,14.3737572 Z" id="Path" fill="#5C20D2" fill-rule="nonzero"></path>
                            <path d="M277.881493,41.7746298 C277.881493,41.7746298 252.785047,32.7679299 252.785047,32.0218127 C252.785047,31.2756956 253.50954,16.4066466 274.722702,7.29335849 C295.935864,-1.8199296 305.238358,0.818127478 307.817553,0.818127478 C310.810434,0.779427212 313.795173,0.521017755 316.74331,0.0453632832 C320.713533,-0.514224582 328.045405,4.22894875 332.218486,7.34665257 C336.391567,10.4643564 340.33281,25.9995814 341.144243,35.2461047 C341.955675,44.492628 339.550358,72.7917858 340.941385,74.4439023 C342.332412,76.0960189 349.258567,85.5557185 349.258567,92.8570078 C349.258567,100.158297 348.649993,148.629265 348.649993,149.188853 C346.061569,151.322808 344.377957,154.230201 343.897317,157.396142 C343.114864,163.231844 316.540452,190.198649 313.352682,190.386847 C310.164912,190.571708 286.401533,175.06313 280.431709,171.972073 C274.461885,168.881016 273.099837,162.299197 269.738189,157.929082 C266.37654,153.558968 261.797743,149.535264 262.000601,144.605562 C262.203459,139.675859 266.753276,134.586274 264.376939,131.282041 C262.000601,127.977808 263.391628,126.538868 258.812831,123.980752 C254.234033,121.422636 270.404722,115.586934 270.897378,110.657231 C271.390033,105.727529 270.491662,102.076884 270.491662,94.0561247 C270.803786,87.8301747 271.863144,81.6550009 273.650452,75.6430192 C274.635763,70.5267873 282.981925,57.7895016 282.576209,55.0448563 C281.274427,50.5463692 279.707201,46.1164019 277.881493,41.7746298 L277.881493,41.7746298 Z" id="Path" fill="#000000" fill-rule="nonzero"></path>
                            <path d="M283.314642,55.9961315 C283.314642,55.9961315 300.121266,19.8411452 299.149454,14.9266173 C298.177643,10.0120894 283.314642,55.9961315 283.314642,55.9961315 Z" id="Path" fill="#0441BA" fill-rule="nonzero" opacity="0.409784226"></path>
                            <path d="M278.429907,77.2746615 C282.406029,69.3693402 287.193744,61.8336239 292.727451,54.7707632 C301.253775,44.0673632 307.402009,20.7339514 304.617903,20.1720229 C301.833797,19.6100944 298.469669,36.8425683 295.105541,45.2447372 C291.741413,53.6469062 279.241937,73.073577 278.429907,77.2746615 Z" id="Path" fill="#0441BA" fill-rule="nonzero" opacity="0.409784226"></path>
                            <path d="M274.766355,78.2650533 C274.766355,78.2650533 285.216032,80.2554765 299.782249,68.631405 C314.348466,57.0073335 321.055835,50.0541217 325.69054,33.0426381 C330.325246,16.0311545 331.447938,7.27329237 326.467789,10.8825931 C321.48764,14.4918939 324.107256,41.5616494 309.742548,57.0073335 C295.37784,72.4530175 284.582719,77.9200466 274.766355,78.2650533 Z" id="Path" fill="#0441BA" fill-rule="nonzero" opacity="0.409784226"></path>
                            <path d="M335.673658,22.4367648 C339.610407,23.4687685 334.886308,43.9765339 324.009216,57.5513516 C313.132123,71.1261692 288.199377,79.5145068 288.199377,79.5145068 C288.199377,79.5145068 314.444373,72.2640194 325.117338,51.6239458 C335.790303,30.9838722 332.874192,21.7223008 335.673658,22.4367648 Z" id="Path" fill="#0441BA" fill-rule="nonzero" opacity="0.409784226"></path>
                            <path d="M339.112194,37.1367659 C341.395994,40.8068335 332.781151,78.9702169 327.259556,89.3421469 C321.737962,99.7140769 312.631667,111.894446 308.266427,110.804064 C303.901188,109.713681 271.060709,91.7090745 272.361609,86.2571626 C273.662508,80.8052507 285.023695,95.1663845 298.379593,98.9960202 C311.735492,102.825656 317.575084,98.6236945 327.288465,69.7418587 C337.001846,40.8600228 338.302745,35.8602207 339.112194,37.1367659 Z" id="Path" fill="#0441BA" fill-rule="nonzero" opacity="0.409784226"></path>
                            <path d="M337.046729,85.1141199 C337.046729,85.1141199 320.039584,123.570812 306.818276,126.916018 C293.596968,130.261223 275.162853,129.075914 274.784269,134.607356 C274.405685,140.138799 280.084441,142.061633 286.432999,137.241376 C292.781556,132.42112 302.10054,134.844418 312.467909,125.941431 C322.835279,117.038443 337.046729,85.1141199 337.046729,85.1141199 Z" id="Path" fill="#0441BA" fill-rule="nonzero" opacity="0.409784226"></path>
                            <path d="M335.825545,99.6731141 C335.825545,99.6731141 321.747729,142.039062 308.427724,154.510537 C295.10772,166.982013 275.987539,165.869907 275.987539,165.869907 C275.987539,165.869907 295.399186,170.212417 307.08698,160.785993 C318.774774,151.35957 335.825545,99.6731141 335.825545,99.6731141 Z" id="Path" fill="#0441BA" fill-rule="nonzero" opacity="0.409784226"></path>
                            <path d="M339.489097,90.7137331 C339.489097,90.7137331 331.301258,138.059872 321.001362,159.031269 C310.701467,180.002667 310.180685,183.667311 310.180685,183.667311 C310.180685,183.667311 325.746258,157.800805 330.230763,140.734795 C334.715268,123.668786 339.489097,90.7137331 339.489097,90.7137331 Z" id="Path" fill="#0441BA" fill-rule="nonzero" opacity="0.409784226"></path>
                            <path d="M341.121973,105.272727 C341.121973,105.998212 339.109518,144.744497 343.983433,145.577461 C348.857348,146.410426 341.121973,105.272727 341.121973,105.272727 Z" id="Path" fill="#0441BA" fill-rule="nonzero" opacity="0.409784226"></path>
                            <path d="M267.439252,80.6344294 C267.439252,81.1852011 260.427761,104.238932 263.20539,106.284655 C265.983019,108.330379 267.439252,80.6344294 267.439252,80.6344294 Z" id="Path" fill-opacity="0.0675535402" fill="#0441BA" fill-rule="nonzero"></path>
                            <path d="M261.333333,76.1547389 C261.333333,76.1547389 257.387402,88.3191999 253.268657,92.7015931 C249.149912,97.0839863 250.129194,97.6151855 251.684524,100.138382 C253.239855,102.661578 255.832072,97.4823857 258.19387,91.5860749 C259.84143,86.5618978 260.894055,81.3879501 261.333333,76.1547389 L261.333333,76.1547389 Z" id="Path" fill-opacity="0.0675535402" fill="#0441BA" fill-rule="nonzero"></path>
                            <path d="M278.429907,41.4371373 C278.429907,41.4371373 273.693451,17.0386784 267.901098,17.9433104 C262.108745,18.8479425 272.667722,25.7657171 278.429907,41.4371373 Z" id="Path" fill="#0441BA" fill-rule="nonzero" opacity="0.409784226"></path>
                        </g>
                    </g>
                </g>
            </g>
        </g>
    </g>
</svg>