<svg width="124" height="161" viewBox="0 0 124 161" fill="none" xmlns="http://www.w3.org/2000/svg">
<path fill-rule="evenodd" clip-rule="evenodd" d="M7.86944 55.9834C29.4483 86.3916 21.1485 93.7918 4.86094 126.606C-11.4266 159.421 108.545 182.446 121.521 129.919C134.496 77.3918 94.3044 2.18007 52.9696 0.109753C11.6347 -1.96057 -13.7094 25.5751 7.86944 55.9834Z" fill="url(#paint0_linear)"/>
<mask id="mask0" mask-type="alpha" maskUnits="userSpaceOnUse" x="0" y="0" width="124" height="161">
<path fill-rule="evenodd" clip-rule="evenodd" d="M7.86944 55.9834C29.4483 86.3916 21.1485 93.7918 4.86094 126.606C-11.4266 159.421 108.545 182.446 121.521 129.919C134.496 77.3918 94.3044 2.18007 52.9696 0.109753C11.6347 -1.96057 -13.7094 25.5751 7.86944 55.9834Z" fill="white"/>
</mask>
<g mask="url(#mask0)">
<path fill-rule="evenodd" clip-rule="evenodd" d="M-26.1306 -13.0166C-4.55174 17.3916 -12.8515 24.7918 -29.1391 57.6064C-45.4266 90.421 74.5454 113.446 87.5208 60.9189C100.496 8.3918 60.3044 -66.8199 18.9696 -68.8902C-22.3653 -70.9606 -47.7094 -43.4249 -26.1306 -13.0166Z" fill="url(#paint1_linear)"/>
<path opacity="0.492234" fill-rule="evenodd" clip-rule="evenodd" d="M10.8694 3.98335C32.4483 34.3916 24.1485 41.7918 7.86094 74.6064C-8.4266 107.421 111.545 130.446 124.521 77.9189C137.496 25.3918 97.3044 -49.8199 55.9696 -51.8902C14.6347 -53.9606 -10.7094 -26.4249 10.8694 3.98335Z" fill="url(#paint2_linear)"/>
<path opacity="0.0782413" fill-rule="evenodd" clip-rule="evenodd" d="M-45.1306 67.9834C-23.5517 98.3916 -31.8515 105.792 -48.1391 138.606C-64.4266 171.421 55.5454 194.446 68.5208 141.919C81.4963 89.3918 41.3044 14.1801 -0.0304375 12.1098C-41.3653 10.0394 -66.7094 37.5751 -45.1306 67.9834Z" fill="url(#paint3_linear)"/>
<path opacity="0.297131" fill-rule="evenodd" clip-rule="evenodd" d="M61.8694 171.983C83.4483 202.392 75.1485 209.792 58.8609 242.606C42.5734 275.421 162.545 298.446 175.521 245.919C188.496 193.392 148.304 118.18 106.97 116.11C65.6347 114.039 40.2906 141.575 61.8694 171.983Z" fill="url(#paint4_linear)"/>
<path fill-rule="evenodd" clip-rule="evenodd" d="M-9.27901 153.98C8.68522 154.11 66.2327 154.11 58.2439 137.526C50.2551 120.941 -12.4111 132.843 -27.7992 137.526C-43.1873 142.209 -27.2432 153.849 -9.27901 153.98Z" fill="url(#paint5_linear)"/>
<path d="M64.1278 36.5425C63.417 36.6554 62.6571 36.5425 61.9217 36.6931C61.1046 36.8555 60.3209 37.1611 59.6053 37.5965C58.3184 38.4625 57.2781 39.6617 56.5903 41.0724C56.2577 41.6005 56.0248 42.1879 55.904 42.8041C55.904 43.3185 56.1858 43.7703 56.1001 44.2973C55.8642 45.2213 55.3005 46.0221 54.519 46.5434C54.2494 46.7693 53.6611 47.0579 53.6733 47.472C53.6856 47.8861 54.2371 48.1496 54.4332 48.3629C54.7824 48.6222 54.9878 49.0381 54.9847 49.4797C54.9847 49.7056 54.7396 49.8562 54.7886 50.082C54.8377 50.3079 55.1563 50.3707 55.1686 50.5212C55.1808 50.6718 54.8989 50.86 54.9112 51.0734C54.9235 51.2867 55.1931 51.3494 55.3034 51.5502C55.5335 51.9488 55.427 52.4615 55.0583 52.7297C54.6538 53.1313 54.4577 53.1187 54.7274 53.7712C54.8992 54.1975 55.2509 54.5206 55.6833 54.6496C56.4944 54.8203 57.3329 54.7989 58.1346 54.5869C59.2131 54.4739 59.3602 55.0763 59.7034 55.9797C60.2887 57.7262 60.607 59.5547 60.6471 61.4006C61.1741 61.6641 62.0811 60.8861 62.51 60.61C63.4905 59.9826 64.4343 59.3552 65.427 58.7278C66.3356 58.389 67.2237 57.9951 68.0866 57.5483C68.4887 57.2025 68.7364 56.7043 68.7729 56.1679C68.9441 54.7859 69.2311 53.4214 69.6309 52.0898C69.8562 51.6016 70.1874 51.1724 70.5991 50.8349C71.0979 50.2976 71.5114 49.6837 71.8247 49.0154C73.0503 46.6564 73.9083 43.8958 72.9646 41.3359C72.2192 39.8486 71.0812 38.6052 69.6799 37.7471C68.6181 37.1117 67.4164 36.762 66.1869 36.7307C65.4414 36.591 64.6773 36.591 63.9317 36.7307L64.1278 36.5425Z" fill="url(#paint6_linear)"/>
<path d="M60.0544 38.9686C62.4909 39.5308 63.941 39.6014 64.0035 42.1023C64.1838 43.114 64.2841 44.1383 64.3035 45.1658C64.2035 45.6285 63.7035 45.7785 63.541 46.2412C63.3785 46.7038 63.391 47.3666 63.216 47.8792C62.6409 49.5048 60.9034 50.7927 59.4659 51.8056C58.0283 52.8184 54.9907 52.9435 54.0532 54.3064C55.9533 55.1067 58.6533 54.3064 60.7034 54.3064C63.8035 54.3064 63.866 53.7062 64.916 51.3179C65.2035 50.6802 67.0411 45.591 68.3661 47.6667C68.8036 48.3419 67.6661 49.4423 67.9161 50.2801C68.1661 51.1178 69.2411 51.9181 70.0162 52.5433C71.3579 50.5367 73.5349 47.4491 74.6973 44.8464C77.161 39.33 75.942 37.7532 72.7602 37.7532C71.5991 37.7532 72.1855 33.3804 70.0162 34.1594C68.6852 34.6373 67.1279 35.1991 65.9153 34.8768C63.216 34.1594 64.0035 30 62.124 30.2535C60.2446 30.507 47.0535 30.7578 55.0523 39.6251C57.2801 42.0948 57.618 38.4063 60.0544 38.9686Z" fill="url(#paint7_linear)"/>
<path d="M55.4409 52.3682C54.9409 52.5058 53.7158 53.5061 53.8284 54.1063C54.0034 55.0191 55.6409 54.8816 56.3284 54.8941C57.2848 54.8913 58.2404 54.837 59.191 54.7315C60.2328 54.7023 61.263 54.5038 62.2411 54.1438C62.4901 54.0591 62.7137 53.9129 62.8911 53.7187C62.5661 53.5937 61.8536 53.7937 61.6411 53.5812C61.4286 53.3686 61.7411 52.6683 61.4161 52.3307C61.0911 51.9931 59.366 52.5308 58.791 52.7309C58.216 52.9309 55.2784 53.8813 55.6534 52.2557C55.5231 52.2979 55.4006 52.3613 55.2909 52.4433L55.4409 52.3682Z" fill="black"/>
<path d="M55.0031 48.8796C54.7109 49.0265 54.545 49.3434 54.5905 49.6673C55.0644 49.6214 55.5417 49.6214 56.0156 49.6673C56.4966 49.7756 56.9328 50.0287 57.2656 50.3926C57.7552 51.1297 57.8883 52.0476 57.6281 52.8934C58.7782 52.7559 58.6782 50.3176 58.1156 49.6923C57.7064 49.2979 57.1798 49.0477 56.6156 48.9796C56.2906 48.9796 54.9281 48.9796 54.9406 48.9046L55.0031 48.8796Z" fill="black"/>
<path d="M68.806 55.415C68.0933 57.278 62.3292 59.741 60.1411 59.6035C60.4537 61.3164 58.6156 62.7042 57.8654 64.2546C57.1152 65.8049 52.664 71.2312 52.1888 72.7565C51.076 76.3573 47.4 115.966 45.4995 133.946C44.6742 141.772 43.7365 149.512 42.6487 157.276C42.2485 160.127 42.161 162.977 41.7859 165.84C41.5734 167.453 39.7353 170.229 40.4605 171.829C41.7109 174.655 52.2514 175.03 55.2897 175.468C61.629 176.393 67.6307 176.718 73.8449 174.755C77.1709 173.742 80.1842 172.254 83.5601 171.367C86.9361 170.479 86.9236 169.979 86.9986 167.016C87.0334 160.303 86.4136 153.603 85.1481 147.011C82.4098 131.495 81.5846 124.231 77.3959 105.952C76.0205 99.9628 74.2075 95.5493 73.3073 89.4854C72.7321 85.6345 75.5579 72.1314 74.7702 68.8806C74.0825 66.0675 72.0569 57.0529 68.7935 55.8651L68.806 55.415Z" fill="url(#paint8_linear)"/>
<path d="M85.1501 147.015C82.4147 131.494 81.5904 124.227 77.4062 105.942C76.0323 99.9516 74.2212 95.5367 73.3219 89.4709C72.7474 85.6189 75.5951 71.161 74.7957 67.9093C74.1088 65.0953 72.0729 57.0284 68.8005 55.8403V55.415C68.1019 56.4879 67.0963 57.3247 65.9153 57.8163C66.5523 60.3177 67.464 62.7565 67.8762 65.3204C68.4683 69.5963 68.5982 73.9236 68.2634 78.2274C68.0595 84.0572 67.4838 89.868 66.5398 95.6243C67.2392 106.88 67.0893 118.324 64.4789 129.217C62.8706 136.471 59.9726 143.377 55.9232 149.603C51.9388 155.469 46.3057 159.684 41.8717 165.049C41.8717 165.312 41.8717 165.575 41.7843 165.837C41.572 167.451 39.7359 170.227 40.4604 171.828C41.7094 174.655 52.2386 175.03 55.2737 175.467C61.6062 176.393 67.6014 176.718 73.809 174.755C77.1314 173.742 80.1415 172.253 83.5139 171.365C86.8862 170.477 86.9237 169.989 86.9986 167.025C87.0334 160.311 86.4143 153.609 85.1501 147.015V147.015Z" fill="url(#paint9_linear)"/>
<path d="M70.3916 103.534C70.2834 108.93 65.8348 113.224 60.4388 113.141L45.8419 112.916C40.4128 112.832 36.0857 108.352 36.191 102.923V102.923C36.2958 97.5247 40.7454 93.2273 46.1439 93.3105L60.7407 93.5353C66.1724 93.6189 70.5005 98.1033 70.3916 103.534V103.534Z" fill="#4F1FAE"/>
<path d="M71.1489 104.793C71.0407 110.188 66.5921 114.482 61.1961 114.399L46.5993 114.174C41.1701 114.09 36.843 109.61 36.9484 104.181V104.181C37.0531 98.7829 41.5027 94.4855 46.9012 94.5687L61.4981 94.7934C66.9297 94.8771 71.2579 99.3614 71.1489 104.793V104.793Z" fill="#5C20D2"/>
<path d="M71.1001 102.472C71.0193 109.13 65.5345 114.448 58.8781 114.325L39.2663 113.96C39.2663 113.96 45.2229 103.318 51.4133 100.16C57.6037 97.0013 71.1582 97.6896 71.1582 97.6896L71.1001 102.472Z" fill="black" fill-opacity="0.0962358"/>
<rect width="20.198" height="1.5098" rx="0.754902" transform="matrix(-1 0 0 1 60.49 108.761)" fill="#441997"/>
<rect width="5.55446" height="1.25818" rx="0.629089" transform="matrix(-1 0 0 1 45.8464 97.6895)" fill="#441997"/>
<path fill-rule="evenodd" clip-rule="evenodd" d="M66.2969 111.278C65.3208 111.278 64.5296 110.489 64.5296 109.516C64.5296 108.544 65.3208 107.755 66.2969 107.755C67.273 107.755 68.0642 108.544 68.0642 109.516C68.0642 110.489 67.273 111.278 66.2969 111.278Z" fill="black"/>
<path fill-rule="evenodd" clip-rule="evenodd" d="M64.5295 111.278C63.5535 111.278 62.7622 110.489 62.7622 109.516C62.7622 108.544 63.5535 107.755 64.5295 107.755C65.5056 107.755 66.2969 108.544 66.2969 109.516C66.2969 110.489 65.5056 111.278 64.5295 111.278Z" fill="#39A4E9"/>
<path d="M49.749 106.245C49.2313 106.79 49.0166 107.483 48.2969 107.756C47.5772 108.028 46.807 108.14 46.0746 108.4C45.4004 108.582 44.8335 109.03 44.5089 109.638C44.0544 110.468 43.1074 110.876 42.6654 111.681C43.4609 112.709 44.7867 110.901 45.1908 110.443C44.6731 111.26 44.1301 112.09 43.7008 112.919C43.1752 113.717 42.791 114.596 42.5644 115.52C42.5644 116.003 42.5644 116.857 43.1326 116.337C43.4357 116.065 43.6251 115.322 43.8902 114.963C44.37 114.331 45.2539 113.043 46.0241 112.919C45.86 113.675 43.2589 116.028 43.966 116.907C44.6731 117.786 46.8196 114.777 47.2236 114.22C47.4888 115.458 45.2791 116.486 44.6983 117.315C45.4433 117.997 46.6681 117.13 47.2236 116.746C47.0216 117.068 46.6428 117.192 46.3903 117.427C47.653 118.331 50.7717 113.972 51.2894 113.043C51.5474 112.492 51.7586 111.92 51.9207 111.334C52.1441 110.874 52.4474 110.455 52.8172 110.096C53.0445 109.824 53.8147 109.155 53.6506 108.722C53.5748 108.486 52.5142 107.818 52.2617 107.595C52.0091 107.372 50.0646 105.911 49.9384 106.431L49.749 106.245Z" fill="url(#paint10_linear)"/>
<path d="M70.2375 64.4103C69.7603 63.6075 69.1513 62.8921 68.4367 62.2946C68.3621 62.3822 68.4367 62.2946 68.3621 62.2946L68.5484 62.4573C68.2035 62.1485 67.7667 61.9636 67.3064 61.9316C64.4002 60.4168 60.6369 62.7828 58.9851 65.1739C57.6786 66.9988 57.2252 69.3067 57.7431 71.4958C58.1902 73.3736 58.1157 75.4392 58.3889 77.3671C58.3617 78.4092 58.4199 79.4518 58.5628 80.4842C58.8318 82.1419 59.0059 83.8139 59.0845 85.4917C59.0845 86.5808 59.6185 88.2208 59.2956 89.2473C58.9955 89.118 58.6467 89.2299 58.4759 89.5102C57.9915 90.0861 58.4759 90.0736 58.4759 90.7621C58.4759 91.4506 57.9915 91.2253 57.5195 91.5257C56.7992 92.0014 57.2836 91.9138 57.2215 92.5898C57.1594 93.2658 51.0985 100.564 50.2912 102.968C49.9014 103.824 49.5977 104.717 49.3845 105.634C49.3845 106.248 49.3224 105.947 49.7447 106.36C50.167 106.773 50.701 107.162 51.1481 107.525C51.9057 108.125 52.713 108.651 53.4955 109.265C54.3152 108.914 54.7375 107.387 55.5572 106.761C57.1415 105.459 58.6354 104.05 60.0284 102.542C61.2704 101.153 62.5124 99.7129 63.7543 98.3109C64.7123 97.3842 65.5472 96.3364 66.2383 95.1937C66.538 94.0808 66.7539 92.9468 66.8842 91.8011C67.2301 90.6869 67.6449 89.5957 68.1262 88.5338C69.4773 85.0154 70.3829 81.3392 70.8213 77.5924C71.0324 75.7397 70.9827 73.8368 71.3057 72.0091C71.6257 70.478 71.6845 68.9031 71.4795 67.3521C71.2626 66.2984 70.8405 65.2985 70.2375 64.4103V64.4103Z" fill="url(#paint11_linear)"/>
<path d="M71.4727 67.121C71.2556 66.0605 70.8331 65.0542 70.2297 64.1603C70.0929 63.9335 69.9313 63.6941 69.7573 63.4673C68.7629 78.7751 64.7853 94.9648 50.1427 103.318C49.7981 104.048 49.5434 104.818 49.3845 105.611C49.3845 106.228 49.3224 105.926 49.745 106.342C50.1676 106.758 50.7021 107.148 51.1496 107.513C51.9078 108.118 52.7158 108.647 53.4988 109.265C54.3192 108.912 54.7418 107.375 55.5622 106.745C57.1478 105.435 58.6429 104.016 60.037 102.499C61.28 101.101 62.523 99.6517 63.7661 98.2406C64.7248 97.3079 65.5604 96.2535 66.2521 95.1034C66.552 93.9834 66.7681 92.8421 66.8984 91.6891C67.2446 90.5677 67.6598 89.4695 68.1414 88.4007C69.4937 84.8598 70.4 81.1601 70.8387 77.3892C71.0501 75.5246 71.0003 73.6095 71.3235 71.7701C71.6313 70.24 71.6817 68.6682 71.4727 67.121V67.121Z" fill="url(#paint12_linear)"/>
<path d="M104.736 96.75C104.286 96.8265 103.804 96.75 103.346 96.8605C102.829 96.9691 102.336 97.1736 101.89 97.4639C101.068 98.0593 100.414 98.8653 99.9936 99.8009C99.7815 100.159 99.6349 100.554 99.561 100.965C99.561 101.314 99.7357 101.62 99.6858 101.968C99.5452 102.578 99.1898 103.113 98.6875 103.472C98.5128 103.625 98.1468 103.812 98.1634 104.093C98.18 104.373 98.5211 104.543 98.6459 104.687C98.8722 104.867 99.0043 105.143 99.0036 105.435C99.0036 105.588 98.8456 105.69 98.8788 105.843C98.9121 105.996 99.1118 106.03 99.1201 106.132C99.1284 106.234 98.9454 106.362 98.9537 106.506C98.962 106.651 99.1284 106.693 99.195 106.829C99.3449 107.098 99.2774 107.439 99.0369 107.628C98.7873 107.891 98.6542 107.891 98.8372 108.333C98.942 108.613 99.1655 108.828 99.4445 108.92C99.9614 109.037 100.499 109.022 101.009 108.877C101.682 108.801 101.84 109.209 101.999 109.82C102.368 111 102.57 112.228 102.598 113.466C102.93 113.636 103.504 113.118 103.762 112.939C104.378 112.514 104.977 112.09 105.609 111.673C106.179 111.444 106.734 111.18 107.273 110.883C107.529 110.643 107.684 110.311 107.705 109.956C107.813 109.031 107.994 108.116 108.246 107.22C108.382 106.893 108.59 106.602 108.854 106.37C109.159 106.01 109.412 105.607 109.602 105.172C110.334 103.591 110.917 101.773 110.318 100.005C109.86 99.0197 109.142 98.1841 108.246 97.5913C107.588 97.1654 106.829 96.9277 106.05 96.903C105.759 96.903 104.802 96.716 104.627 96.903L104.736 96.75Z" fill="url(#paint13_linear)"/>
<path d="M101.797 98.0634C103.762 97.5587 104.623 98.6859 104.656 100.36C104.754 101.037 104.804 101.72 104.807 102.404C104.74 102.707 104.431 102.816 104.33 103.119C104.23 103.422 104.238 103.867 104.121 104.212C103.607 105.3 102.783 106.211 101.755 106.828C100.827 107.501 98.9711 107.594 98.4109 108.511C99.5898 109.049 101.27 108.511 102.541 108.511C104.472 108.511 104.506 108.107 105.158 106.517C105.334 106.088 106.479 102.69 107.298 104.078C107.574 104.532 106.864 105.264 107.022 105.819C107.31 106.435 107.761 106.96 108.327 107.333C109.924 104.759 116.82 102.19 114.638 99.1536C109.822 98.0634 115.444 95.0686 111.405 92.9129C109.339 91.8108 102.485 89.3012 99.8676 93.4337C97.2507 97.5662 101.279 98.2064 101.764 98.0634H101.797Z" fill="#280808"/>
<path d="M99.1776 107.342C98.866 107.432 98.0996 108.084 98.167 108.48C98.2765 109.082 99.2955 108.991 99.7671 108.999C100.367 108.996 100.965 108.96 101.561 108.892C102.213 108.875 102.857 108.747 103.464 108.513C103.62 108.457 103.759 108.363 103.868 108.241C103.666 108.158 103.22 108.29 103.026 108.15C102.832 108.01 103.085 107.556 102.891 107.325C102.698 107.094 101.611 107.457 101.249 107.589C100.887 107.721 99.0513 108.34 99.2871 107.276C99.2052 107.305 99.1285 107.347 99.0597 107.399L99.1776 107.342Z" fill="#280808"/>
<path d="M99.1745 105C98.9867 105.109 98.8829 105.323 98.9118 105.54C99.2104 105.509 99.5114 105.509 99.81 105.54C100.118 105.616 100.394 105.79 100.598 106.037C100.911 106.549 100.994 107.172 100.827 107.75C101.556 107.656 101.479 106.037 101.132 105.574C100.883 105.307 100.551 105.135 100.191 105.086C99.988 105.086 99.1321 105.086 99.1406 105.034L99.1745 105Z" fill="#280808"/>
<path d="M107.603 109.25C107.155 110.501 103.539 112.148 102.171 112.056C102.365 113.205 101.216 114.134 100.743 115.174C100.27 116.213 95.9193 122.94 95.6236 123.962C94.9309 126.37 94.1875 149.862 93.0047 161.921C92.4894 167.169 91.8981 172.366 91.2138 177.571C90.9688 179.481 90.9096 181.399 90.6731 183.317C90.5379 184.407 89.389 186.267 89.8283 187.331C90.6309 189.224 97.2287 189.486 99.1211 189.773C103.1 190.39 106.859 190.576 110.762 189.292C112.849 188.607 114.741 187.602 116.853 187.019C118.965 186.436 118.965 186.098 118.999 184.069C119.022 179.579 118.638 175.096 117.85 170.676C116.161 160.265 115.611 155.397 112.984 143.127C112.139 139.114 112.139 136.114 111.548 132.049C111.185 129.463 110.568 115.934 110.07 113.746C109.639 111.861 109.639 110.365 107.586 109.52L107.603 109.25Z" fill="#041D23"/>
<g style="mix-blend-mode:multiply">
<path d="M117.825 170.686C116.136 160.276 115.587 155.409 112.959 143.141C112.114 139.127 112.292 137.023 111.717 132.959C111.354 130.374 110.543 115.95 110.028 113.762C109.597 111.878 109.597 110.382 107.544 109.537V109.25C107.119 109.957 106.488 110.517 105.736 110.855C106.133 112.545 106.708 114.168 106.961 115.857C107.343 118.742 107.433 121.658 107.231 124.56C107.104 128.468 106.743 132.365 106.15 136.229C106.589 143.791 106.488 151.438 104.858 158.755C103.883 163.586 102.085 168.213 99.5437 172.435C97.0092 176.373 93.5032 179.195 90.7238 182.794C90.7238 182.972 90.7238 183.141 90.6731 183.318C90.538 184.408 89.389 186.267 89.8283 187.332C90.6309 189.224 97.2289 189.486 99.1213 189.774C103.1 190.39 106.86 190.576 110.763 189.292C112.849 188.607 114.742 187.602 116.854 187.019C118.966 186.436 118.966 186.098 119 184.07C119.014 179.582 118.621 175.103 117.825 170.686V170.686Z" fill="url(#paint14_linear)"/>
</g>
<path d="M95.8088 143C95.4968 143.377 95.3654 143.857 94.9302 144.037C94.495 144.217 94.027 144.311 93.5918 144.482C93.1737 144.613 92.8297 144.925 92.6475 145.339C92.3683 145.905 91.8264 146.196 91.5308 146.736C92.007 147.447 92.8117 146.196 93.0499 145.879C92.7378 146.445 92.4094 147.01 92.1466 147.593C91.8331 148.141 91.6032 148.736 91.4651 149.358C91.4651 149.692 91.4651 150.283 91.81 149.915C91.9906 149.727 92.0974 149.221 92.2698 148.964C92.5572 148.535 93.0909 147.644 93.559 147.559C93.4604 148.081 91.9167 149.692 92.3191 150.292C92.7214 150.892 94.0434 148.827 94.2898 148.45C94.454 149.307 93.1155 150.009 92.8035 150.575C93.2469 151.046 93.9942 150.446 94.3226 150.181C94.1994 150.403 93.9695 150.489 93.8217 150.643C94.5854 151.26 96.4657 148.27 96.786 147.636C96.9301 147.257 97.0454 146.868 97.1308 146.47C97.2561 146.157 97.4309 145.867 97.6482 145.613C97.7877 145.425 98.2476 144.971 98.149 144.662C98.0998 144.5 97.4675 144.037 97.3279 143.891C97.1883 143.745 96.0059 142.734 95.9238 143.094L95.8088 143Z" fill="url(#paint15_linear)"/>
<path d="M108.921 115.459C108.626 114.933 108.245 114.46 107.795 114.06C107.753 114.118 107.795 114.06 107.745 114.06L107.862 114.168C107.649 113.964 107.371 113.839 107.077 113.816C105.267 112.811 102.906 114.386 101.889 115.971C101.086 117.209 100.818 118.721 101.146 120.162C101.422 121.411 101.388 122.785 101.555 124.068C101.536 124.76 101.573 125.452 101.664 126.138C101.833 127.249 101.942 128.368 101.989 129.491C102.151 130.319 102.196 131.166 102.122 132.006C101.933 131.913 101.705 131.987 101.605 132.174C101.305 132.559 101.605 132.551 101.605 132.97C101.605 133.389 101.296 133.28 101.004 133.473C100.554 133.791 100.854 133.733 100.821 134.185C100.788 134.638 97.0003 139.458 96.4915 141.059C96.252 141.63 96.0649 142.222 95.9325 142.828C95.9325 143.238 95.8908 143.037 96.1578 143.314C96.4224 143.588 96.7008 143.848 96.992 144.093C97.4675 144.496 97.968 144.839 98.4518 145.25C98.9607 145.024 99.286 144.001 99.7365 143.574C100.744 142.715 101.692 141.788 102.573 140.799C103.357 139.869 104.124 138.921 104.9 137.983C105.52 137.355 106.058 136.651 106.502 135.887C106.684 135.145 106.815 134.392 106.894 133.632C107.104 132.894 107.357 132.169 107.653 131.461C108.495 129.114 109.055 126.674 109.321 124.194C109.455 122.961 109.422 121.679 109.622 120.48C109.826 119.474 109.874 118.442 109.764 117.421C109.61 116.719 109.324 116.053 108.921 115.459Z" fill="url(#paint16_linear)"/>
<g style="mix-blend-mode:multiply">
<path d="M109.761 117.414C109.609 116.713 109.326 116.047 108.926 115.453C108.834 115.302 108.742 115.151 108.633 115C108.007 125.1 105.51 135.762 96.4002 141.311C96.1863 141.796 96.0293 142.305 95.9325 142.828C95.9325 143.238 95.8908 143.037 96.158 143.314C96.4228 143.588 96.7016 143.848 96.993 144.093C97.469 144.496 97.97 144.839 98.4543 145.25C98.9637 145.024 99.2894 144.001 99.7403 143.574C100.747 142.713 101.692 141.783 102.571 140.791C103.356 139.86 104.124 138.913 104.901 137.975C105.521 137.347 106.06 136.643 106.504 135.879C106.686 135.137 106.817 134.384 106.896 133.624C107.106 132.886 107.36 132.161 107.656 131.454C108.499 129.107 109.06 126.667 109.326 124.186C109.46 122.954 109.427 121.672 109.627 120.473C109.829 119.467 109.874 118.435 109.761 117.414V117.414Z" fill="url(#paint17_linear)"/>
</g>
</g>
<defs>
<linearGradient id="paint0_linear" x1="0.248732" y1="0.645904" x2="0.248732" y2="161" gradientUnits="userSpaceOnUse">
<stop stop-color="#5C20D2"/>
<stop offset="1" stop-color="#39A4E9"/>
</linearGradient>
<linearGradient id="paint1_linear" x1="-33.7513" y1="-68.3541" x2="-33.7513" y2="92" gradientUnits="userSpaceOnUse">
<stop stop-color="#5C20D2"/>
<stop offset="1" stop-color="#39A4E9"/>
</linearGradient>
<linearGradient id="paint2_linear" x1="3.24873" y1="-51.3541" x2="3.24873" y2="109" gradientUnits="userSpaceOnUse">
<stop stop-color="#5C20D2"/>
<stop offset="1" stop-color="#39A4E9"/>
</linearGradient>
<linearGradient id="paint3_linear" x1="-52.7513" y1="12.6459" x2="-52.7513" y2="173" gradientUnits="userSpaceOnUse">
<stop stop-color="#5C20D2"/>
<stop offset="1" stop-color="#39A4E9"/>
</linearGradient>
<linearGradient id="paint4_linear" x1="74.3622" y1="103.203" x2="74.3622" y2="181.26" gradientUnits="userSpaceOnUse">
<stop stop-color="#5C20D2"/>
<stop offset="1"/>
</linearGradient>
<linearGradient id="paint5_linear" x1="6.20211" y1="173.334" x2="21.5544" y2="116.232" gradientUnits="userSpaceOnUse">
<stop stop-color="#5C20D2"/>
<stop offset="0.980337" stop-color="#39A4E9"/>
</linearGradient>
<linearGradient id="paint6_linear" x1="80.2549" y1="33.8308" x2="67.5516" y2="79.1619" gradientUnits="userSpaceOnUse">
<stop stop-color="#EAEAEA"/>
<stop offset="1" stop-color="#D0D0D0"/>
</linearGradient>
<linearGradient id="paint7_linear" x1="90.5148" y1="33.8043" x2="71.6339" y2="63.3045" gradientUnits="userSpaceOnUse">
<stop/>
<stop offset="1"/>
</linearGradient>
<linearGradient id="paint8_linear" x1="89.5015" y1="58.706" x2="72.7639" y2="177.26" gradientUnits="userSpaceOnUse">
<stop stop-color="#CCCCCC"/>
<stop offset="1" stop-color="#D9D7D7"/>
</linearGradient>
<linearGradient id="paint9_linear" x1="92.4638" y1="61.3472" x2="78.2851" y2="160.027" gradientUnits="userSpaceOnUse">
<stop stop-color="#D4D4D4"/>
<stop offset="1" stop-color="#F4F4F4"/>
</linearGradient>
<linearGradient id="paint10_linear" x1="56.3098" y1="104.03" x2="55.022" y2="118.196" gradientUnits="userSpaceOnUse">
<stop stop-color="#EAEAEA"/>
<stop offset="1" stop-color="#A7A7A7"/>
</linearGradient>
<linearGradient id="paint11_linear" x1="85.6847" y1="70.0604" x2="48.3063" y2="105.954" gradientUnits="userSpaceOnUse">
<stop stop-color="#FAFAFA"/>
<stop offset="1" stop-color="#F4F4F4"/>
</linearGradient>
<linearGradient id="paint12_linear" x1="104.939" y1="82.2364" x2="55.4153" y2="103.94" gradientUnits="userSpaceOnUse">
<stop stop-color="#F6F6F6"/>
<stop offset="1" stop-color="#EAEAEA"/>
</linearGradient>
<linearGradient id="paint13_linear" x1="98.237" y1="96.9503" x2="98.237" y2="113.5" gradientUnits="userSpaceOnUse">
<stop stop-color="#DFDFDF"/>
<stop offset="1" stop-color="#E6E4E1"/>
</linearGradient>
<linearGradient id="paint14_linear" x1="89.7288" y1="109.25" x2="89.7288" y2="190.25" gradientUnits="userSpaceOnUse">
<stop stop-color="#E3E3E3"/>
<stop offset="1" stop-color="#CDCDCD"/>
</linearGradient>
<linearGradient id="paint15_linear" x1="91.4651" y1="143" x2="91.4651" y2="150.75" gradientUnits="userSpaceOnUse">
<stop stop-color="#DFDEDC"/>
<stop offset="1" stop-color="#B5B5B4"/>
</linearGradient>
<linearGradient id="paint16_linear" x1="95.9302" y1="113.5" x2="95.9302" y2="145.25" gradientUnits="userSpaceOnUse">
<stop stop-color="#9C9D9E"/>
<stop offset="1" stop-color="#818181"/>
</linearGradient>
<linearGradient id="paint17_linear" x1="95.9302" y1="115" x2="95.9302" y2="145.25" gradientUnits="userSpaceOnUse">
<stop stop-color="#D6D6D6"/>
<stop offset="1" stop-color="#ADADAD"/>
</linearGradient>
</defs>
</svg>
