<svg width="38" height="38" viewBox="0 0 38 38" fill="none" xmlns="http://www.w3.org/2000/svg">
<path fill-rule="evenodd" clip-rule="evenodd" d="M19 38C29.4934 38 38 29.4934 38 19C38 8.50659 29.4934 0 19 0C8.50659 0 0 8.50659 0 19C0 29.4934 8.50659 38 19 38Z" fill="black"/>
<mask id="mask0" mask-type="alpha" maskUnits="userSpaceOnUse" x="0" y="0" width="38" height="38">
<path fill-rule="evenodd" clip-rule="evenodd" d="M19 38C29.4934 38 38 29.4934 38 19C38 8.50659 29.4934 0 19 0C8.50659 0 0 8.50659 0 19C0 29.4934 8.50659 38 19 38Z" fill="white"/>
</mask>
<g mask="url(#mask0)">
<path d="M19.4933 9.58154C20.0128 9.66929 20.5707 9.58154 21.0997 9.70829C21.6978 9.83296 22.2683 10.0676 22.783 10.4005C23.7336 11.0837 24.49 12.0084 24.9762 13.0818C25.2215 13.4926 25.391 13.9452 25.4764 14.4176C25.4764 14.8173 25.2744 15.1683 25.3321 15.5681C25.4947 16.2675 25.9055 16.8818 26.4864 17.2938C26.6884 17.4693 27.1116 17.6838 27.0924 18.0056C27.0731 18.3273 26.6788 18.5223 26.5345 18.6881C26.2728 18.8936 26.1201 19.2106 26.1209 19.5461C26.1209 19.7216 26.3036 19.8386 26.2651 20.0141C26.2267 20.1896 25.9958 20.2286 25.9862 20.3456C25.9766 20.4626 26.1882 20.6088 26.1786 20.7746C26.169 20.9403 25.9766 20.9891 25.8996 21.1451C25.7263 21.454 25.8043 21.8452 26.0824 22.0616C26.371 22.3639 26.5249 22.3639 26.3132 22.8709C26.1921 23.1915 25.9337 23.439 25.611 23.5436C25.0134 23.6779 24.3924 23.6612 23.8027 23.4949C23.0235 23.4071 22.8408 23.8751 22.658 24.5771C22.2306 25.9305 21.9974 27.3392 21.9654 28.7599C21.5807 28.9549 20.9169 28.3601 20.6188 28.1554C19.9069 27.6679 19.2144 27.1804 18.4833 26.7026C17.8247 26.4398 17.1822 26.137 16.5595 25.7959C16.2631 25.5208 16.0837 25.1397 16.0593 24.7331C15.9352 23.6712 15.7261 22.6212 15.4341 21.5936C15.2771 21.2182 15.0368 20.8846 14.7319 20.6186C14.3783 20.2059 14.0866 19.7427 13.8662 19.2438C13.0197 17.4303 12.3464 15.3438 13.0389 13.3158C13.5686 12.1855 14.3978 11.2268 15.4341 10.5468C16.1957 10.0581 17.0726 9.78541 17.9735 9.75704C18.3102 9.75704 19.4164 9.54254 19.6184 9.75704L19.4933 9.58154Z" fill="url(#paint0_linear)"/>
<path d="M22.891 11.0884C20.6192 10.5093 19.6235 11.8025 19.5848 13.723C19.472 14.4997 19.4138 15.2833 19.4108 16.0681C19.4881 16.4155 19.8458 16.541 19.9618 16.8884C20.0778 17.2358 20.0681 17.7473 20.2035 18.143C20.7984 19.3912 21.7504 20.4356 22.9393 21.1443C24.0123 21.9164 26.1585 22.0225 26.8062 23.0744C25.4431 23.6921 23.5 23.0744 22.0306 23.0744C19.7975 23.0744 19.7588 22.6112 19.0048 20.7872C18.8017 20.2951 17.4773 16.3962 16.53 17.9886C16.2109 18.5097 17.0327 19.3493 16.849 19.9862C16.5171 20.6935 15.995 21.2949 15.3409 21.7233C10.4573 22.2016 9.74026 16.8884 11.3178 12.6158C9.74026 11.0884 10.7994 4.89918 15.3409 7.00785C18.698 8.56658 18.9381 5.72785 20.4961 6.3877C21.83 6.95262 22.7609 9.69742 23.2776 10.8761C23.3743 11.098 23.4903 11.2524 22.9296 11.0884H22.891Z" fill="url(#paint1_linear)"/>
<path d="M25.9197 21.7331C26.28 21.8371 27.1661 22.5847 27.0882 23.0389C26.9616 23.7296 25.7834 23.6255 25.2381 23.635C24.545 23.6314 23.8526 23.5903 23.1641 23.512C22.4101 23.4924 21.6654 23.3451 20.9635 23.0767C20.7831 23.0126 20.6223 22.9052 20.4961 22.7645C20.7298 22.6698 21.2459 22.8212 21.4698 22.6604C21.6938 22.4995 21.4017 21.9791 21.6256 21.7141C21.8496 21.4492 23.1057 21.8655 23.5244 22.0169C23.9431 22.1683 26.0658 22.878 25.7931 21.6574C25.8878 21.6912 25.9765 21.739 26.0561 21.7993L25.9197 21.7331Z" fill="#280808"/>
<path d="M25.9233 19.0466C26.1404 19.1721 26.2604 19.4167 26.227 19.6658C25.8817 19.6301 25.5337 19.6301 25.1884 19.6658C24.832 19.7537 24.5127 19.9534 24.2772 20.2359C23.9152 20.8239 23.8191 21.5384 24.0127 22.2017C23.1701 22.0936 23.2582 20.2359 23.66 19.7052C23.9478 19.399 24.3318 19.2012 24.7475 19.1449C24.9827 19.1449 25.9723 19.1449 25.9625 19.0859L25.9233 19.0466Z" fill="#280808"/>
<path d="M16.1781 23.9226C16.6958 25.3575 20.8765 27.248 22.4589 27.1413C22.2342 28.4599 23.5627 29.5263 24.1097 30.7188C24.6567 31.9113 29.6872 39.6285 30.0291 40.8016C30.83 43.5646 31.6896 70.5167 33.0571 84.3514C33.653 90.372 34.3367 96.3344 35.1279 102.307C35.4112 104.498 35.4796 106.698 35.7531 108.899C35.9094 110.15 37.2378 112.283 36.7299 113.504C35.8019 115.676 28.1731 115.976 25.9851 116.306C21.3844 117.014 17.0377 117.227 12.5249 115.753C10.1122 114.968 7.92418 113.814 5.48219 113.146C3.04021 112.477 3.04021 112.089 3.00114 109.762C2.97455 104.61 3.41918 99.4672 4.32957 94.3954C6.28316 82.4512 6.91808 76.8669 9.95592 62.7898C10.9327 58.1847 10.9327 54.743 11.6165 50.0797C12.0365 47.113 12.7495 31.5913 13.3259 29.0803C13.824 26.9184 13.824 25.2023 16.1976 24.2328L16.1781 23.9226Z" fill="url(#paint2_linear)"/>
<g style="mix-blend-mode:multiply">
<path d="M4.35821 94.4075C6.31184 82.4645 6.94677 76.8808 9.98466 62.8051C10.9615 58.2005 10.7563 55.7867 11.4206 51.1239C11.8406 48.1575 12.7784 31.6099 13.3742 29.0992C13.8724 26.9374 13.8724 25.2216 16.246 24.2522V23.9226C16.7374 24.7336 17.4668 25.3762 18.3364 25.7645C17.8773 27.7033 17.2131 29.5645 16.9201 31.5033C16.479 34.8128 16.3742 38.1578 16.6075 41.4881C16.7552 45.9713 17.1727 50.4417 17.8578 54.8755C17.3499 63.5516 17.4671 72.3246 19.3523 80.7196C20.4792 86.2618 22.5575 91.5706 25.4965 96.4141C28.4269 100.932 32.4807 104.169 35.6944 108.299C35.6944 108.503 35.6944 108.696 35.7531 108.9C35.9093 110.15 37.2378 112.283 36.7299 113.505C35.8019 115.676 28.173 115.977 25.9849 116.306C21.3841 117.014 17.0373 117.227 12.5244 115.754C10.1116 114.968 7.92358 113.815 5.48154 113.146C3.03951 112.477 3.03951 112.089 3.00043 109.763C2.98411 104.614 3.43856 99.4746 4.35821 94.4075V94.4075Z" fill="url(#paint3_linear)"/>
</g>
<path d="M14.6537 31.0465C14.995 30.4426 15.4351 29.8998 15.9559 29.4405C16.0041 29.5078 15.9559 29.4405 16.0137 29.4405L15.8787 29.5655C16.1251 29.3305 16.4454 29.1878 16.7854 29.1616C18.8784 28.0076 21.6081 29.8156 22.7848 31.6331C23.7132 33.0536 24.023 34.789 23.6433 36.4416C23.325 37.8745 23.3636 39.4517 23.1707 40.9231C23.1922 41.7169 23.1502 42.5112 23.0453 43.2984C22.8488 44.5728 22.7232 45.857 22.6691 47.1452C22.4812 48.0948 22.4292 49.0661 22.5148 50.0303C22.7336 49.9239 22.9976 50.0088 23.1128 50.2226C23.46 50.665 23.1128 50.6554 23.1128 51.1362C23.1128 51.617 23.4697 51.492 23.8073 51.7132C24.3281 52.0787 23.9809 52.0113 24.0195 52.5306C24.058 53.05 28.4371 58.5797 29.0255 60.4165C29.3023 61.0719 29.5186 61.7511 29.6717 62.4457C29.6717 62.9169 29.7199 62.6861 29.4113 63.0034C29.1054 63.3179 28.7834 63.6164 28.4467 63.8978C27.8969 64.3594 27.3182 64.7537 26.7588 65.2249C26.1704 64.9653 25.7942 63.792 25.2734 63.3016C24.108 62.3171 23.0122 61.2535 21.9939 60.1184C21.0872 59.0509 20.1999 57.9642 19.3028 56.8871C18.5861 56.167 17.9638 55.3591 17.4509 54.4829C17.2406 53.6319 17.0891 52.7676 16.9976 51.8959C16.755 51.049 16.4619 50.2173 16.1198 49.4052C15.1461 46.7124 14.4984 43.9133 14.1907 41.0673C14.0364 39.6536 14.075 38.1823 13.8435 36.807C13.6069 35.6525 13.5515 34.4683 13.6795 33.2969C13.8575 32.4917 14.1882 31.7279 14.6537 31.0465Z" fill="url(#paint4_linear)"/>
<g style="mix-blend-mode:multiply">
<path d="M13.683 33.289C13.8582 32.4846 14.1859 31.7209 14.6485 31.0388C14.7547 30.8657 14.8609 30.6926 14.9864 30.5195C15.7106 42.1072 18.5974 54.3392 29.131 60.7053C29.3783 61.2626 29.5598 61.8467 29.6717 62.4458C29.6717 62.917 29.72 62.6862 29.411 63.0036C29.1048 63.318 28.7825 63.6165 28.4455 63.8979C27.8952 64.3595 27.3159 64.7538 26.7559 65.225C26.1669 64.9653 25.7904 63.7921 25.269 63.3017C24.1055 62.3138 23.0119 61.2471 21.996 60.1091C21.0884 59.0416 20.2001 57.955 19.3022 56.878C18.5848 56.1579 17.9619 55.3501 17.4485 54.4739C17.2379 53.623 17.0863 52.7587 16.9947 51.8871C16.7519 51.0402 16.4585 50.2085 16.1161 49.3964C15.1413 46.7038 14.4931 43.9049 14.1851 41.0591C14.0306 39.6455 14.0692 38.1741 13.8375 36.799C13.6038 35.644 13.5517 34.4599 13.683 33.289V33.289Z" fill="url(#paint5_linear)"/>
</g>
</g>
<defs>
<linearGradient id="paint0_linear" x1="27.0073" y1="9.81131" x2="27.0073" y2="28.7986" gradientUnits="userSpaceOnUse">
<stop stop-color="#DFDFDF"/>
<stop offset="1" stop-color="#E6E4E1"/>
</linearGradient>
<linearGradient id="paint1_linear" x1="17.822" y1="1.38635" x2="33.8731" y2="15.8374" gradientUnits="userSpaceOnUse">
<stop stop-color="#5F5F5F"/>
<stop offset="1"/>
</linearGradient>
<linearGradient id="paint2_linear" x1="36.6337" y1="25.0826" x2="36.6337" y2="116.853" gradientUnits="userSpaceOnUse">
<stop stop-color="#5C20D2"/>
<stop offset="1" stop-color="#39A4E9"/>
</linearGradient>
<linearGradient id="paint3_linear" x1="39.3218" y1="108.862" x2="-31.5781" y2="120.467" gradientUnits="userSpaceOnUse">
<stop stop-color="#EBEBEB"/>
<stop offset="1" stop-color="#D2D2D2"/>
</linearGradient>
<linearGradient id="paint4_linear" x1="11.0533" y1="-4.15454" x2="45.1995" y2="10.5595" gradientUnits="userSpaceOnUse">
<stop stop-color="#5C20D2"/>
<stop offset="1" stop-color="#39A4E9"/>
</linearGradient>
<linearGradient id="paint5_linear" x1="6.79718" y1="-32.5889" x2="61.1584" y2="-17.1889" gradientUnits="userSpaceOnUse">
<stop stop-color="#5C20D2"/>
<stop offset="1" stop-color="#39A4E9"/>
</linearGradient>
</defs>
</svg>
