<svg width="63" height="19" viewBox="0 0 63 19" fill="none" xmlns="http://www.w3.org/2000/svg">
<path fill-rule="evenodd" clip-rule="evenodd" d="M7.51123 13.1725V17.9457C7.13299 18.0114 6.78765 18.0443 6.4752 18.0443C4.62513 18.0443 3.08343 17.4359 1.85006 16.2189C0.616679 15.002 0 13.4768 0 11.6431C0 9.85885 0.622846 8.34593 1.86856 7.10433C3.11427 5.86273 4.62924 5.24194 6.41353 5.24194C8.40338 5.24194 9.9718 5.82368 11.1188 6.98716C12.2659 8.15065 12.8394 9.73963 12.8394 11.7541V17.7853H8.22658V12.0872C8.22658 11.4376 8.0683 10.9196 7.75174 10.5331C7.43517 10.1466 7.00966 9.95342 6.4752 9.95342C5.99007 9.95342 5.57073 10.1302 5.21716 10.4838C4.86359 10.8373 4.68681 11.2567 4.68681 11.7418C4.68681 12.2516 4.84715 12.6709 5.16782 12.9998C5.4885 13.3287 5.89551 13.4932 6.38886 13.4932C6.79176 13.4932 7.16588 13.3863 7.51123 13.1725Z" fill="white"/>
<path fill-rule="evenodd" clip-rule="evenodd" d="M26.7132 17.7852H22.1004V10.8413C22.1004 10.1342 21.8085 9.78063 21.2247 9.78063C20.6491 9.78063 20.3613 10.1342 20.3613 10.8413V17.7852H15.7485V10.9277C15.7485 9.32428 16.2789 7.97375 17.3396 6.87604C18.4003 5.77834 19.6994 5.22949 21.237 5.22949C22.9967 5.22949 24.4068 5.86673 25.4675 7.14122C26.298 8.13614 26.7132 9.52161 26.7132 11.2977V17.7852Z" fill="white"/>
<path fill-rule="evenodd" clip-rule="evenodd" d="M33.729 0.949707V5.66118H35.8011V10.533H33.729C33.729 11.5115 33.8832 12.1857 34.1915 12.5557C34.4999 12.9257 35.0652 13.1107 35.8874 13.1107V17.9579C35.649 17.9661 35.4722 17.9702 35.3571 17.9702C34.3128 17.9702 33.3282 17.7277 32.4031 17.2425C31.4781 16.7574 30.736 16.0996 30.1769 15.2691C29.4698 14.2084 29.1162 12.8024 29.1162 11.051V0.949707H33.729Z" fill="white"/>
<path fill-rule="evenodd" clip-rule="evenodd" d="M42.9033 5.4885V17.7852H38.2905V5.4885H42.9033ZM40.6096 0C41.2345 0 41.7751 0.219949 42.2315 0.659853C42.6878 1.09976 42.916 1.61982 42.916 2.22007C42.916 2.86142 42.7002 3.38766 42.2685 3.79878C41.8368 4.20991 41.2839 4.41547 40.6096 4.41547C39.9354 4.41547 39.3824 4.20991 38.9507 3.79878C38.519 3.38766 38.3032 2.86142 38.3032 2.22007C38.3032 1.61982 38.5314 1.09976 38.9877 0.659853C39.4441 0.219949 39.9847 0 40.6096 0Z" fill="white"/>
<path fill-rule="evenodd" clip-rule="evenodd" d="M62.7099 17.7853H58.0971V11.1498C58.0971 10.64 58.0437 10.2864 57.9368 10.0891C57.8299 9.89175 57.6367 9.79308 57.3571 9.79308C56.8391 9.79308 56.5801 10.2494 56.5801 11.1621V17.7853H51.9673V11.1498C51.9673 10.64 51.9118 10.2864 51.8008 10.0891C51.6897 9.89175 51.4945 9.79308 51.2149 9.79308C50.7051 9.79308 50.4502 10.2494 50.4502 11.1621V17.7853H45.8374V10.2124C45.8374 8.83105 46.302 7.6573 47.2311 6.69115C48.1603 5.72501 49.2867 5.24194 50.6105 5.24194C51.9755 5.24194 53.2006 5.81751 54.286 6.96866C55.4947 5.81751 56.7034 5.24194 57.9121 5.24194C59.4497 5.24194 60.6831 5.80107 61.6122 6.91933C62.344 7.79091 62.7099 9.06127 62.7099 10.7304V17.7853Z" fill="white"/>
</svg>
