<svg width="515" height="240" viewBox="0 0 515 240" fill="none" xmlns="http://www.w3.org/2000/svg">
<path d="M193.984 127.443V156.327H187.488C170.86 156.327 158.332 152.847 149.904 145.887C141.784 152.847 132.194 156.327 121.136 156.327C108.839 156.327 98.3219 151.997 89.5829 143.335C84.9429 138.619 81.5009 133.321 79.2599 127.443H76.7069C67.1169 127.443 62.3229 134.674 62.3229 149.135V196.231H33.4399V149.135C33.4399 115.419 47.8619 98.559 76.7079 98.559H78.3319C80.4199 91.755 84.1699 85.607 89.5839 80.115C98.3219 71.455 108.84 67.123 121.137 67.123C133.433 67.123 143.949 71.455 152.689 80.115C159.029 86.457 163.089 93.803 164.869 102.155V102.387C165.023 103.315 165.178 104.475 165.333 105.867L165.449 106.447L165.565 107.027C165.719 108.575 165.796 110.159 165.796 111.783V112.943C165.796 122.61 173.026 127.443 187.488 127.443H193.984V127.443ZM121.136 127.443C125.466 127.443 129.178 125.897 132.272 122.803C135.364 119.711 136.912 116.037 136.912 111.783C136.912 107.453 135.364 103.741 132.272 100.647C129.178 97.555 125.466 96.007 121.136 96.007C116.804 96.007 113.092 97.555 109.999 100.647C106.905 103.741 105.359 107.453 105.359 111.783C105.359 116.037 106.905 119.711 109.999 122.803C113.092 125.896 116.804 127.443 121.136 127.443Z" fill="url(#paint0_linear)"/>
<path d="M284.811 127.327V156.327H273.907C261.687 156.327 252.059 153.273 245.023 147.163C237.907 153.273 228.279 156.327 216.138 156.327H192.939V127.327H216.138C225.727 127.327 230.523 120.135 230.523 105.751V69.5591H259.407V105.751V105.983C259.483 120.213 264.317 127.327 273.907 127.327H284.811ZM218.111 166.303C222.131 166.303 225.535 167.733 228.319 170.595C231.103 173.379 232.495 176.781 232.495 180.803C232.495 184.823 231.103 188.227 228.319 191.011C225.535 193.795 222.131 195.187 218.111 195.187C214.089 195.187 210.687 193.795 207.903 191.011C205.041 188.227 203.611 184.823 203.611 180.803C203.611 176.781 205.041 173.379 207.903 170.595C210.687 167.733 214.088 166.303 218.111 166.303ZM251.17 166.535C255.191 166.535 258.632 167.965 261.494 170.827C264.278 173.611 265.67 177.013 265.67 181.035C265.67 185.055 264.278 188.459 261.494 191.243C258.632 194.027 255.19 195.419 251.17 195.419C247.227 195.419 243.862 194.027 241.078 191.243C238.216 188.459 236.786 185.055 236.786 181.035C236.786 177.013 238.216 173.611 241.078 170.827C243.862 167.965 247.227 166.535 251.17 166.535Z" fill="url(#paint1_linear)"/>
<path d="M376.333 127.443V156.327H365.429C353.209 156.327 343.581 153.311 336.545 147.279C329.429 153.311 319.801 156.327 307.661 156.327H284.461V127.443H307.661C317.327 127.443 322.161 120.213 322.161 105.751V69.5592H351.045V105.751V105.983C351.045 120.291 355.839 127.443 365.429 127.443H376.333V127.443ZM309.633 61.4382C305.689 61.4382 302.285 60.0082 299.425 57.1462C296.641 54.3622 295.249 50.9602 295.249 46.9382C295.249 42.9182 296.641 39.5142 299.425 36.7302C302.285 33.9462 305.689 32.5542 309.633 32.5542C313.654 32.5542 317.095 33.9462 319.957 36.7302C322.741 39.5142 324.133 42.9182 324.133 46.9382C324.133 50.9602 322.741 54.3622 319.957 57.1462C317.095 60.0092 313.653 61.4382 309.633 61.4382ZM328.309 47.1712C328.309 43.1502 329.74 39.7472 332.601 36.9632C335.385 34.1032 338.788 32.6712 342.809 32.6712C346.83 32.6712 350.234 34.1032 353.017 36.9632C355.801 39.7472 357.194 43.1512 357.194 47.1712C357.194 51.1152 355.801 54.5192 353.017 57.3792C350.234 60.1632 346.829 61.5552 342.809 61.5552C338.788 61.5552 335.385 60.1632 332.601 57.3792C329.739 54.5192 328.309 51.1152 328.309 47.1712Z" fill="url(#paint2_linear)"/>
<path d="M442.567 69.5592V105.751C442.567 139.469 428.105 156.327 399.184 156.327H375.984V127.443H399.184C408.85 127.443 413.684 120.213 413.684 105.751V69.5592H442.567ZM422.499 59.8142C418.478 59.8142 415.075 58.4222 412.291 55.6382C409.43 52.7782 407.999 49.3362 407.999 45.3142C407.999 41.3702 409.43 38.0062 412.291 35.2222C415.075 32.3622 418.477 30.9302 422.499 30.9302C426.52 30.9302 429.924 32.3622 432.707 35.2222C435.491 38.0062 436.884 41.3702 436.884 45.3142C436.884 49.3362 435.491 52.7782 432.707 55.6382C429.923 58.4232 426.519 59.8142 422.499 59.8142Z" fill="url(#paint3_linear)"/>
<path d="M453.818 39.6313H482.702V156.327H453.818V39.6313Z" fill="url(#paint4_linear)"/>
<defs>
<linearGradient id="paint0_linear" x1="-71.4013" y1="47.5888" x2="374.053" y2="290.013" gradientUnits="userSpaceOnUse">
<stop stop-color="white"/>
<stop offset="0.31" stop-color="white"/>
<stop offset="0.63" stop-color="white"/>
<stop offset="1" stop-color="white"/>
</linearGradient>
<linearGradient id="paint1_linear" x1="-36.5645" y1="-16.4239" x2="408.89" y2="226" gradientUnits="userSpaceOnUse">
<stop stop-color="white"/>
<stop offset="0.31" stop-color="white"/>
<stop offset="0.63" stop-color="white"/>
<stop offset="1" stop-color="white"/>
</linearGradient>
<linearGradient id="paint2_linear" x1="-2.69069" y1="-78.667" x2="442.764" y2="163.757" gradientUnits="userSpaceOnUse">
<stop stop-color="white" stop-opacity="0"/>
<stop offset="0.31" stop-color="white"/>
<stop offset="0.63" stop-color="white"/>
<stop offset="1" stop-color="white"/>
</linearGradient>
<linearGradient id="paint3_linear" x1="17.2356" y1="-115.281" x2="462.69" y2="127.143" gradientUnits="userSpaceOnUse">
<stop stop-color="white"/>
<stop offset="0.31" stop-color="white"/>
<stop offset="0.63" stop-color="white"/>
<stop offset="1" stop-color="white"/>
</linearGradient>
<linearGradient id="paint4_linear" x1="30.753" y1="-140.12" x2="476.208" y2="102.304" gradientUnits="userSpaceOnUse">
<stop stop-color="white"/>
<stop offset="0.31" stop-color="white"/>
<stop offset="0.63" stop-color="white"/>
<stop offset="1" stop-color="white"/>
</linearGradient>
</defs>
</svg>
