                    <svg width="104px" height="30px" viewBox="0 0 104 30" version="1.1" xmlns="http://www.w3.org/2000/svg" xmlns:xlink="http://www.w3.org/1999/xlink">
                        <defs>
                            <linearGradient x1="252.734768%" y1="67.3051005%" x2="0%" y2="50%" id="linearGradient-1">
                                <stop stop-color="#8431E0" offset="0%"></stop>
                                <stop stop-color="#39A4E9" offset="100%"></stop>
                            </linearGradient>
                            <linearGradient x1="143.126557%" y1="74.6302293%" x2="-18.8421236%" y2="86.4133504%" id="linearGradient-2">
                                <stop stop-color="#8431E0" offset="0%"></stop>
                                <stop stop-color="#39A4E9" offset="100%"></stop>
                            </linearGradient>
                            <linearGradient x1="151.760446%" y1="69.6494038%" x2="-50.1412058%" y2="69.6494038%" id="linearGradient-3">
                                <stop stop-color="#8431E0" offset="0%"></stop>
                                <stop stop-color="#39A4E9" offset="100%"></stop>
                            </linearGradient>
                            <linearGradient x1="131.024136%" y1="67.9365791%" x2="-89.452065%" y2="67.9365791%" id="linearGradient-4">
                                <stop stop-color="#8431E0" offset="0%"></stop>
                                <stop stop-color="#39A4E9" offset="100%"></stop>
                            </linearGradient>
                            <linearGradient x1="64.1375774%" y1="100%" x2="-99.4651728%" y2="100%" id="linearGradient-5">
                                <stop stop-color="#8431E0" offset="0%"></stop>
                                <stop stop-color="#39A4E9" offset="100%"></stop>
                            </linearGradient>
                        </defs>
                        <g id="mobileResponsive" stroke="none" stroke-width="1" fill="none" fill-rule="evenodd">
                            <g id="UI/header/menu/2" transform="translate(0.000000, -8.000000)">
                                <g id="logo/color" transform="translate(0.000000, 8.000000)">
                                    <g>
                                        <path d="M12.3994878,21.7997567 L12.3994878,29.6991067 C11.7750988,29.8079699 11.2050131,29.8624007 10.6892136,29.8624007 C7.63513729,29.8624007 5.09011189,28.8554308 3.05406103,26.8414607 C1.01801016,24.8274906 0,22.3032618 0,19.2686988 C0,16.3157831 1.02819026,13.811966 3.08460164,11.7571721 C5.14101301,9.7023783 7.64192464,8.6749968 10.5874116,8.6749968 C13.8722403,8.6749968 16.4613795,9.63774172 18.3549068,11.5632604 C20.2484341,13.4887792 21.1951835,16.1184676 21.1951835,19.4524046 L21.1951835,29.4337538 L13.5803914,29.4337538 L13.5803914,20.003522 C13.5803914,18.9284974 13.3191021,18.0712122 12.7965157,17.4316406 C12.2739293,16.792069 11.5715023,16.472288 10.6892136,16.472288 C9.88836692,16.472288 9.19612001,16.7648536 8.61245209,17.3499936 C8.02878418,17.9351336 7.7369546,18.6291264 7.7369546,19.4319928 C7.7369546,20.275683 8.00163724,20.9696758 8.53101047,21.5139921 C9.06038369,22.0583083 9.7322704,22.3304623 10.5466907,22.3304623 C11.2118007,22.3304623 11.8293935,22.1535622 12.3994878,21.7997567 Z" id="a" fill="url(#linearGradient-1)"></path>
                                        <path d="M44.0976292,29.4337538 L36.4828371,29.4337538 L36.4828371,17.9419346 C36.4828371,16.7716546 36.0009789,16.1865234 35.0372482,16.1865234 C34.0870911,16.1865234 33.6120197,16.7716546 33.6120197,17.9419346 L33.6120197,29.4337538 L25.9972276,29.4337538 L25.9972276,18.0848169 C25.9972276,15.4312752 26.8727163,13.1962101 28.62372,11.3795546 C30.3747238,9.56289915 32.5193319,8.65458504 35.0576086,8.65458504 C37.9623745,8.65458504 40.2902244,9.70918195 42.0412281,11.8184074 C43.4121691,13.464964 44.0976292,15.7578618 44.0976292,18.6971696 L44.0976292,29.4337538 Z" id="n" fill="url(#linearGradient-2)"></path>
                                        <path d="M55.6796887,1.5717053 L55.6796887,9.36899654 L59.1002371,9.36899654 L59.1002371,17.4316406 L55.6796887,17.4316406 C55.6796887,19.0509815 55.9341913,20.166813 56.443204,20.7791688 C56.9522167,21.3915246 57.8853927,21.6976979 59.2427599,21.6976979 L59.2427599,29.7195184 C58.8491234,29.7331263 58.5572939,29.7399302 58.3672624,29.7399302 C56.643406,29.7399302 55.0179832,29.338503 53.490945,28.5356365 C51.9639069,27.7327701 50.7389013,26.6441539 49.8158916,25.2697554 C48.6485557,23.5143355 48.0648966,21.1874184 48.0648966,18.2889344 L48.0648966,1.5717053 L55.6796887,1.5717053 Z" id="t" fill="url(#linearGradient-3)"></path>
                                        <path d="M70.8248194,9.08323194 L70.8248194,29.4337538 L63.2100273,29.4337538 L63.2100273,9.08323194 L70.8248194,9.08323194 Z M67.0377838,0 C68.0693829,0 68.9618385,0.364006029 69.7151773,1.09202901 C70.4685161,1.82005199 70.8451799,2.68073914 70.8451799,3.67411629 C70.8451799,4.73553297 70.4888763,5.6064259 69.7762585,6.28682121 C69.0636407,6.96721652 68.1508249,7.30740907 67.0377838,7.30740907 C65.9247426,7.30740907 65.0119269,6.96721652 64.2993091,6.28682121 C63.5866913,5.6064259 63.2303877,4.73553297 63.2303877,3.67411629 C63.2303877,2.68073914 63.6070515,1.82005199 64.3603903,1.09202901 C65.1137291,0.364006029 66.0061847,0 67.0377838,0 Z" id="i" fill="url(#linearGradient-4)"></path>
                                        <path d="M103.520621,29.4337538 L95.9058287,29.4337538 L95.9058287,18.4522285 C95.9058287,17.6085383 95.8176011,17.0234071 95.6411434,16.6968174 C95.4646857,16.3702276 95.1457091,16.2069352 94.6842043,16.2069352 C93.8290629,16.2069352 93.4014986,16.9621627 93.4014986,18.4726402 L93.4014986,29.4337538 L85.7867065,29.4337538 L85.7867065,18.4522285 C85.7867065,17.6085383 85.6950856,17.0234071 85.511841,16.6968174 C85.3285964,16.3702276 85.0062265,16.2069352 84.5447217,16.2069352 C83.703154,16.2069352 83.2823764,16.9621627 83.2823764,18.4726402 L83.2823764,29.4337538 L75.6675843,29.4337538 L75.6675843,16.9009349 C75.6675843,14.6148067 76.4344853,12.6723072 77.9683103,11.0733783 C79.5021352,9.47444929 81.3617005,8.6749968 83.5470617,8.6749968 C85.8002914,8.6749968 87.8227382,9.62753594 89.614463,11.5326428 C91.6097928,9.62753594 93.6050927,8.6749968 95.6004226,8.6749968 C98.1386993,8.6749968 100.17472,9.60032054 101.708545,11.4509958 C102.916601,12.8934338 103.520621,14.9958238 103.520621,17.7582287 L103.520621,29.4337538 Z" id="m" fill="url(#linearGradient-5)"></path>
                                    </g>
                                </g>
                            </g>
                        </g>
              </svg>