<svg width="55" height="54" viewBox="0 0 55 54" fill="none" xmlns="http://www.w3.org/2000/svg">
<path fill-rule="evenodd" clip-rule="evenodd" d="M27.5 53C42.1355 53 54 41.1355 54 26.5C54 11.8645 42.1355 0 27.5 0C12.8645 0 1 11.8645 1 26.5C1 41.1355 12.8645 53 27.5 53Z" fill="white" stroke="#5C20D2"/>
<mask id="mask0" mask-type="alpha" maskUnits="userSpaceOnUse" x="0" y="-1" width="55" height="55">
<path fill-rule="evenodd" clip-rule="evenodd" d="M27.5 53C42.1355 53 54 41.1355 54 26.5C54 11.8645 42.1355 0 27.5 0C12.8645 0 1 11.8645 1 26.5C1 41.1355 12.8645 53 27.5 53Z" fill="white" stroke="white"/>
</mask>
<g mask="url(#mask0)">
<rect x="14.3535" y="11.5122" width="49.3902" height="35.8537" rx="3" fill="url(#paint0_linear)"/>
<rect x="14.2559" y="11" width="49.6829" height="4.83871" rx="2.41935" fill="url(#paint1_linear)"/>
<rect x="24.5" y="21.2439" width="21.1823" height="2.56098" rx="1.28049" fill="#D8D8D8"/>
<rect x="48.3301" y="21.2439" width="7.41381" height="2.56098" rx="1.28049" fill="url(#paint2_linear)"/>
<path fill-rule="evenodd" clip-rule="evenodd" d="M25.0122 29.3912V36.6097H55.2317V27.9023H25.0122V29.3912Z" fill="#D8D8D8" fill-opacity="0.263931"/>
<rect x="27.061" y="30.4634" width="3.58537" height="3.58537" fill="#694F70"/>
<rect x="32.1831" y="30.4634" width="13.3171" height="0.512195" fill="#694F70"/>
<rect x="32.1831" y="31.4878" width="13.3171" height="0.512195" fill="#694F70"/>
<rect x="31.6709" y="33.5366" width="3.58537" height="0.512195" fill="#694F70"/>
<g clip-path="url(#clip0)">
<path fill-rule="evenodd" clip-rule="evenodd" d="M16.9194 13.6128C17.1956 13.6128 17.4194 13.3889 17.4194 13.1128C17.4194 12.8367 17.1956 12.6128 16.9194 12.6128C16.6433 12.6128 16.4194 12.8367 16.4194 13.1128C16.4194 13.3889 16.6433 13.6128 16.9194 13.6128Z" fill="#D8D8D8"/>
<path fill-rule="evenodd" clip-rule="evenodd" d="M19.9194 13.6128C20.1956 13.6128 20.4194 13.3889 20.4194 13.1128C20.4194 12.8367 20.1956 12.6128 19.9194 12.6128C19.6433 12.6128 19.4194 12.8367 19.4194 13.1128C19.4194 13.3889 19.6433 13.6128 19.9194 13.6128Z" fill="#FB9E58"/>
<path fill-rule="evenodd" clip-rule="evenodd" d="M22.9194 13.6128C23.1956 13.6128 23.4194 13.3889 23.4194 13.1128C23.4194 12.8367 23.1956 12.6128 22.9194 12.6128C22.6433 12.6128 22.4194 12.8367 22.4194 13.1128C22.4194 13.3889 22.6433 13.6128 22.9194 13.6128Z" fill="#F6CF00"/>
</g>
</g>
<defs>
<linearGradient id="paint0_linear" x1="14.3535" y1="11.5122" x2="14.3535" y2="47.3659" gradientUnits="userSpaceOnUse">
<stop stop-color="#5C20D2"/>
<stop offset="1" stop-color="#39A4E9"/>
</linearGradient>
<linearGradient id="paint1_linear" x1="14.2559" y1="11" x2="14.2559" y2="15.8387" gradientUnits="userSpaceOnUse">
<stop stop-color="#5C20D2"/>
<stop offset="1" stop-color="#39A4E9"/>
</linearGradient>
<linearGradient id="paint2_linear" x1="48.3301" y1="21.2439" x2="48.3301" y2="23.8049" gradientUnits="userSpaceOnUse">
<stop stop-color="#5C20D2"/>
<stop offset="1" stop-color="#39A4E9"/>
</linearGradient>
<clipPath id="clip0">
<rect width="7" height="1" fill="white" transform="translate(16.4194 12.6128)"/>
</clipPath>
</defs>
</svg>
