<?xml version="1.0" encoding="UTF-8"?>
<svg width="154px" height="154px" viewBox="0 0 154 154" version="1.1" xmlns="http://www.w3.org/2000/svg" xmlns:xlink="http://www.w3.org/1999/xlink">
    <!-- Generator: Sketch 55.2 (78181) - https://sketchapp.com -->
    <title>Img/add-product/active Copy 4</title>
    <desc>Created with Sketch.</desc>
    <defs>
        <circle id="path-1" cx="75" cy="75" r="75"></circle>
        <circle id="path-3" cx="75" cy="75" r="72.2222222"></circle>
        <linearGradient x1="50%" y1="0%" x2="50%" y2="100%" id="linearGradient-5">
            <stop stop-color="#5C20D2" offset="0%"></stop>
            <stop stop-color="#39A4E9" offset="100%"></stop>
        </linearGradient>
    </defs>
    <g id="landing-page" stroke="none" stroke-width="1" fill="none" fill-rule="evenodd">
        <g id="HomeV2" transform="translate(-1066.000000, -2612.000000)">
            <g id="Img/moneyBank" transform="translate(1068.000000, 2614.000000)">
                <g id="Group-4">
                    <g id="image/border/3">
                        <mask id="mask-2" fill="white">
                            <use xlink:href="#path-1"></use>
                        </mask>
                        <use id="Oval" stroke="#5C20D2" stroke-width="3" fill="#FFFFFF" fill-rule="evenodd" xlink:href="#path-1"></use>
                    </g>
                    <mask id="mask-4" fill="white">
                        <use xlink:href="#path-3"></use>
                    </mask>
                    <g id="Oval"></g>
                </g>
                <g id="Asset-17" transform="translate(38.888889, 27.777778)">
                    <g id="Group-22">
                        <path d="M26.0269822,6.37857168 C26.0269822,6.37857168 36.7733761,15.167926 26.0269822,25.7151513 C15.2805882,36.2623765 -6.8714358,55.5116229 2.08389247,78.3639442 C8.14325855,90.0891547 33.9139106,96.6315857 51.1019013,88.9985027 C68.289892,81.3654196 65.4304266,45.5659258 58.2661639,34.5045056 C51.1019013,23.4430855 47.51977,25.7151513 51.1019013,20.4415387 C54.6840326,15.167926 63.6393609,9.89431342 60.0572296,8.13644255 C56.4750983,6.37857168 52.3687325,5.7476764 48.2083115,4.62070081 C44.0478905,3.49372522 42.7090952,11.999556 36.7733761,4.62070081 C30.8376569,-2.75815434 26.0269822,-0.652911809 26.0269822,6.37857168 Z" id="Path" fill="url(#linearGradient-5)"></path>
                        <path d="M49.9494949,21.0267229 L30.2020202,17.5222691" id="Path" stroke="#000000"></path>
                        <path d="M49.9494949,25.699328 L29.040404,19.8585717" id="Path" stroke="#000000"></path>
                        <path d="M45.3030303,49.034359 C40.322904,36.1682869 24.0517924,53.9756601 34.9241954,55.2786292 C45.7965984,56.5815984 49.2114353,68.4821663 30.2020202,64.6649489" id="Path" stroke="#F9F9F9" stroke-width="2" stroke-linecap="round"></path>
                        <path d="M42.3989899,43.2215971 L42.3989899,37.3808408" id="Path" stroke="#F9F9F9" stroke-width="2" stroke-linecap="round"></path>
                        <path d="M36.5909091,66.5846226 L36.5909091,72.425379" id="Path" stroke="#F9F9F9" stroke-width="2" stroke-linecap="round"></path>
                    </g>
                </g>
            </g>
        </g>
    </g>
</svg>