<?xml version="1.0" encoding="UTF-8"?>
<svg width="180px" height="207px" viewBox="0 0 180 207" version="1.1" xmlns="http://www.w3.org/2000/svg" xmlns:xlink="http://www.w3.org/1999/xlink">
    <!-- Generator: Sketch 55.2 (78181) - https://sketchapp.com -->
    <title>Path 4 Copy 10</title>
    <desc>Created with Sketch.</desc>
    <defs>
        <path d="M19.465597,88.9493555 C-0.211177249,133.285669 -13.9834711,158.542018 28.5283019,191.54717 C71.0400748,224.552322 106.216849,194.881279 156.772907,170.71751 C207.328965,146.55374 168.095558,33.9173188 102.694145,6.74750748 C37.2927334,-20.4223038 39.1423713,44.6130421 19.465597,88.9493555 Z" id="path-1"></path>
        <linearGradient x1="55.312074%" y1="-31.6062285%" x2="81.0376492%" y2="155.469424%" id="linearGradient-3">
            <stop stop-color="#EAEAEA" offset="0%"></stop>
            <stop stop-color="#D0D0D0" offset="100%"></stop>
        </linearGradient>
        <linearGradient x1="3.97846198%" y1="-23.4382698%" x2="73.9758057%" y2="100%" id="linearGradient-4">
            <stop stop-color="#000000" offset="0%"></stop>
            <stop stop-color="#000000" offset="100%"></stop>
        </linearGradient>
        <linearGradient x1="49.1905303%" y1="0%" x2="50%" y2="99.8126056%" id="linearGradient-5">
            <stop stop-color="#CCCCCC" offset="0%"></stop>
            <stop stop-color="#D9D7D7" offset="100%"></stop>
        </linearGradient>
        <linearGradient x1="47.0092801%" y1="2.60193495%" x2="47.6954023%" y2="85.7308502%" id="linearGradient-6">
            <stop stop-color="#D4D4D4" offset="0%"></stop>
            <stop stop-color="#F4F4F4" offset="100%"></stop>
        </linearGradient>
        <linearGradient x1="39.3298317%" y1="-25.1450184%" x2="50%" y2="100%" id="linearGradient-7">
            <stop stop-color="#EAEAEA" offset="0%"></stop>
            <stop stop-color="#A7A7A7" offset="100%"></stop>
        </linearGradient>
        <linearGradient x1="39.2742382%" y1="-12.6794963%" x2="52.4369558%" y2="114.115464%" id="linearGradient-8">
            <stop stop-color="#FAFAFA" offset="0%"></stop>
            <stop stop-color="#F4F4F4" offset="100%"></stop>
        </linearGradient>
        <linearGradient x1="18.6789314%" y1="-32.1726018%" x2="52.8846609%" y2="100%" id="linearGradient-9">
            <stop stop-color="#F6F6F6" offset="0%"></stop>
            <stop stop-color="#EAEAEA" offset="100%"></stop>
        </linearGradient>
    </defs>
    <g id="landing-page" stroke="none" stroke-width="1" fill="none" fill-rule="evenodd">
        <g id="HomeV2" transform="translate(-635.000000, -1408.000000)">
            <g id="Path-4-Copy-10" transform="translate(635.000000, 1408.000000)">
                <mask id="mask-2" fill="white">
                    <use xlink:href="#path-1"></use>
                </mask>
                <use id="Path-4-Copy-5" fill="#000000" xlink:href="#path-1"></use>
                <g id="Art/cardWithMan" mask="url(#mask-2)">
                    <g transform="translate(37.000000, -176.000000)" id="bookWithMen">
                        <g transform="translate(101.000000, 306.000000) scale(-1, 1) translate(-101.000000, -306.000000) translate(0.000000, 0.000000)">
                            <polygon id="Path" fill="#39A4E9" fill-rule="nonzero" points="14 573.517986 38.6238625 585 63 543.755396 31.3902932 529"></polygon>
                            <path d="M44.9554871,573.778747 C45.8302492,575.012353 46.3834139,576.467743 46.5595395,577.999048 C47.1428313,579.954797 47.7747308,581.962014 48.4066302,583.866296 C49.2102593,587.424006 50.663365,590.780924 52.6841033,593.747977 C55.7120306,597.425599 59.73313,600.030489 64.204116,601.210704 C66.3904119,601.689845 68.3404171,602.987145 69.6967803,604.864868 C70.3286797,606.151545 69.9884262,610.732116 68.5301967,611.658523 C67.0719673,612.584931 64.4957619,611.349721 63.6694318,611.195319 C61.9195565,610.886517 38.3934546,608.36463 27.0678725,595.755193 C22.2071076,590.608484 15.4506444,588.601268 9.13165013,585.461776 C7.72202832,584.792703 5.04860765,583.197224 5,581.292941 C5.6670304,578.973106 6.68478641,576.783089 8.01367421,574.808088 C10.3390877,570.620388 13.4094437,566.949931 17.0546969,564 C17.9296345,564.669072 18.2212804,566.779223 18.8045722,567.808564 C19.7253425,569.302411 20.837761,570.653485 22.1098923,571.822997 C23.9215711,573.716317 25.9651485,575.343491 28.1858484,576.660904 C32.5119291,579.02839 36.1575027,575.631562 40.5807988,573.933148 C42.2334588,573.264076 44.566626,573.00674 45.4415636,574.499286 L44.9554871,573.778747 Z" id="Path" fill="#5C20D2" fill-rule="nonzero"></path>
                            <polygon id="Path" fill="#39A4E9" fill-rule="nonzero" points="129.927428 595 158 589.437315 146.012807 546 110 553.110563"></polygon>
                            <path d="M156.272281,580 C157.855264,580.398797 159.333438,581.155215 160.600861,582.21504 L166.272792,585.511843 C169.470459,587.694199 173.003729,589.296825 176.721087,590.250998 C181.528883,591.188551 186.494466,590.706572 191.050177,588.860159 C193.224977,587.863907 195.658418,587.6464 197.965953,588.242008 C199.359059,588.808646 202.443794,592.466037 201.946256,594.011414 C201.448718,595.556791 198.612752,596.226454 197.766938,596.741579 C196.921123,597.256705 176.024534,609.980305 157.96391,607.353165 C150.713291,607.073577 143.475625,608.19149 136.619536,610.649968 C135.027415,611.010556 131.644158,611.422656 130.400313,610.031818 C129.279465,607.948583 128.505739,605.684668 128.111639,603.335186 C126.921139,598.891881 126.683403,594.232804 127.415086,589.68436 C128.559423,589.68436 130.300806,591.075199 131.494896,591.435786 C133.272771,592.004876 135.110242,592.350771 136.967813,592.466037 C139.694449,592.805512 142.450551,592.805512 145.177187,592.466037 C150.152566,591.590324 150.650104,586.799657 152.889024,582.83319 C153.734838,581.339326 155.326959,579.690925 157.167849,580.20605 L156.272281,580 Z" id="Path" fill="#5C20D2" fill-rule="nonzero"></path>
                            <path d="M90.5911612,26 C93.4067172,26.4488038 96.4164496,26 99.3290938,26.598405 C102.56575,27.2438109 105.669621,28.4584635 108.503923,30.1888352 C113.601323,33.6301149 117.721407,38.3958349 120.445764,44.0020178 C121.7633,46.1008602 122.685436,48.4351989 123.164232,50.8836756 C123.164232,52.9282261 122.047719,54.7234412 122.387527,56.8178588 C123.321717,60.4896953 125.554372,63.672155 128.649712,65.7440671 C129.717682,66.6416746 132.047797,67.7886176 132,69.4342314 C131.950709,71.0798453 129.766226,72.127054 128.989521,72.9747945 C127.606596,74.0051786 126.793041,75.6580618 126.805038,77.4129651 C126.805038,78.3105726 127.775919,78.9089777 127.581743,79.8065852 C127.387566,80.7041927 126.125421,80.9535282 126.076876,81.5519332 C126.028332,82.1503382 127.144846,82.8983445 127.096302,83.746085 C127.047758,84.5938254 125.979788,84.8431608 125.542892,85.6410342 C124.631484,87.2252903 125.053466,89.2626572 126.513773,90.3285402 C128.115727,91.924287 128.892433,91.8744199 127.824463,94.4675083 C127.143791,96.1613417 125.750684,97.4456392 124.038026,97.9582043 C120.825585,98.6366804 117.504636,98.5513939 114.329212,97.7088689 C110.057333,97.2600651 109.474804,99.6536852 108.115571,103.244115 C105.797359,110.184462 104.536533,117.450975 104.377677,124.786696 C102.290282,125.833905 98.6980209,122.742146 96.9989784,121.64507 C93.1154528,119.151716 89.3775594,116.658361 85.4454897,114.165007 C81.8466547,112.81873 78.3290721,111.253456 74.9114265,109.477501 C73.3187198,108.103323 72.3375957,106.123591 72.1929586,103.992122 C71.5152049,98.4996748 70.3783106,93.077379 68.7948736,87.7853189 C67.9022493,85.8451845 66.5906703,84.1397102 64.9598921,82.7986103 C62.9843505,80.6633646 61.3463854,78.2235859 60.1054851,75.5678829 C55.251078,66.1928709 51.8529931,55.2221121 55.5908865,45.0492266 C58.543225,39.1385605 63.0506279,34.1973264 68.6006974,30.7872402 C72.8062176,28.2619761 77.5659702,26.872336 82.4357574,26.7480063 C85.3886007,26.1928179 88.415023,26.1928179 91.3678663,26.7480063 L90.5911612,26 Z" id="Path" fill="url(#linearGradient-3)" fill-rule="nonzero"></path>
                            <g id="Group" transform="translate(43.000000, 0.000000)" fill-rule="nonzero">
                                <path d="M63.7258459,35.6411804 C54.0755784,37.8755362 48.332063,38.1561538 48.084507,48.0946154 C47.370323,52.1151824 46.9730031,56.1859942 46.8962386,60.2692308 C47.2923281,62.1078462 49.2727755,62.7041538 49.9164209,64.5427692 C50.5600663,66.3813846 50.5105551,69.0150769 51.2037117,71.0524615 C53.4812262,77.5124615 60.3632809,82.6307692 66.0570671,86.6558462 C71.7508534,90.6809231 83.7820713,91.1778462 87.4954101,96.5943077 C79.96971,99.7746154 69.2752941,96.5943077 61.1554598,96.5943077 C48.876686,96.5943077 48.6291301,94.2090769 44.4701906,84.7178462 C43.3314333,82.1835385 36.0532891,61.9587692 30.8051036,70.2076923 C29.0722121,72.8910769 33.5777299,77.264 32.5875062,80.5933846 C31.5972825,83.9227692 27.3393206,87.1030769 24.2696272,89.5876923 C18.9554531,81.6131619 10.3325875,69.3432453 5.72851452,59 C-4.02974865,37.0776477 0.798608973,30.8114443 13.4008849,30.8114443 C18,30.8114443 15.6771585,13.4337309 24.2696272,16.5294974 C29.5411091,18.4287511 35.7093618,20.66129 40.512392,19.3804925 C51.2037117,16.5294974 48.084507,-7.13873405e-14 55.5286595,1.00746809 C62.972812,2.01493619 115.219656,3.01124528 83.5381471,38.2502593 C74.7143125,48.0649191 73.3761135,33.4068246 63.7258459,35.6411804 Z" id="Path" fill="url(#linearGradient-4)"></path>
                                <path d="M81.9996686,88.892 C83.980116,89.4386154 88.8322121,93.414 88.3866114,95.7992308 C87.6934548,99.4267692 81.2074896,98.8801538 78.4843745,98.9298462 C74.6962179,98.9185712 70.9114036,98.7029268 67.1463132,98.2838462 C63.0198808,98.1677825 58.9397167,97.3789741 55.0655841,95.9483077 C54.0793954,95.611569 53.1938491,95.0304398 52.4910025,94.2587692 C53.7782933,93.7618462 56.6004308,94.5569231 57.442121,93.7121538 C58.2838111,92.8673846 57.0460315,90.0846154 58.3333223,88.7429231 C59.6206131,87.4012308 66.4531566,89.538 68.7306711,90.3330769 C71.0081856,91.1281538 82.643314,94.9047692 81.1579785,88.4447692 C81.6740406,88.6126056 82.1591126,88.8644228 82.5938028,89.1901538 L81.9996686,88.892 Z" id="Path" fill="#000000"></path>
                                <path d="M83.7325601,75.0278462 C84.8896546,75.6118286 85.5469518,76.8712593 85.3664292,78.1584615 C83.4893998,77.975915 81.5991834,77.975915 79.7221541,78.1584615 C77.8171377,78.5888838 76.0892329,79.5947348 74.7710356,81.0406154 C72.8319021,83.9697857 72.304874,87.6177583 73.3352113,90.9790769 C68.7801823,90.4324615 69.1762717,80.7424615 71.4042751,78.2578462 C73.0250771,76.6902753 75.1109427,75.6958646 77.3456172,75.4253846 C78.632908,75.4253846 84.0296272,75.4253846 83.980116,75.1272308 L83.7325601,75.0278462 Z" id="Path" fill="#000000"></path>
                            </g>
                            <path d="M72.062503,101 C74.885355,108.403328 97.7157891,118.191621 106.38244,117.645066 C105.144347,124.452153 112.424333,129.967384 115.395757,136.128543 C118.36718,142.289702 135.997623,163.853758 137.879525,169.915543 C142.287136,184.225331 156.847109,341.633003 164.374714,413.082571 C167.643279,444.186486 171.357558,474.942593 175.666122,505.798074 C177.250881,517.126656 177.597547,528.455239 179.083258,539.833508 C179.925161,546.243101 187.205148,557.273563 184.332772,563.633468 C179.380401,574.862677 137.631906,576.35328 125.597642,578.092317 C100.489117,581.769138 76.7177325,583.060994 52.1044446,575.260171 C38.9311355,571.235544 26.9959194,565.322818 13.6245154,561.795058 C0.253111501,558.267298 0.302635219,556.279827 0.00549290972,544.504064 C-0.132294635,517.828444 2.32248742,491.202888 7.33500322,465.00524 C18.1806975,403.343965 21.4492629,374.475954 38.0397086,301.833904 C43.4873176,278.033944 50.6682567,260.494515 54.2339644,236.396434 C56.5120555,221.092911 45.3196951,167.431205 48.4396894,154.512646 C51.1634939,143.333124 59.1863363,107.508966 72.1120267,102.788724 L72.062503,101 Z" id="Path" fill="url(#linearGradient-5)" fill-rule="nonzero"></path>
                            <path d="M7.32715742,465.01891 C18.1612508,403.33848 21.42632,374.461502 37.9990198,301.796886 C43.4408019,277.989533 50.61406,260.444656 54.1759537,236.339089 C56.4516081,221.030812 45.172278,163.575069 48.3384057,150.652497 C51.0592968,139.469502 59.1230283,107.411584 72.0843637,102.689875 L72.0843637,101 C74.8514029,105.263456 78.8341085,108.589245 83.512106,110.542822 C80.989098,120.483262 77.3777335,130.175191 75.7451989,140.364142 C73.3999114,157.356574 72.88574,174.553587 74.2116058,191.656812 C75.0190965,214.824642 77.2993974,237.916952 81.0385687,260.792572 C78.268207,305.524551 78.8618559,351.002064 89.2012418,394.29268 C95.5713132,423.120288 107.049835,450.561934 123.088703,475.307265 C138.869871,498.617597 161.181177,515.367238 178.743292,536.689482 C178.743292,537.733228 178.743292,538.776974 179.089587,539.82072 C179.93059,546.232304 187.202789,557.266192 184.333486,563.628074 C179.386411,574.860771 137.682573,576.351837 125.661181,578.091414 C100.579513,581.769377 76.8335553,583.061634 52.2465947,575.258388 C39.0873763,571.23251 27.1649265,565.317949 13.8078251,561.789092 C0.450723747,558.260236 0.302311509,556.32185 0.00548703429,544.542429 C-0.132153127,517.858523 2.3200032,491.224696 7.32715742,465.01891 L7.32715742,465.01891 Z" id="Path" fill="url(#linearGradient-6)" fill-rule="nonzero"></path>
                            <g id="creditcard" transform="translate(62.000000, 251.000000)">
                                <g id="creditCard">
                                    <path d="M17.4970525,79.7999991 L126.950916,78.1082342 C134.12976,77.997275 139.859413,72.0877216 139.748454,64.9088773 C139.748193,64.8920312 139.7479,64.8751856 139.747574,64.8583407 L138.743318,12.947057 C138.604831,5.7884546 132.704003,0.0894416737 125.544915,0.20005451 L16.0575744,1.89170942 C8.87872951,2.00262752 3.14904275,7.91214806 3.25996085,15.090993 C3.26026467,15.1106569 3.26061311,15.13032 3.26100617,15.1499823 L4.29873978,67.061376 C4.44177709,74.2166477 10.341206,79.9106029 17.4970525,79.7999991 Z" id="Path" fill="#4F1FAE" fill-rule="nonzero"></path>
                                    <path d="M14.4970525,84.7999991 L123.950916,83.1082342 C131.12976,82.997275 136.859413,77.0877216 136.748454,69.9088773 C136.748193,69.8920312 136.7479,69.8751856 136.747574,69.8583407 L135.743318,17.947057 C135.604831,10.7884546 129.704003,5.08944167 122.544915,5.20005451 L13.0575744,6.89170942 C5.87872951,7.00262752 0.149042749,12.9121481 0.259960853,20.090993 C0.260264673,20.1106569 0.260613114,20.13032 0.261006173,20.1499823 L1.29873978,72.061376 C1.44177709,79.2166477 7.341206,84.9106029 14.4970525,84.7999991 Z" id="Path" fill="#5C20D2" fill-rule="nonzero"></path>
                                    <path d="M13.6340775,84.774825 L127.063693,82.6598814 C111.335099,54.4642461 95.2978533,36.1828116 78.9519566,27.8155779 C62.60606,19.4483442 36.5376433,16.1764849 0.746706551,18 L1.41124959,72.9220966 C1.49143374,79.5490285 6.9286256,84.8562162 13.5555575,84.776032 C13.5817321,84.7757153 13.6079056,84.775313 13.6340775,84.774825 Z" id="Path" fill-opacity="0.0962357955" fill="#000000" fill-rule="nonzero"></path>
                                    <rect id="Rectangle" fill="#441997" x="43" y="62" width="80" height="6" rx="3"></rect>
                                    <rect id="Rectangle-Copy-4" fill="#441997" x="101" y="18" width="22" height="5" rx="2.5"></rect>
                                    <circle id="Oval" fill="#000000" cx="20" cy="65" r="7"></circle>
                                    <circle id="Oval-Copy-3" fill="#39A4E9" cx="27" cy="65" r="7"></circle>
                                </g>
                            </g>
                            <path d="M147.54359,303 C149.594052,305.165252 150.444243,307.921027 153.294885,309.003653 C156.145527,310.086279 159.196215,310.529171 162.096868,311.562587 C164.76735,312.287165 167.012857,314.069053 168.298265,316.483614 C170.098671,319.780702 173.849516,321.404641 175.59991,324.603309 C172.4492,328.687761 167.198017,321.503062 165.597657,319.682282 C167.648119,322.930159 169.798603,326.227248 171.498986,329.524336 C173.58091,332.694614 175.102724,336.18864 176,339.858492 C176,341.777693 176,345.173202 173.749493,343.10637 C172.549223,342.023744 171.799054,339.071128 170.748817,337.64403 C168.848389,335.134307 165.3476,330.016438 162.296913,329.524336 C162.94706,332.526162 173.24938,341.876114 170.448749,345.370043 C167.648119,348.863972 159.146203,336.905876 157.545843,334.691414 C156.495606,339.612441 165.247578,343.696894 167.548096,346.993982 C164.597431,349.700547 159.746339,346.255828 157.545843,344.730309 C158.346023,346.009776 159.846361,346.501879 160.846586,347.436874 C155.84546,351.029224 143.492677,333.707209 141.442215,330.016438 C140.420302,327.824289 139.583944,325.552911 138.941652,323.225421 C138.057152,321.394803 136.855626,319.729617 135.390852,318.304394 C134.490649,317.221768 131.439962,314.564414 132.090108,312.842054 C132.390176,311.907059 136.591122,309.249704 137.591348,308.363919 C138.591573,307.478135 146.293308,301.671323 146.793421,303.738154 L147.54359,303 Z" id="Path" fill="url(#linearGradient-7)" fill-rule="nonzero"></path>
                            <path d="M66.3929368,136.747284 C68.2833304,133.556949 70.6951891,130.714058 73.5258623,128.339606 C73.8210178,128.687853 73.5258623,128.339606 73.8210178,128.339606 L73.083129,128.98635 C74.4493557,127.758978 76.1793055,127.024173 78.002388,126.896868 C89.513454,120.87717 104.418809,130.279839 110.961423,139.782008 C116.136304,147.034337 117.932151,156.206049 115.880682,164.905541 C114.109749,172.367977 114.404905,180.576657 113.322668,188.238091 C113.430573,192.379436 113.200226,196.522722 112.633971,200.625734 C111.568672,207.213475 110.878837,213.857719 110.567883,220.525563 C110.567883,224.853776 108.452601,231.37097 109.731609,235.450434 C110.92029,234.93648 112.301864,235.381049 112.978319,236.495175 C114.89683,238.783656 112.978319,238.733906 112.978319,241.470133 C112.978319,244.206359 114.89683,243.310867 116.766149,244.504857 C119.619319,246.39534 117.700808,246.047093 117.946771,248.73357 C118.192734,251.420047 142.198718,280.424047 145.396236,289.975965 C146.940028,293.378096 148.14305,296.928028 148.987295,300.572624 C148.987295,303.010353 149.233258,301.816363 147.56071,303.458099 C145.888162,305.099835 143.772881,306.642072 142.001948,308.084809 C139.0012,310.472789 135.803681,312.562271 132.704548,315 C129.457837,313.607012 127.785289,307.537564 124.538578,305.050086 C118.263493,299.877477 112.346504,294.275803 106.829246,288.28448 C101.909987,282.762277 96.9907277,277.041077 92.0714687,271.469125 C88.2772587,267.786455 84.9702858,263.622657 82.2329507,259.081481 C81.0459841,254.658948 80.1908822,250.152094 79.674936,245.599347 C78.3049,241.171494 76.6619294,236.834789 74.755677,232.614709 C69.4039051,218.632541 65.8173362,204.023539 64.080885,189.133583 C63.244611,181.770646 63.4413814,174.208711 62.162374,166.945274 C60.8948152,160.860698 60.6619154,154.602149 61.4736778,148.438433 C62.3328231,144.250737 64.0048447,140.276997 66.3929368,136.747284 L66.3929368,136.747284 Z" id="Path" fill="url(#linearGradient-8)" fill-rule="nonzero"></path>
                            <path d="M61.5008335,147.519945 C62.3606788,143.30538 64.0340627,139.306144 66.4241003,135.753783 C66.9656597,134.852545 67.6056844,133.901238 68.2949417,133 C72.2335552,193.833563 87.988009,258.171939 145.984092,291.367538 C147.349318,294.268097 148.357979,297.328653 148.987285,300.480055 C148.987285,302.933425 149.233448,301.731774 147.559538,303.384044 C145.885627,305.036314 143.768622,306.588446 141.996246,308.04044 C138.993053,310.443741 135.79293,312.54663 132.691272,315 C129.441916,313.598074 127.768005,307.489684 124.518649,304.986245 C118.238451,299.780447 112.316642,294.142832 106.794888,288.113067 C101.871621,282.555433 96.9483546,276.797524 92.0250878,271.189821 C88.2277866,267.483523 84.9181194,263.293009 82.1785542,258.722696 C80.9906204,254.271787 80.1348219,249.736016 79.6184554,245.154058 C78.2473031,240.697795 76.602994,236.333264 74.6951886,232.086107 C69.3390564,218.014227 65.7495655,203.311491 64.0116996,188.325997 C63.1747442,180.915818 63.3716749,173.305365 62.0916255,165.995323 C60.8726146,159.914694 60.6728712,153.668273 61.5008335,147.519945 L61.5008335,147.519945 Z" id="Path" fill="url(#linearGradient-9)" fill-rule="nonzero"></path>
                        </g>
                    </g>
                </g>
            </g>
        </g>
    </g>
</svg>